<?xml version="1.0" standalone="no"?>
<!DOCTYPE svg PUBLIC "-//W3C//DTD SVG 1.1//EN" "http://www.w3.org/Graphics/SVG/1.1/DTD/svg11.dtd" >
<svg xmlns="http://www.w3.org/2000/svg" xmlns:xlink="http://www.w3.org/1999/xlink" version="1.1">
<metadata>
Created by FontForge 20160407 at Thu Aug  4 10:10:20 2016
 By Jimmy Warting
Copyright (c) 2012 by TipografiaRamis. All rights reserved.
</metadata>
<defs>
<font id="DecimaMonoPro-Bold" horiz-adv-x="600" >
  <font-face 
    font-family="DecimaMonoPro-Bold"
    font-weight="400"
    font-stretch="normal"
    units-per-em="1000"
    panose-1="2 0 5 9 0 0 0 2 0 4"
    ascent="789"
    descent="-211"
    x-height="499.999"
    cap-height="700.001"
    bbox="-76.999 -223.003 683.002 945.002"
    underline-thickness="50"
    underline-position="-50"
    unicode-range="U+0020-F655D"
  />
<missing-glyph 
 />
    <glyph glyph-name="fi" unicode="fi" 
d="M518 676v-80.002c0 -16 -8.66699 -24 -26 -24h-78c-6.66699 0 -12.334 2.33301 -17.001 7s-7 10.334 -7 17.001v80c0 6.66699 2.33301 12.334 7 17.001s10.334 7 17.001 7h78c17.333 0 26 -8 26 -24zM392 395.998l-184.002 -0.000976562v-369
c0 -7.33301 -2.66699 -13.666 -8 -18.999s-11.666 -8 -18.999 -8h-67c-7.33301 0 -13.666 2.66699 -18.999 8s-8 11.666 -8 18.999v369h-40c-6.66699 0 -12.5 2.33301 -17.5 7s-7.5 10.334 -7.5 17.001v56c0 6.66699 2.5 12.334 7.5 17.001s10.833 7 17.5 7h39v62
c0 41.333 14.5 76.333 43.5 105s64.5 43 106.5 43c34 0 64.667 -8.66699 92 -26c6.66699 -4.66699 10 -11 10 -19c0 -5.33301 -1.66699 -10.333 -5 -15l-34 -48c-4.66699 -6 -10.667 -9 -18 -9c-3.33301 0 -9.5 2 -18.5 6s-17.833 6 -26.5 6c-10 0 -18 -3.16699 -24 -9.5
s-9 -14.5 -9 -24.5v-71h281c7.33301 0 14 -2.33301 20 -7s9 -10.334 9 -17.001v-372h40c6.66699 0 12.5 -2.33301 17.5 -7s7.5 -10.334 7.5 -17.001v-56c0 -6.66699 -2.5 -12.334 -7.5 -17.001s-10.833 -7 -17.5 -7h-211c-6.66699 0 -12.5 2.33301 -17.5 7
s-7.5 10.334 -7.5 17.001v56c0 6.66699 2.5 12.334 7.5 17.001s10.833 7 17.5 7h50v292z" />
    <glyph glyph-name="fl" unicode="fl" 
d="M86 500l0.996094 52.001c0.666992 41.333 15.334 76.333 44.001 105s64 43 106 43h247c7.33301 0 14 -2.33301 20 -7s9 -10.334 9 -17.001v-572h40c6.66699 0 12.5 -2.33301 17.5 -7s7.5 -10.334 7.5 -17.001v-56c0 -6.66699 -2.5 -12.334 -7.5 -17.001
s-10.833 -7 -17.5 -7h-211c-6.66699 0 -12.5 2.33301 -17.5 7s-7.5 10.334 -7.5 17.001v56c0 6.66699 2.5 12.334 7.5 17.001s10.833 7 17.5 7h50v491h-143c-13.333 0 -24.166 -4 -32.499 -12s-12.5 -18.333 -12.5 -31v-52h93c6.66699 0 12.5 -2.33301 17.5 -7
s7.5 -10.334 7.5 -17.001v-56c0 -6.66699 -2.5 -12.334 -7.5 -17.001s-10.833 -7 -17.5 -7h-93v-369c0 -7.33301 -2.66699 -13.666 -8 -18.999s-11.666 -8 -18.999 -8h-63c-7.33301 0 -13.666 2.66699 -18.999 8s-8 11.666 -8 18.999v369h-40
c-6.66699 0 -12.5 2.33301 -17.5 7s-7.5 10.334 -7.5 17.001v56c0 6.66699 2.5 12.334 7.5 17.001s10.833 7 17.5 7h39z" />
    <glyph glyph-name=".notdef" 
 />
    <glyph glyph-name="space" unicode=" " 
 />
    <glyph glyph-name="exclam" unicode="!" 
d="M368 111v-86c0 -16.667 -9 -25 -27 -25h-84c-16.667 -0 -25 8.33301 -25 25v86c0 16.667 8.33301 25 25 25h84c18 0 27 -8.33301 27 -25zM363 670v-435c0 -8.66699 -2.83301 -15.834 -8.5 -21.501s-12.834 -8.5 -21.501 -8.5h-65c-8.66699 0 -15.834 2.83301 -21.501 8.5
s-8.5 12.834 -8.5 21.501v435c0 8.66699 2.83301 15.834 8.5 21.501s12.834 8.5 21.501 8.5h65c8.66699 0 15.834 -2.83301 21.501 -8.5s8.5 -12.834 8.5 -21.501z" />
    <glyph glyph-name="quotedbl" unicode="&#x22;" 
d="M268 667l-29.001 -186.001c-3.33301 -16.667 -12.666 -25 -27.999 -25h-26c-16.667 0 -25 8.33301 -25 25v188c0 20.667 10.667 31 32 31h46c11.333 0 19.5 -3.16699 24.5 -9.5s6.83301 -14.166 5.5 -23.499zM434.999 666.999l-29.001 -186
c-3.33301 -16.667 -12.666 -25 -27.999 -25h-26c-16.667 0 -25 8.33301 -25 25v188c0 20.667 10.667 31 32 31h46c23.333 0 33.333 -11 30 -33z" />
    <glyph glyph-name="numbersign" unicode="#" 
d="M514 267l0.00195312 -72c0 -14 -7.66699 -21 -23 -21h-81l-21 -144c-1.33301 -8.66699 -5.33301 -15.834 -12 -21.501s-14.334 -8.5 -23.001 -8.5h-32c-8.66699 0 -15.334 2.83301 -20.001 8.5s-6.33398 12.834 -5.00098 21.501l21 144h-89l-21 -144
c-1.33301 -8.66699 -5.33301 -15.834 -12 -21.501s-14.334 -8.5 -23.001 -8.5h-32c-8.66699 0 -15.334 2.83301 -20.001 8.5s-6.33398 12.834 -5.00098 21.501l21 144h-59c-6.66699 0 -12 2 -16 6s-6 9 -6 15v72c0 6 2 11 6 15s9.33301 6 16 6h76l14 98h-61
c-6.66699 0 -12 2 -16 6s-6 9 -6 15v72c0 6 2 11 6 15s9.33301 6 16 6h78l25 170c0.666992 8.66699 4.33398 15.834 11.001 21.501s14.334 8.5 23.001 8.5h32c8.66699 0 15.5 -2.83301 20.5 -8.5s6.83301 -12.834 5.5 -21.501l-25 -170h89l25 170
c0.666992 8.66699 4.33398 15.834 11.001 21.501s14.334 8.5 23.001 8.5h32c8.66699 0 15.5 -2.83301 20.5 -8.5s6.83301 -12.834 5.5 -21.501l-25 -170h62c15.333 0 23 -7 23 -21v-72c0 -14 -7.66699 -21 -23 -21h-79l-14 -98h64c15.333 0 23 -7 23 -21zM260.002 386
l-14 -98h89l14 98h-89z" />
    <glyph glyph-name="dollar" unicode="$" 
d="M301 591c-20.667 0 -38.501 -7.16113 -53.501 -21.4941s-22.5 -31.166 -22.5 -50.499c0 -20.667 9.66699 -39.167 29 -55.5s42.666 -31.166 69.999 -44.499s54.833 -28.5 82.5 -45.5s51.167 -41 70.5 -72s29 -67.833 29 -110.5c0 -43.333 -13.667 -82.333 -41 -117
s-62.333 -58 -105 -70v-46c0 -8 -2.66699 -14.667 -8 -20s-11.666 -8 -18.999 -8h-68c-7.33301 0 -13.666 2.66699 -18.999 8s-8 11.666 -8 18.999v48c-42 12.667 -76.167 36.334 -102.5 71.001s-39.5 73.667 -39.5 117c0 8.66699 2.83301 15.834 8.5 21.501
s12.834 8.5 21.501 8.5h58c8.66699 0 15.834 -2.83301 21.501 -8.5s8.5 -12.834 8.5 -21.501c0 -26.667 8.83301 -47.334 26.5 -62.001s37.834 -22 60.501 -22c23.333 0 42.666 7.66699 57.999 23s23 32.666 23 51.999c0 26 -9.5 48.333 -28.5 67s-42.167 34.5 -69.5 47.5
s-54.666 27.167 -81.999 42.5s-50.5 37.166 -69.5 65.499s-28.5 62.833 -28.5 103.5c0 43.333 12.333 81.666 37 114.999s57 56.666 97 69.999v49c0 7.33301 2.66699 13.666 8 18.999s11.666 8 18.999 8h68c7.33301 0 13.666 -2.66699 18.999 -8s8 -12 8 -20v-47
c42 -12.667 74.667 -36.167 98 -70.5s35 -66.833 35 -97.5c0 -8.66699 -2.66699 -15.834 -8 -21.501s-12.333 -8.5 -21 -8.5h-60c-16.667 0 -27.334 10 -32.001 30c-4 15.333 -12.167 29.666 -24.5 42.999s-27.833 20 -46.5 20z" />
    <glyph glyph-name="percent" unicode="%" 
d="M337 603l0.000976562 -82c0 -30 -11.333 -55.167 -34 -75.5s-50.334 -30.5 -83.001 -30.5s-60.334 10.333 -83.001 31s-34 45.667 -34 75v82c0 30 11.333 55.333 34 76s50.334 31 83.001 31c32 0 59.5 -10.333 82.5 -31s34.5 -46 34.5 -76zM253.001 521v82
c0 8.66699 -3.16699 16 -9.5 22s-14.166 9 -23.499 9s-17.333 -3 -24 -9s-10 -13.333 -10 -22v-82c0 -8.66699 3.33301 -16 10 -22s14.667 -9 24 -9s17.166 3 23.499 9s9.5 13.333 9.5 22zM505.001 395l-402.001 -171c-5.33301 -2 -9.66602 -3 -12.999 -3
c-12 0 -18 8 -18 24v26c0 16 7.33301 27 22 33l402 171c4.66699 2 9 3 13 3c12 0 18 -8 18 -24v-26c0 -16 -7.33301 -27 -22 -33zM498 177l0.000976562 -82c0 -30 -11.333 -55.167 -34 -75.5s-50.334 -30.5 -83.001 -30.5s-60.334 10.333 -83.001 31s-34 45.667 -34 75v82
c0 30 11.333 55.333 34 76s50.334 31 83.001 31c32 0 59.5 -10.333 82.5 -31s34.5 -46 34.5 -76zM414.001 95v82c0 8.66699 -3.16699 16 -9.5 22s-14.166 9 -23.499 9s-17.333 -3 -24 -9s-10 -13.333 -10 -22v-82c0 -8.66699 3.33301 -16 10 -22s14.667 -9 24 -9
s17.166 3 23.499 9s9.5 13.333 9.5 22z" />
    <glyph glyph-name="ampersand" unicode="&#x26;" 
d="M490 177c0 -50 -20 -93.6641 -60 -130.997s-88 -56 -144 -56s-103.5 19 -142.5 57s-58.5 84 -58.5 138v115c0 39.333 9.83301 73 29.5 101s45.5 48 77.5 60l-63 115c-6.66699 12 -10 28.667 -10 50v43c0 8.66699 2.83301 16 8.5 22s12.834 9 21.501 9h276
c8.66699 0 15.834 -2.83301 21.501 -8.5s8.5 -12.834 8.5 -21.501v-50c0 -8.66699 -2.83301 -15.834 -8.5 -21.501s-12.834 -8.5 -21.501 -8.5h-171l58 -106c15.333 -27.333 23 -47 23 -59v-35c0 -9.33301 -3.16699 -17.5 -9.5 -24.5s-13.833 -10.5 -22.5 -10.5h-45
c-14 0 -25.667 -5 -35 -15s-14 -22 -14 -36v-129c0 -21.333 7.16699 -39 21.5 -53s32.833 -21 55.5 -21c27.333 0 47.666 7.83301 60.999 23.5s20 33.5 20 53.5v116c0 6.66699 3 12.334 9 17.001s12.667 7 20 7h139c6.66699 0 12.5 -2.33301 17.5 -7
s7.5 -10.334 7.5 -17.001v-56c0 -6.66699 -2.5 -12.334 -7.5 -17.001s-10.833 -7 -17.5 -7h-45v-37z" />
    <glyph glyph-name="quotesingle" unicode="'" 
d="M352 667l-29.001 -186.001c-3.33301 -16.667 -12.666 -25 -27.999 -25h-26c-16.667 0 -25 8.33301 -25 25v188c0 20.667 10.667 31 32 31h46c11.333 0 19.5 -3.16699 24.5 -9.5s6.83301 -14.166 5.5 -23.499z" />
    <glyph glyph-name="parenleft" unicode="(" 
d="M310 520v-519.997c0 -20 8.83301 -37.167 26.5 -51.5s38.5 -21.5 62.5 -21.5c8.66699 0 15.834 -2.83301 21.501 -8.5s8.5 -12.834 8.5 -21.501v-57c0 -8.66699 -2.83301 -15.834 -8.5 -21.501s-12.834 -8.5 -21.501 -8.5c-57.333 0 -106.833 19 -148.5 57
s-62.5 83.333 -62.5 136v515c0 52.667 20.833 97.834 62.5 135.501s91.167 56.5 148.5 56.5c8.66699 0 15.834 -2.83301 21.501 -8.5s8.5 -12.834 8.5 -21.501v-57c0 -8.66699 -2.83301 -15.834 -8.5 -21.501s-12.834 -8.5 -21.501 -8.5c-24 0 -44.833 -7.16699 -62.5 -21.5
s-26.5 -31.5 -26.5 -51.5z" />
    <glyph glyph-name="parenright" unicode=")" 
d="M290 0v519.997c0 20 -8.83301 37.167 -26.5 51.5s-38.5 21.5 -62.5 21.5c-8.66699 0 -15.834 2.83301 -21.501 8.5s-8.5 12.834 -8.5 21.501v57c0 8.66699 2.83301 15.834 8.5 21.501s12.834 8.5 21.501 8.5c57.333 0 106.833 -18.833 148.5 -56.5
s62.5 -82.834 62.5 -135.501v-515c0 -52.667 -20.833 -98 -62.5 -136s-91.167 -57 -148.5 -57c-8.66699 0 -15.834 2.83301 -21.501 8.5s-8.5 12.834 -8.5 21.501v57c0 8.66699 2.83301 15.834 8.5 21.501s12.834 8.5 21.501 8.5c24 0 44.833 7.16699 62.5 21.5
s26.5 31.5 26.5 51.5z" />
    <glyph glyph-name="asterisk" unicode="*" 
d="M345 694l-0.000976562 -76.999l67 23c6.66699 1.33301 11 2 13 2c6.66699 0 12 -5.66699 16 -17l12 -34c0 -1.33301 0.666992 -3.83301 2 -7.5s2 -6.5 2 -8.5c0 -8 -4.66699 -13.667 -14 -17l-72 -26l46 -60c2 -4 3 -8 3 -12c0 -6.66699 -4 -12.667 -12 -18l-33 -25
c-3.33301 -4 -7.66602 -6 -12.999 -6c-6.66699 0 -12.334 3 -17.001 9l-45 59l-45 -60c-2.66699 -5.33301 -7.33398 -8 -14.001 -8c-6 0 -11.333 2.33301 -16 7l-36 25c-6 5.33301 -9 11 -9 17c0 4 1 8 3 12l44 60l-71 24c-8.66699 3.33301 -13 9.66602 -13 18.999
c0 4.66699 1 10 3 16l11 34c4 11.333 10 17 18 17c0.666992 0 5 -0.666992 13 -2l67 -23v77c0 5.33301 2.33301 10 7 14s10.334 6 17.001 6h42c6.66699 0 12.334 -2 17.001 -6s7 -8.66699 7 -14z" />
    <glyph glyph-name="plus" unicode="+" 
d="M263 507h73c14 0 21 -7.66699 21 -23v-139h140c15.333 0 23 -7 23 -21v-73c0 -14 -7.66699 -21 -23 -21h-140v-141c0 -6.66699 -2 -12 -6 -16s-9 -6 -15 -6h-73c-6 0 -11 2 -15 6s-6 9.33301 -6 16v141h-140c-6.66699 0 -12 2 -16 6s-6 9 -6 15v73c0 6 2 11 6 15
s9.33301 6 16 6h140v139c0 15.333 7 23 21 23z" />
    <glyph glyph-name="comma" unicode="," 
d="M368 111v-82c0 -7.33301 -1.33301 -15 -4 -23l-37 -101c-6 -16.667 -16 -25 -30 -25h-36c-12 0 -18 5 -18 15c0 2.66699 0.666992 6 2 10l34 95h-22c-16.667 -0 -25 8.33301 -25 25v86c0 16.667 8.33301 25 25 25h84c18 0 27 -8.33301 27 -25z" />
    <glyph glyph-name="hyphen" unicode="-" 
d="M439 313v-75c0 -14 -7.66699 -21 -23 -21h-233c-6.66699 0 -12 2 -16 6s-6 9 -6 15v75c0 6 2 11 6 15s9.33301 6 16 6h233c15.333 0 23 -7 23 -21z" />
    <glyph glyph-name="period" unicode="." 
d="M368 111v-86c0 -16.667 -9 -25 -27 -25h-84c-16.667 -0 -25 8.33301 -25 25v86c0 16.667 8.33301 25 25 25h84c18 0 27 -8.33301 27 -25z" />
    <glyph glyph-name="slash" unicode="/" 
d="M519 681l-321.001 -831c-7.33301 -20 -20.666 -30 -39.999 -30h-59c-14 0 -21 6.66699 -21 20c0 2.66699 0.666992 6.66699 2 12l320 830c8 19.333 20.333 29 37 29h64c14 0 21 -6 21 -18c0 -4 -1 -8 -3 -12z" />
    <glyph glyph-name="zero" unicode="0" 
d="M500 509l-0.000976562 -318.002c0 -56 -19.667 -103.5 -59 -142.5s-86.666 -58.5 -141.999 -58.5s-102.5 19.333 -141.5 58s-58.5 86.334 -58.5 143.001v318c0 56.667 19.5 104.334 58.5 143.001s86.167 58 141.5 58c56 0 103.5 -19.5 142.5 -58.5
s58.5 -86.5 58.5 -142.5zM374.999 181.998l0.000976562 336c0 22 -7.33301 40.333 -22 55s-32.667 22 -54 22s-39.333 -7.33301 -54 -22s-22 -33 -22 -55v-336c0 -22 7.33301 -40.333 22 -55s33 -22 55 -22c21.333 0 39.166 7.33301 53.499 22s21.5 33 21.5 55z" />
    <glyph glyph-name="one" unicode="1" 
d="M257 596l-105 -15.999c-6.66699 -0.666992 -12.5 1.5 -17.5 6.5s-7.5 10.833 -7.5 17.5v56c0 13.333 8.33301 21.333 25 24l101 16h98c7.33301 0 14 -2.33301 20 -7s9 -10.334 9 -17.001v-562h122c6.66699 0 12.5 -2.33301 17.5 -7s7.5 -10.334 7.5 -17.001v-66
c0 -6.66699 -2.5 -12.334 -7.5 -17.001s-10.833 -7 -17.5 -7h-372c-6.66699 0 -12.5 2.33301 -17.5 7s-7.5 10.334 -7.5 17.001v66c0 6.66699 2.5 12.334 7.5 17.001s10.833 7 17.5 7h127v482z" />
    <glyph glyph-name="two" unicode="2" 
d="M474 0h-342.003c-9.33301 0 -17.666 3 -24.999 9s-11 13.333 -11 22v60c0 34.667 7 67.834 21 99.501s31.333 58.5 52 80.5s43.334 44.333 68.001 67s47.334 42.834 68.001 60.501s38 37.667 52 60s21 44.5 21 66.5c0 20 -7 36.667 -21 50s-31.333 20 -52 20
c-38.667 0 -64 -24.667 -76 -74c-4.66699 -20 -15.334 -30 -32.001 -30h-60c-8.66699 0 -15.667 2.83301 -21 8.5s-8 12.834 -8 21.501c0 17.333 3.66699 36.333 11 57s18.333 41.167 33 61.5s35.334 37.166 62.001 50.499s57 20 91 20c56 0 103 -18.333 141 -55
s57 -82.667 57 -138c0 -35.333 -9.5 -69.5 -28.5 -102.5s-42 -61.833 -69 -86.5s-54.167 -48.334 -81.5 -71.001s-50.833 -46.167 -70.5 -70.5s-30.167 -48.166 -31.5 -71.499h252c8.66699 0 15.834 -2.83301 21.501 -8.5s8.5 -12.834 8.5 -21.501v-55
c0 -8.66699 -2.83301 -15.834 -8.5 -21.501s-12.834 -8.5 -21.501 -8.5z" />
    <glyph glyph-name="three" unicode="3" 
d="M82 177c0 8.66699 2.83301 15.8311 8.5 21.498s12.834 8.5 21.501 8.5h64c17.333 0 27.333 -10 30 -30c2.66699 -18.667 10.667 -34.5 24 -47.5s32 -19.5 56 -19.5c22.667 0 41.167 7 55.5 21s21.5 31.667 21.5 53v133c0 14 -4.66699 26 -14 36s-21 15 -35 15h-64
c-8.66699 0 -15.834 3 -21.501 9s-8.5 13.333 -8.5 22v39c0 16.667 6.33301 33.334 19 50.001l73 97h-165c-8.66699 0 -15.834 2.83301 -21.501 8.5s-8.5 12.834 -8.5 21.501v55c0 8.66699 2.83301 15.834 8.5 21.501s12.834 8.5 21.501 8.5h297
c8.66699 0 15.834 -3 21.501 -9s8.5 -13.333 8.5 -22v-39c0 -16.667 -6.33301 -33.334 -19 -50.001l-75 -101c32.667 -12 59.167 -32 79.5 -60s30.5 -61.667 30.5 -101v-133c0 -54 -19.833 -100 -59.5 -138s-87.834 -57 -144.501 -57c-56 0 -104 18.667 -144 56
s-60 81 -60 131z" />
    <glyph glyph-name="four" unicode="4" 
d="M98 292l181.001 376.001c10 21.333 24.333 32 43 32h67c18 0 27 -7 27 -21c0 -3.33301 -1 -7.66602 -3 -12.999l-196 -413h133v133c0 8.66699 2.83301 15.834 8.5 21.501s12.834 8.5 21.501 8.5h62c8.66699 0 15.834 -2.83301 21.501 -8.5s8.5 -12.834 8.5 -21.501v-133
h23c8.66699 0 15.834 -2.83301 21.501 -8.5s8.5 -12.834 8.5 -21.501v-56c0 -8.66699 -2.83301 -15.834 -8.5 -21.501s-12.834 -8.5 -21.501 -8.5h-23v-107c0 -8.66699 -2.83301 -15.834 -8.5 -21.501s-12.834 -8.5 -21.501 -8.5h-62
c-8.66699 0 -15.834 2.83301 -21.501 8.5s-8.5 12.834 -8.5 21.501v107h-238c-8.66699 0 -15.834 3 -21.501 9s-8.5 13.333 -8.5 22v70c0 13.333 5.33301 31.333 16 54z" />
    <glyph glyph-name="five" unicode="5" 
d="M242 339c-9.33301 -12 -20.333 -17.998 -33 -17.998c-2.66699 0 -6.66699 0.666992 -12 2l-55 15c-15.333 4.66699 -23 13.667 -23 27c0 5.33301 0.666992 13.333 2 24l24 279c0.666992 8 4.16699 15.333 10.5 22s14.166 10 23.499 10h270
c8.66699 0 15.834 -2.83301 21.501 -8.5s8.5 -12.834 8.5 -21.501v-55c0 -8.66699 -2.83301 -15.834 -8.5 -21.501s-12.834 -8.5 -21.501 -8.5h-188l-11 -121c19.333 15.333 42.666 23 69.999 23c53.333 0 96.833 -17.833 130.5 -53.5s50.5 -81.834 50.5 -138.501v-110
c0 -54.667 -19.5 -100.834 -58.5 -138.501s-87.167 -56.5 -144.5 -56.5c-56.667 0 -103.834 18.5 -141.501 55.5s-56.5 79.833 -56.5 128.5c0 8.66699 2.83301 15.834 8.5 21.501s12.834 8.5 21.501 8.5h64c16.667 0 26.667 -10 30 -30c7.33301 -45.333 33 -68 77 -68
c20.667 0 38.334 7.33301 53.001 22s22 33.334 22 56.001v104c0 24.667 -6.66699 44.5 -20 59.5s-31.666 22.5 -54.999 22.5s-43 -10.333 -59 -31z" />
    <glyph glyph-name="six" unicode="6" 
d="M302 363c-22 0 -40.334 -7.5 -55.001 -22.5s-22 -32.833 -22 -53.5v-109c0 -20.667 7.33301 -38.167 22 -52.5s33 -21.5 55 -21.5s40 7.16699 54 21.5s21 31.833 21 52.5v109c0 20.667 -7.16699 38.5 -21.5 53.5s-32.166 22.5 -53.499 22.5zM369.999 545
c-3.33301 13.333 -10.835 24.999 -22.502 34.999s-27.5 15 -47.5 15c-22 0 -40 -7.16699 -54 -21.5s-21 -34.166 -21 -59.499v-69c22.667 20.667 54 31 94 31c50.667 0 94 -18.667 130 -56s54 -82.333 54 -135v-102c0 -54 -19.5 -99.667 -58.5 -137s-87.833 -56 -146.5 -56
c-57.333 0 -104.666 18.5 -141.999 55.5s-56 82.5 -56 136.5v335c0 53.333 18.833 98.833 56.5 136.5s84.834 56.5 141.501 56.5c55.333 0 101.333 -16.667 138 -50s55 -71.666 55 -114.999c0 -8.66699 -2.66699 -15.834 -8 -21.501s-12.333 -8.5 -21 -8.5h-60
c-15.333 0 -26 10 -32 30z" />
    <glyph glyph-name="seven" unicode="7" 
d="M335 30c0 -8.66699 -2.83008 -15.8359 -8.49707 -21.5029s-12.834 -8.5 -21.501 -8.5h-65c-8.66699 0 -15.834 2.83301 -21.501 8.5s-8.5 12.834 -8.5 21.501c0 58 10 123.167 30 195.5s42.833 143.333 68.5 213s41.5 118.5 47.5 146.5h-218
c-8.66699 0 -15.834 2.83301 -21.501 8.5s-8.5 12.834 -8.5 21.501v55c0 8.66699 2.83301 15.834 8.5 21.501s12.834 8.5 21.501 8.5h313c10 0 17.833 -2.83301 23.5 -8.5s8.5 -13.167 8.5 -22.5v-59c0 -30.667 -12.333 -80.5 -37 -149.5s-49.334 -143.5 -74.001 -223.5
s-37 -149 -37 -207z" />
    <glyph glyph-name="eight" unicode="8" 
d="M493 529l-0.000976562 -40c0 -50 -15.667 -91 -47 -123c38 -36 57 -81 57 -135v-49c0 -53.333 -19.667 -98.666 -59 -135.999s-87.666 -56 -144.999 -56s-105.5 18.667 -144.5 56s-58.5 83 -58.5 137v48c0 53.333 19.333 98.333 58 135
c-32 35.333 -48 76.666 -48 123.999v39c0 50 18.667 92.667 56 128s83 53 137 53c54.667 0 100.667 -17.667 138 -53s56 -78 56 -128zM376.999 179v51c0 20 -7.66699 37.333 -23 52s-33.333 22 -54 22s-38.834 -7.33301 -54.501 -22s-23.5 -32 -23.5 -52v-51
c0 -20.667 7.83301 -38 23.5 -52s34.5 -21 56.5 -21c20.667 0 38.334 7 53.001 21s22 31.333 22 52zM368.999 484l-0.000976562 42c0 19.333 -6.83301 35.666 -20.5 48.999s-30.167 20 -49.5 20s-35.666 -6.66699 -48.999 -20s-20 -29.666 -20 -48.999v-42
c0 -18 6.5 -33.333 19.5 -46s29.5 -19 49.5 -19s36.667 6.16699 50 18.5s20 27.833 20 46.5z" />
    <glyph glyph-name="nine" unicode="9" 
d="M298 337c22 0 40.334 7.5 55.001 22.5s22 32.833 22 53.5v109c0 20.667 -7.33301 38.167 -22 52.5s-33 21.5 -55 21.5s-40 -7.16699 -54 -21.5s-21 -31.833 -21 -52.5v-109c0 -20.667 7.16699 -38.5 21.5 -53.5s32.166 -22.5 53.499 -22.5zM230.001 155
c3.33301 -13.333 10.835 -24.999 22.502 -34.999s27.5 -15 47.5 -15c22 0 40 7.16699 54 21.5s21 34.166 21 59.499v69c-22.667 -20.667 -54 -31 -94 -31c-50.667 0 -94 18.667 -130 56s-54 82.333 -54 135v102c0 54 19.5 99.667 58.5 137s87.833 56 146.5 56
c57.333 0 104.666 -18.5 141.999 -55.5s56 -82.5 56 -136.5v-335c0 -53.333 -18.833 -98.833 -56.5 -136.5s-84.834 -56.5 -141.501 -56.5c-55.333 0 -101.333 16.667 -138 50s-55 71.666 -55 114.999c0 8.66699 2.66699 15.834 8 21.501s12.333 8.5 21 8.5h60
c15.333 0 26 -10 32 -30z" />
    <glyph glyph-name="colon" unicode=":" 
d="M368 111v-86c0 -16.667 -9 -25 -27 -25h-84c-16.667 -0 -25 8.33301 -25 25v86c0 16.667 8.33301 25 25 25h84c18 0 27 -8.33301 27 -25zM368 475v-86c0 -16.667 -9 -25 -27 -25h-84c-16.667 0 -25 8.33301 -25 25v86c0 16.667 8.33301 25 25 25h84
c18 0 27 -8.33301 27 -25z" />
    <glyph glyph-name="semicolon" unicode=";" 
d="M368 475v-86c0 -16.667 -9 -25 -27 -25h-84c-16.667 0 -25 8.33301 -25 25v86c0 16.667 8.33301 25 25 25h84c18 0 27 -8.33301 27 -25zM368 111v-82c0 -7.33301 -1.33301 -15 -4 -23l-37 -101c-6 -16.667 -16 -25 -30 -25h-36c-12 0 -18 5 -18 15
c0 2.66699 0.666992 6 2 10l34 95h-22c-16.667 -0 -25 8.33301 -25 25v86c0 16.667 8.33301 25 25 25h84c18 0 27 -8.33301 27 -25z" />
    <glyph glyph-name="less" unicode="&#x3c;" 
d="M489 63l-376 161.999c-22 8.66699 -33 20.667 -33 36v52c0 15.333 11 27.666 33 36.999l376 162c6.66699 2.66699 11.667 4 15 4c10.667 0 16 -8 16 -24v-63c0 -21.333 -8.33301 -35.666 -25 -42.999l-242 -99l242 -98c16.667 -7.33301 25 -21.666 25 -42.999v-63
c0 -16 -5.33301 -24 -16 -24c-3.33301 0 -8.33301 1.33301 -15 4z" />
    <glyph glyph-name="equal" unicode="=" 
d="M520 422v-73c0 -14 -7.66699 -21 -23 -21h-395c-6.66699 0 -12 2 -16 6s-6 9 -6 15v73c0 6 2 11 6 15s9.33301 6 16 6h395c15.333 0 23 -7 23 -21zM520 216v-73c0 -14 -7.66699 -21 -23 -21h-395c-6.66699 0 -12 2 -16 6s-6 9 -6 15v73c0 6 2 11 6 15s9.33301 6 16 6h395
c15.333 0 23 -7 23 -21z" />
    <glyph glyph-name="greater" unicode="&#x3e;" 
d="M487 225l-376 -161.999c-6.66699 -2.66699 -11.667 -4 -15 -4c-10.667 0 -16 8 -16 24v63c0 21.333 8.33301 35.666 25 42.999l242 98l-242 99c-16.667 7.33301 -25 21.666 -25 42.999v63c0 16 5.33301 24 16 24c3.33301 0 8.33301 -1.33301 15 -4l376 -162
c22 -9.33301 33 -21.666 33 -36.999v-52c0 -15.333 -11 -27.333 -33 -36z" />
    <glyph glyph-name="question" unicode="?" 
d="M227 522c-2 -16.667 -10.998 -25 -26.998 -25h-74c-16.667 0 -25 8.33301 -25 25c0 47.333 18.5 90.5 55.5 129.5s86.5 58.5 148.5 58.5c56.667 0 103.334 -17.5 140.001 -52.5s55 -81.167 55 -138.5c0 -27.333 -5.16699 -51.5 -15.5 -72.5s-22.833 -38.5 -37.5 -52.5
s-29.334 -27.833 -44.001 -41.5s-27.167 -30.5 -37.5 -50.5s-15.5 -42.667 -15.5 -68c0 -8.66699 -2.83301 -15.834 -8.5 -21.501s-12.834 -8.5 -21.501 -8.5h-65c-8.66699 0 -15.834 2.83301 -21.501 8.5s-8.5 12.834 -8.5 21.501c0 33.333 5 63 15 89
s22.333 46.833 37 62.5s29.167 30.167 43.5 43.5s26.5 28 36.5 44s15 33.333 15 52c0 19.333 -7 35.833 -21 49.5s-31 20.5 -51 20.5c-20.667 0 -37.5 -7.16699 -50.5 -21.5s-20.5 -31.5 -22.5 -51.5zM355.002 111v-86c0 -16.667 -9 -25 -27 -25h-84
c-16.667 -0 -25 8.33301 -25 25v86c0 16.667 8.33301 25 25 25h84c18 0 27 -8.33301 27 -25z" />
    <glyph glyph-name="at" unicode="@" 
d="M330 341l0.000976562 -194.002c0 -17.333 5 -32.166 15 -44.499s23 -18.5 39 -18.5c14.667 0 27.5 6.33301 38.5 19s16.5 27.334 16.5 44.001v194c0 17.333 -5.33301 32.333 -16 45s-23.334 19 -38.001 19c-16.667 0 -30 -6.16699 -40 -18.5s-15 -27.5 -15 -45.5z
M439.001 27.998c-2 -2.66699 -4.83203 -6.16504 -8.49902 -10.498s-12 -10 -25 -17s-27.5 -10.5 -43.5 -10.5c-37.333 0 -67.333 14.667 -90 44s-34 68.333 -34 117v187c0 48.667 11.333 87.667 34 117s52.667 44 90 44c16 0 30.333 -2.16699 43 -6.5
s21.667 -8.83301 27 -13.5l7 -7c0 40 -13.667 74.333 -41 103s-60 43 -98 43c-39.333 0 -72.333 -14.167 -99 -42.5s-40 -62.833 -40 -103.5v-422c0 -40 13.5 -73.667 40.5 -101s59.833 -41 98.5 -41h25c6.66699 0 12.5 -2.33301 17.5 -7s7.5 -10.334 7.5 -17.001v-40
c0 -6.66699 -2.5 -12.334 -7.5 -17.001s-10.833 -7 -17.5 -7h-25c-63.333 0 -117.166 22.333 -161.499 67s-66.5 99.667 -66.5 165v420c0 68.667 22 125.5 66 170.5s98 67.5 162 67.5s118 -22.5 162 -67.5s66 -101.833 66 -170.5v-447c0 -6.66699 -2.33301 -12.5 -7 -17.5
s-10.334 -7.5 -17.001 -7.5h-41c-6.66699 0 -12.334 2.66699 -17.001 8s-7 12 -7 20z" />
    <glyph glyph-name="A" unicode="A" 
d="M380 325l-70 258h-20l-70 -258h160zM402 673l102.006 -348c3.33301 -13.333 5 -26.333 5 -39v-256c0 -8.66699 -2.83301 -15.834 -8.5 -21.501s-12.834 -8.5 -21.501 -8.5h-58c-8.66699 0 -15.834 2.83301 -21.501 8.5s-8.5 12.834 -8.5 21.501v178h-182v-178
c0 -8.66699 -2.83301 -15.834 -8.5 -21.501s-12.834 -8.5 -21.501 -8.5h-58c-8.66699 0 -15.834 2.83301 -21.501 8.5s-8.5 12.834 -8.5 21.501v256c0 11.333 1.66699 24.333 5 39l102 348c5.33301 18 16.666 27 33.999 27h136c17.333 0 28.666 -9 33.999 -27z" />
    <glyph glyph-name="B" unicode="B" 
d="M316 583h-80v-158h80c14.667 0 27.167 4.83301 37.5 14.5s15.5 21.167 15.5 34.5v60c0 13.333 -5.16699 24.833 -15.5 34.5s-22.833 14.5 -37.5 14.5zM236 308v-191h76c16.667 0 30.834 5.66699 42.501 17s17.5 25 17.5 41v74c0 12.667 -5.33301 25.667 -16 39
s-25.334 20 -44.001 20h-76zM145 700h169.999c49.333 0 90.5 -15.833 123.5 -47.5s49.5 -70.5 49.5 -116.5v-58c0 -20 -3.83301 -39 -11.5 -57s-15.167 -31 -22.5 -39l-12 -13c4 -2.66699 8.83301 -6.83398 14.5 -12.501s13.334 -18.834 23.001 -39.501s14.5 -43 14.5 -67
v-75c0 -50.667 -18 -92.5 -54 -125.5s-78.667 -49.5 -128 -49.5h-167c-8.66699 0 -15.834 2.83301 -21.501 8.5s-8.5 12.834 -8.5 21.501v640c0 8.66699 2.83301 15.834 8.5 21.501s12.834 8.5 21.501 8.5z" />
    <glyph glyph-name="C" unicode="C" 
d="M512 188c0 -54.667 -20.001 -101.334 -60.001 -140.001s-88.333 -58 -145 -58s-105 19.333 -145 58s-60 85 -60 139v327c0 53.333 20.167 99.333 60.5 138s88.166 58 143.499 58c41.333 0 78.166 -10.5 110.499 -31.5s55.833 -44.667 70.5 -71s22 -51.166 22 -74.499
c0 -8.66699 -2.66699 -15.834 -8 -21.501s-12.333 -8.5 -21 -8.5h-60c-18 0 -28.667 10 -32 30c-2.66699 14 -11.167 28 -25.5 42s-32.833 21 -55.5 21c-22 0 -41.167 -7.5 -57.5 -22.5s-24.5 -32.833 -24.5 -53.5v-339c0 -20.667 8.16699 -38.667 24.5 -54
s35.5 -23 57.5 -23c22.667 0 42.834 7.33301 60.501 22s26.5 35.334 26.5 62.001c0 8.66699 2.83301 15.834 8.5 21.501s12.834 8.5 21.501 8.5h58c8.66699 0 15.834 -2.83301 21.501 -8.5s8.5 -12.834 8.5 -21.501z" />
    <glyph glyph-name="D" unicode="D" 
d="M303 0l-169 -0.00195312c-8.66699 0 -15.834 2.83301 -21.501 8.5s-8.5 12.834 -8.5 21.501v640c0 8.66699 2.83301 15.834 8.5 21.501s12.834 8.5 21.501 8.5h169c54 0 100 -19 138 -57s57 -84 57 -138v-310c0 -54 -19 -100 -57 -138s-84 -57 -138 -57zM374 189.998v319
c0 20.667 -7.16699 38.167 -21.5 52.5s-31.833 21.5 -52.5 21.5h-76v-466h76c20.667 0 38.167 7 52.5 21s21.5 31.333 21.5 52z" />
    <glyph glyph-name="E" unicode="E" 
d="M469 0l-319 0.00390625c-8.66699 0 -15.834 2.83301 -21.501 8.5s-8.5 12.834 -8.5 21.501v640c0 8.66699 2.83301 15.834 8.5 21.501s12.834 8.5 21.501 8.5h312c8.66699 0 15.834 -2.83301 21.501 -8.5s8.5 -12.834 8.5 -21.501v-57
c0 -8.66699 -2.83301 -15.834 -8.5 -21.501s-12.834 -8.5 -21.501 -8.5h-223v-160h201c8.66699 0 15.834 -2.83301 21.501 -8.5s8.5 -12.834 8.5 -21.501v-56c0 -8.66699 -2.83301 -15.834 -8.5 -21.501s-12.834 -8.5 -21.501 -8.5h-201v-190h230
c8.66699 0 15.834 -2.83301 21.501 -8.5s8.5 -12.834 8.5 -21.501v-57c0 -8.66699 -2.83301 -15.834 -8.5 -21.501s-12.834 -8.5 -21.501 -8.5z" />
    <glyph glyph-name="F" unicode="F" 
d="M219 0l-58.999 0.00292969c-8.66699 0 -15.834 2.83301 -21.501 8.5s-8.5 12.834 -8.5 21.501v640c0 8.66699 2.83301 15.834 8.5 21.501s12.834 8.5 21.501 8.5h312c8.66699 0 15.834 -2.83301 21.501 -8.5s8.5 -12.834 8.5 -21.501v-57
c0 -8.66699 -2.83301 -15.834 -8.5 -21.501s-12.834 -8.5 -21.501 -8.5h-223v-160h201c8.66699 0 15.834 -2.83301 21.501 -8.5s8.5 -12.834 8.5 -21.501v-56c0 -8.66699 -2.83301 -15.834 -8.5 -21.501s-12.834 -8.5 -21.501 -8.5h-201v-277
c0 -8.66699 -2.83301 -15.834 -8.5 -21.501s-12.834 -8.5 -21.501 -8.5z" />
    <glyph glyph-name="G" unicode="G" 
d="M326 378h151.002c8.66699 0 15.834 -2.83301 21.501 -8.5s8.5 -12.834 8.5 -21.501v-162c0 -54 -19.833 -100.167 -59.5 -138.5s-88.167 -57.5 -145.5 -57.5c-56.667 0 -105 19.333 -145 58s-60 85 -60 139v327c0 53.333 20.167 99.333 60.5 138s88.166 58 143.499 58
c41.333 0 78 -10.5 110 -31.5s55.167 -44.667 69.5 -71s21.5 -51.166 21.5 -74.499c0 -8.66699 -2.66699 -15.834 -8 -21.501s-12.333 -8.5 -21 -8.5h-60c-18 0 -28.667 10 -32 30c-2.66699 14.667 -10.834 28.834 -24.501 42.501s-31.834 20.5 -54.501 20.5
c-22 0 -41.167 -7.5 -57.5 -22.5s-24.5 -32.833 -24.5 -53.5v-339c0 -20.667 8.16699 -38.667 24.5 -54s35.5 -23 57.5 -23c20.667 0 40.167 7.33301 58.5 22s27.5 33 27.5 55l1 84h-63c-6.66699 0 -12.334 2.16699 -17.001 6.5s-7 10.166 -7 17.499v65
c0 6.66699 2.33301 12.334 7 17.001s10.334 7 17.001 7z" />
    <glyph glyph-name="H" unicode="H" 
d="M502 670v-640c0 -8.66699 -2.83301 -15.834 -8.5 -21.501s-12.834 -8.5 -21.501 -8.5h-59c-8.66699 0 -15.834 2.83301 -21.501 8.5s-8.5 12.834 -8.5 21.501v277h-166v-277c0 -8.66699 -2.83301 -15.834 -8.5 -21.501s-12.834 -8.5 -21.501 -8.5h-59
c-8.66699 0 -15.834 2.83301 -21.501 8.5s-8.5 12.834 -8.5 21.501v640c0 8.66699 2.83301 15.834 8.5 21.501s12.834 8.5 21.501 8.5h59c8.66699 0 15.834 -2.83301 21.501 -8.5s8.5 -12.834 8.5 -21.501v-244h166v244c0 8.66699 2.83301 15.834 8.5 21.501
s12.834 8.5 21.501 8.5h59c8.66699 0 15.834 -2.83301 21.501 -8.5s8.5 -12.834 8.5 -21.501z" />
    <glyph glyph-name="I" unicode="I" 
d="M500 92v-68.0039c0 -16 -8.66699 -24 -26 -24h-350c-6.66699 0 -12.334 2.33301 -17.001 7s-7 10.334 -7 17.001v68c0 6.66699 2.33301 12.334 7 17.001s10.334 7 17.001 7h115v468h-115c-6.66699 0 -12.334 2.33301 -17.001 7s-7 10.334 -7 17.001v68
c0 6.66699 2.33301 12.334 7 17.001s10.334 7 17.001 7h350c17.333 0 26 -8 26 -24v-68c0 -16 -8.66699 -24 -26 -24h-114v-468h114c17.333 0 26 -8 26 -24z" />
    <glyph glyph-name="J" unicode="J" 
d="M480 670l-0.00292969 -486.002c0 -53.333 -19.667 -98.833 -59 -136.5s-86.333 -56.5 -141 -56.5c-56 0 -103.167 18.667 -141.5 56s-57.5 83 -57.5 137v24c0 8.66699 2.83301 15.834 8.5 21.501s12.834 8.5 21.501 8.5h58c8.66699 0 15.834 -2.83301 21.501 -8.5
s8.5 -12.834 8.5 -21.501v-25c0 -22 8 -40.833 24 -56.5s35 -23.5 57 -23.5c22.667 0 41.5 7.83301 56.5 23.5s22.5 34.834 22.5 57.501v400h-219c-6.66699 0 -12.334 2.33301 -17.001 7s-7 10.334 -7 17.001v68c0 6.66699 2.33301 12.334 7 17.001s10.334 7 17.001 7h310
c8.66699 0 15.834 -2.83301 21.501 -8.5s8.5 -12.834 8.5 -21.501z" />
    <glyph glyph-name="K" unicode="K" 
d="M334 370l208 -334.999c2.66699 -4.66699 4 -9.33398 4 -14.001c0 -14 -8.33301 -21 -25 -21h-60c-19.333 0 -34.666 9.66699 -45.999 29l-198 336v-335c0 -8.66699 -2.83301 -15.834 -8.5 -21.501s-12.834 -8.5 -21.501 -8.5h-59c-8.66699 0 -15.834 2.83301 -21.501 8.5
s-8.5 12.834 -8.5 21.501v640c0 8.66699 2.83301 15.834 8.5 21.501s12.834 8.5 21.501 8.5h59c8.66699 0 15.834 -2.83301 21.501 -8.5s8.5 -12.834 8.5 -21.501v-295l184 296c11.333 19.333 26.666 29 45.999 29h60c16.667 0 25 -6.66699 25 -20
c0 -4.66699 -1.66699 -9.66699 -5 -15z" />
    <glyph glyph-name="L" unicode="L" 
d="M151 700l58.999 0.000976562c8.66699 0 15.834 -2.83301 21.501 -8.5s8.5 -12.834 8.5 -21.501v-553h255c8.66699 0 15.834 -2.83301 21.501 -8.5s8.5 -12.834 8.5 -21.501v-57c0 -8.66699 -2.83301 -15.834 -8.5 -21.501s-12.834 -8.5 -21.501 -8.5h-344
c-8.66699 0 -15.834 2.83301 -21.501 8.5s-8.5 12.834 -8.5 21.501v640c0 8.66699 2.83301 15.834 8.5 21.501s12.834 8.5 21.501 8.5z" />
    <glyph glyph-name="M" unicode="M" 
d="M218 670l80.001 -209h4l80 209c8 20 22 30 42 30h80c8.66699 0 15.834 -2.83301 21.501 -8.5s8.5 -12.834 8.5 -21.501v-640c0 -8.66699 -2.83301 -15.834 -8.5 -21.501s-12.834 -8.5 -21.501 -8.5h-55c-8.66699 0 -15.834 2.83301 -21.501 8.5s-8.5 12.834 -8.5 21.501
v386l7 90l-9 3l-58 -148c-7.33301 -20 -18.333 -30 -33 -30h-52c-15.333 0 -26.666 10 -33.999 30l-57 148l-9 -3l7 -90v-386c0 -8.66699 -2.83301 -15.834 -8.5 -21.501s-12.834 -8.5 -21.501 -8.5h-55c-8.66699 0 -15.834 2.83301 -21.501 8.5s-8.5 12.834 -8.5 21.501
v640c0 8.66699 2.83301 15.834 8.5 21.501s12.834 8.5 21.501 8.5h80c20 0 34 -10 42 -30z" />
    <glyph glyph-name="N" unicode="N" 
d="M97 30v640c0 8.66699 3 15.834 9 21.501s13.333 8.5 22 8.5h59c22.667 0 38 -10 46 -30l118 -305l39 -126h6l-7 130v301c0 8.66699 2.83301 15.834 8.5 21.501s12.834 8.5 21.501 8.5h54c8.66699 0 15.834 -2.83301 21.501 -8.5s8.5 -12.834 8.5 -21.501v-640
c0 -8.66699 -3 -15.834 -9 -21.501s-13.333 -8.5 -22 -8.5h-59c-22.667 0 -38 10 -46 30l-117 301l-40 129h-6l7 -130v-300c0 -8.66699 -2.83301 -15.834 -8.5 -21.501s-12.834 -8.5 -21.501 -8.5h-54c-8.66699 0 -15.834 2.83301 -21.501 8.5s-8.5 12.834 -8.5 21.501z" />
    <glyph glyph-name="O" unicode="O" 
d="M507 514v-328c0 -54 -19.833 -100.167 -59.5 -138.5s-88.834 -57.5 -147.501 -57.5s-108 19.333 -148 58s-60 85 -60 139v327c0 54 20 100.167 60 138.5s89.333 57.5 148 57.5s107.834 -19.167 147.501 -57.5s59.5 -84.5 59.5 -138.5zM388 180v340.001
c0 20.667 -8.66699 38.667 -26 54s-38 23 -62 23s-44.667 -7.66699 -62 -23s-26 -33.333 -26 -54v-339c0 -20.667 8.66699 -38.834 26 -54.501s38 -23.5 62 -23.5s44.667 7.66699 62 23s26 33.333 26 54z" />
    <glyph glyph-name="P" unicode="P" 
d="M246 227l0.000976562 -197.001c0 -8.66699 -2.83301 -15.834 -8.5 -21.501s-12.834 -8.5 -21.501 -8.5h-59c-8.66699 0 -15.834 2.83301 -21.501 8.5s-8.5 12.834 -8.5 21.501v640c0 8.66699 2.83301 15.834 8.5 21.501s12.834 8.5 21.501 8.5h179
c46.667 0 86.5 -16.333 119.5 -49s49.5 -72.667 49.5 -120v-134c0 -48 -16.333 -88.333 -49 -121s-72.667 -49 -120 -49h-90zM384.001 388.999v147c0 13.333 -4.83301 24.5 -14.5 33.5s-21.5 13.5 -35.5 13.5h-88v-240h88c14 0 25.833 4.5 35.5 13.5s14.5 19.833 14.5 32.5z
" />
    <glyph glyph-name="Q" unicode="Q" 
d="M481 97l31 -31c6 -6 9 -13 9 -21s-3 -15 -9 -21l-31 -31c-6 -6 -13.333 -9 -22 -9s-15.334 3 -20.001 9l-27 29c-35.333 -21.333 -74 -32 -116 -32c-58.667 0 -108 19.333 -148 58s-60 85 -60 139v327c0 54 20 100.167 60 138.5s89.333 57.5 148 57.5
s107.834 -19.167 147.501 -57.5s59.5 -84.5 59.5 -138.5v-328c0 -31.333 -7.33301 -61 -22 -89zM208 520v-305c25.333 19.333 53 29 83 29c30.667 0 60 -14 88 -42l5 -5v323c0 20.667 -8.66699 38.667 -26 54s-38 23 -62 23s-44.667 -7.66699 -62 -23s-26 -33.333 -26 -54z
M296 103c14 0 27.333 2.66602 40 7.99902c-24.667 28 -47 42 -67 42c-6 0 -11.667 -0.666992 -17 -2s-9.16602 -2.66602 -11.499 -3.99902s-5.33301 -3.33301 -9 -6s-5.83398 -4 -6.50098 -4c17.333 -22.667 41 -34 71 -34z" />
    <glyph glyph-name="R" unicode="R" 
d="M368 402v134c0 12.667 -4.83301 23.667 -14.5 33s-21.167 14 -34.5 14h-90v-228h90c13.333 0 24.833 4.66699 34.5 14s14.5 20.333 14.5 33zM412 263l95 -227.999c2.66699 -6.66699 4 -11.334 4 -14.001c0 -14 -9 -21 -27 -21h-60c-23.333 0 -38.666 9.66699 -45.999 29
l-84 209h-65v-208c0 -8.66699 -2.83301 -15.834 -8.5 -21.501s-12.834 -8.5 -21.501 -8.5h-59c-8.66699 0 -15.834 2.83301 -21.501 8.5s-8.5 12.834 -8.5 21.501v640c0 8.66699 2.83301 15.834 8.5 21.501s12.834 8.5 21.501 8.5h181c47.333 0 87.333 -16.333 120 -49
s49 -72.667 49 -120v-125c0 -28.667 -7 -55.834 -21 -81.501s-33 -46.167 -57 -61.5z" />
    <glyph glyph-name="S" unicode="S" 
d="M301 596c-20.667 0 -38.501 -7.16406 -53.501 -21.4971s-22.5 -31.166 -22.5 -50.499c0 -20.667 9.66699 -39.5 29 -56.5s42.666 -32.667 69.999 -47s54.833 -30.5 82.5 -48.5s51.167 -42.833 70.5 -74.5s29 -68.834 29 -111.501c0 -53.333 -20 -99.333 -60 -138
s-88.333 -58 -145 -58s-105 19.333 -145 58s-60 85.334 -60 140.001c0 8.66699 2.83301 15.834 8.5 21.501s12.834 8.5 21.501 8.5h58c8.66699 0 15.834 -2.83301 21.501 -8.5s8.5 -12.834 8.5 -21.501c0 -26.667 8.83301 -47.334 26.5 -62.001s37.834 -22 60.501 -22
c23.333 0 42.666 7.66699 57.999 23s23 32.666 23 51.999c0 26 -9.5 48.667 -28.5 68s-42.167 36 -69.5 50s-54.666 29.167 -81.999 45.5s-50.5 39 -69.5 68s-28.5 63.833 -28.5 104.5c0 55.333 19.167 101.666 57.5 138.999s84.833 56 139.5 56c60 0 107 -19.667 141 -59
s51 -78.666 51 -117.999c0 -8.66699 -2.66699 -15.834 -8 -21.501s-12.333 -8.5 -21 -8.5h-60c-16.667 0 -27.334 10 -32.001 30c-4 15.333 -12.167 29.666 -24.5 42.999s-27.833 20 -46.5 20z" />
    <glyph glyph-name="T" unicode="T" 
d="M360 583l0.00195312 -553c0 -8.66699 -2.83301 -15.834 -8.5 -21.501s-12.834 -8.5 -21.501 -8.5h-62c-8.66699 0 -15.834 2.83301 -21.501 8.5s-8.5 12.834 -8.5 21.501v553h-120c-8.66699 0 -15.834 2.83301 -21.501 8.5s-8.5 12.834 -8.5 21.501v57
c0 8.66699 2.83301 15.834 8.5 21.501s12.834 8.5 21.501 8.5h363c8.66699 0 15.834 -2.83301 21.501 -8.5s8.5 -12.834 8.5 -21.501v-57c0 -8.66699 -2.83301 -15.834 -8.5 -21.501s-12.834 -8.5 -21.501 -8.5h-121z" />
    <glyph glyph-name="U" unicode="U" 
d="M507 670l-0.00292969 -483.999c0 -54 -19.833 -100.167 -59.5 -138.5s-88.834 -57.5 -147.501 -57.5s-108 19.333 -148 58s-60 85 -60 139v483c0 8.66699 2.83301 15.834 8.5 21.501s12.834 8.5 21.501 8.5h59c8.66699 0 15.834 -2.83301 21.501 -8.5
s8.5 -12.834 8.5 -21.501v-489c0 -20.667 8.83301 -38.834 26.5 -54.501s38.5 -23.5 62.5 -23.5s44.667 7.66699 62 23s26 33.333 26 54v490c0 8.66699 2.83301 15.834 8.5 21.501s12.834 8.5 21.501 8.5h59c8.66699 0 15.834 -2.83301 21.501 -8.5s8.5 -12.834 8.5 -21.501
z" />
    <glyph glyph-name="V" unicode="V" 
d="M310 116l72.9941 271c5.33301 21.333 8 35.333 8 42v241c0 8.66699 2.83301 15.834 8.5 21.501s12.834 8.5 21.501 8.5h58c8.66699 0 15.834 -2.83301 21.501 -8.5s8.5 -12.834 8.5 -21.501v-256c0 -15.333 -1.66699 -28.333 -5 -39l-102 -348
c-5.33301 -18 -16.666 -27 -33.999 -27h-136c-17.333 0 -28.666 9 -33.999 27l-102 348c-3.33301 13.333 -5 26.333 -5 39v256c0 8.66699 2.83301 15.834 8.5 21.501s12.834 8.5 21.501 8.5h58c8.66699 0 15.834 -2.83301 21.501 -8.5s8.5 -12.834 8.5 -21.501v-241
c0 -9.33301 2.33301 -23.333 7 -42l74 -271h20z" />
    <glyph glyph-name="W" unicode="W" 
d="M364 362l36.0039 -236h14l14 281v263c0 8.66699 2.83301 15.834 8.5 21.501s12.834 8.5 21.501 8.5h54c8.66699 0 15.834 -2.83301 21.501 -8.5s8.5 -12.834 8.5 -21.501v-252c0 -9.33301 -0.666992 -23.333 -2 -42l-33 -349c-0.666992 -8 -4.33398 -14.5 -11.001 -19.5
s-14.334 -7.5 -23.001 -7.5h-97c-8.66699 0 -16.334 2.5 -23.001 7.5s-10.334 11.5 -11.001 19.5l-36 257h-13l-36 -257c-0.666992 -8 -4.33398 -14.5 -11.001 -19.5s-14.334 -7.5 -23.001 -7.5h-97c-8.66699 0 -16.334 2.5 -23.001 7.5s-10.334 11.5 -11.001 19.5l-33 350
c-1.33301 20 -2 33.667 -2 41v252c0 8.66699 2.83301 15.834 8.5 21.501s12.834 8.5 21.501 8.5h54c8.66699 0 15.834 -2.83301 21.501 -8.5s8.5 -12.834 8.5 -21.501v-263l14 -281h14l36 236c2.66699 20 12.667 30 30 30h69c17.333 0 27.333 -10 30 -30z" />
    <glyph glyph-name="X" unicode="X" 
d="M506 665l-140 -300l153 -330c3.33301 -8.66699 5 -14 5 -16c0 -12.667 -8.66699 -19 -26 -19h-65c-20.667 0 -35.334 9.66699 -44.001 29l-89 205l-90 -205c-8.66699 -19.333 -23.334 -29 -44.001 -29h-65c-17.333 -0 -26 6.33301 -26 19c0 2 1.66699 7.33301 5 16
l153 330l-138 300c-3.33301 8.66699 -5 14 -5 16c0 12.667 8.66699 19 26 19h65c20.667 0 35.334 -9.66699 44.001 -29l75 -180l76 180c8.66699 19.333 23.334 29 44.001 29h65c17.333 0 26 -6.33301 26 -19c0 -2 -1.66699 -7.33301 -5 -16z" />
    <glyph glyph-name="Y" unicode="Y" 
d="M361 328v-298c0 -8.66699 -2.83301 -15.834 -8.5 -21.501s-12.834 -8.5 -21.501 -8.5h-62c-8.66699 0 -15.834 2.83301 -21.501 8.5s-8.5 12.834 -8.5 21.501v298l-160 337c-3.33301 8.66699 -5 14 -5 16c0 12.667 8.66699 19 26 19h65
c20.667 0 35.334 -9.66699 44.001 -29l91 -211l91 211c8.66699 19.333 23.334 29 44.001 29h65c17.333 0 26 -6.33301 26 -19c0 -2 -1.66699 -7.33301 -5 -16z" />
    <glyph glyph-name="Z" unicode="Z" 
d="M113 142l245 441h-215c-8.66699 0 -15.834 2.83301 -21.501 8.5s-8.5 12.834 -8.5 21.501v57c0 8.66699 2.83301 15.834 8.5 21.501s12.834 8.5 21.501 8.5h326c8.66699 0 15.834 -3 21.501 -9s8.5 -13.333 8.5 -22v-59c0 -16 -5 -33.333 -15 -52l-243 -441h233
c8.66699 0 15.834 -2.83301 21.501 -8.5s8.5 -12.834 8.5 -21.501v-57c0 -8.66699 -2.83301 -15.834 -8.5 -21.501s-12.834 -8.5 -21.501 -8.5h-346c-8.66699 0 -15.834 3 -21.501 9s-8.5 13.333 -8.5 22v59c0 16 5 33.333 15 52z" />
    <glyph glyph-name="bracketleft" unicode="[" 
d="M218 700l180.999 0.00390625c8.66699 0 15.834 -2.83301 21.501 -8.5s8.5 -12.834 8.5 -21.501v-54c0 -8.66699 -2.83301 -15.834 -8.5 -21.501s-12.834 -8.5 -21.501 -8.5h-89v-651h89c8.66699 0 15.834 -2.83301 21.501 -8.5s8.5 -12.834 8.5 -21.501v-55
c0 -8.66699 -2.83301 -15.834 -8.5 -21.501s-12.834 -8.5 -21.501 -8.5h-179c-7.33301 0 -14.5 3.16699 -21.5 9.5s-10.5 13.166 -10.5 20.499v820c0 8.66699 2.83301 15.834 8.5 21.501s12.834 8.5 21.501 8.5z" />
    <glyph glyph-name="backslash" unicode="\" 
d="M402 -150l-321.001 831c-2 4 -3 8 -3 12c0 12 7 18 21 18h64c16.667 0 29 -9.66699 37 -29l320 -830c1.33301 -5.33301 2 -9.33301 2 -12c0 -13.333 -7 -20 -21 -20h-59c-19.333 0 -32.666 10 -39.999 30z" />
    <glyph glyph-name="bracketright" unicode="]" 
d="M201 700l180.999 -0.00390625c8.66699 0 15.834 -2.83301 21.501 -8.5s8.5 -12.834 8.5 -21.501v-820c0 -7.33301 -3.5 -14.166 -10.5 -20.499s-14.167 -9.5 -21.5 -9.5h-179c-8.66699 0 -15.834 2.83301 -21.501 8.5s-8.5 12.834 -8.5 21.501v55
c0 8.66699 2.83301 15.834 8.5 21.501s12.834 8.5 21.501 8.5h89v651h-89c-8.66699 0 -15.834 2.83301 -21.501 8.5s-8.5 12.834 -8.5 21.501v54c0 8.66699 2.83301 15.834 8.5 21.501s12.834 8.5 21.501 8.5z" />
    <glyph glyph-name="asciicircum" unicode="^" 
d="M92 346l151.001 324c8.66699 20 19.667 30 33 30h46c13.333 0 24.666 -10 33.999 -30l151 -324c2 -5.33301 3 -10 3 -14c0 -9.33301 -7 -14 -21 -14h-57c-20 0 -33 7.33301 -39 22l-94 217l-93 -217c-6 -14.667 -19 -22 -39 -22h-57c-14 0 -21 4.66699 -21 14
c0 4 1 8.66699 3 14z" />
    <glyph glyph-name="underscore" unicode="_" 
d="M623 -74v-55c0 -14 -7.66699 -21 -23 -21h-600c-6.66699 0 -12 2 -16 6s-6 9 -6 15v55c0 6 2 11 6 15s9.33301 6 16 6h600c15.333 0 23 -7 23 -21z" />
    <glyph glyph-name="grave" unicode="`" 
d="M395 555l-49.998 -0.000976562c-14.667 0 -31.334 8.66699 -50.001 26l-94 92c-6.66699 6.66699 -10 13 -10 19c0 12 7.66699 18 23 18h69c23.333 0 40.666 -8 51.999 -24l73 -94c6.66699 -9.33301 10 -16.666 10 -21.999c0 -10 -7.66699 -15 -23 -15z" />
    <glyph glyph-name="a" unicode="a" 
d="M281 88c24 0 45.667 7.16699 65 21.5s29 29.5 29 45.5v63l-96 -8c-18.667 -1.33301 -34 -7.5 -46 -18.5s-18 -24.833 -18 -41.5c0 -17.333 6 -32 18 -44s28 -18 48 -18zM126 378c0 28.667 16.332 57.834 48.999 87.501s75.667 44.5 129 44.5
c59.333 0 105.833 -16.167 139.5 -48.5s50.5 -73.166 50.5 -122.499v-312c0 -7.33301 -2.66699 -13.666 -8 -18.999s-11.666 -8 -18.999 -8h-55c-7.33301 0 -13.666 2.66699 -18.999 8s-8 11.666 -8 18.999v15c-3.33301 -4 -8 -8.83301 -14 -14.5
s-19.833 -13.167 -41.5 -22.5s-44.834 -14 -69.501 -14c-46.667 0 -86 14.833 -118 44.5s-48 67.167 -48 112.5s17.5 81.5 52.5 108.5s79.167 42.5 132.5 46.5l96 8v21c0 25.333 -7 44.166 -21 56.499s-30.667 18.5 -50 18.5c-26.667 0 -45 -10 -55 -30
c-8.66699 -17.333 -20.334 -26 -35.001 -26h-61c-7.33301 0 -13.666 2.66699 -18.999 8s-8 11.666 -8 18.999z" />
    <glyph glyph-name="b" unicode="b" 
d="M386 163v174c0 18 -7.16699 34.167 -21.5 48.5s-32.5 21.5 -54.5 21.5c-22.667 0 -41.667 -7.16699 -57 -21.5s-23 -31.5 -23 -51.5v-168c0 -18.667 7.83301 -35.167 23.5 -49.5s34.5 -21.5 56.5 -21.5s40.167 6.83301 54.5 20.5s21.5 29.5 21.5 47.5zM230 673
l0.000976562 -197c25.333 22.667 60.333 34 105 34c48 0 89.333 -16.167 124 -48.5s52 -73.5 52 -123.5v-176c0 -48.667 -17.333 -89.167 -52 -121.5s-76.667 -48.5 -126 -48.5c-46.667 0 -84.334 14.333 -113.001 43v-8c0 -7.33301 -2.66699 -13.666 -8 -18.999
s-11.666 -8 -18.999 -8h-61c-7.33301 0 -13.666 2.66699 -18.999 8s-8 11.666 -8 18.999v646c0 7.33301 2.66699 13.666 8 18.999s11.666 8 18.999 8h71c7.33301 0 13.666 -2.66699 18.999 -8s8 -11.666 8 -18.999z" />
    <glyph glyph-name="c" unicode="c" 
d="M306 -10c-59.333 0 -107.832 16.6631 -145.499 49.9961s-56.5 75.333 -56.5 126v165c0 52 18.667 94.833 56 128.5s85.666 50.5 144.999 50.5c34.667 0 65.667 -6 93 -18s48.333 -26.667 63 -44s25.667 -34.666 33 -51.999s11 -32.666 11 -45.999
c0 -7.33301 -2.66699 -13.666 -8 -18.999s-11.666 -8 -18.999 -8h-64c-18.667 0 -30.334 8.66699 -35.001 26c-2 6 -4.83301 12.5 -8.5 19.5s-11.5 15 -23.5 24s-26 13.5 -42 13.5c-21.333 0 -39.166 -7 -53.499 -21s-21.5 -31.667 -21.5 -53v-165
c0 -21.333 7.16699 -38.833 21.5 -52.5s32.5 -20.5 54.5 -20.5c18 0 33.167 4.83301 45.5 14.5s20 18.167 23 25.5s5.16699 14.333 6.5 21c3.33301 17.333 15.333 26 36 26h64c7.33301 0 13.666 -2.66699 18.999 -8s8 -11.666 8 -18.999c0 -13.333 -3.33301 -28.5 -10 -45.5
s-17.167 -34.833 -31.5 -53.5s-35.5 -34.167 -63.5 -46.5s-60.333 -18.5 -97 -18.5z" />
    <glyph glyph-name="d" unicode="d" 
d="M214 337v-174c0 -18 7.16699 -33.833 21.5 -47.5s32.5 -20.5 54.5 -20.5s40.833 7.16699 56.5 21.5s23.5 30.833 23.5 49.5v168c0 20 -7.66699 37.167 -23 51.5s-34.333 21.5 -57 21.5c-22 0 -40.167 -7.16699 -54.5 -21.5s-21.5 -30.5 -21.5 -48.5zM370 476
l0.00195312 197c0 7.33301 2.66699 13.666 8 18.999s11.666 8 18.999 8h70c7.33301 0 13.666 -2.66699 18.999 -8s8 -11.666 8 -18.999v-646c0 -7.33301 -2.66699 -13.666 -8 -18.999s-11.666 -8 -18.999 -8h-60c-7.33301 0 -13.666 2.66699 -18.999 8s-8 11.666 -8 18.999
v8c-28.667 -28.667 -66.334 -43 -113.001 -43c-49.333 0 -91.333 16.167 -126 48.5s-52 72.833 -52 121.5v176c0 50 17.333 91.167 52 123.5s76 48.5 124 48.5c20 0 38.667 -2.83301 56 -8.5s29.666 -11.5 36.999 -17.5z" />
    <glyph glyph-name="e" unicode="e" 
d="M224 338v-29h155v29c0 18 -7.5 34.167 -22.5 48.5s-33.5 21.5 -55.5 21.5c-20.667 0 -38.667 -7.33301 -54 -22s-23 -30.667 -23 -48zM300 -9c-58.667 0 -107 17 -145 51s-57 75.333 -57 124v168c0 48.667 19.167 90.167 57.5 124.5s86.833 51.5 145.5 51.5
s107 -16.667 145 -50s57 -74 57 -122v-91c0 -9.33301 -3.33301 -17.166 -10 -23.499s-15 -9.5 -25 -9.5h-244v-50c0 -18 7.33301 -34.167 22 -48.5s32.667 -21.5 54 -21.5c22 0 38.833 3.83301 50.5 11.5s18.5 15.167 20.5 22.5c4 14.667 15 22 33 22h63c18 0 27 -9 27 -27
c0 -28.667 -17.667 -57.834 -53 -87.501s-82.333 -44.5 -141 -44.5z" />
    <glyph glyph-name="f" unicode="f" 
d="M514 677c6.66699 -4.66699 9.99805 -11 9.99805 -19c0 -5.33301 -1.66699 -10.333 -5 -15l-34 -48c-4.66699 -6 -10.667 -9 -18 -9c-6 0 -11.333 1.66699 -16 5c-17.333 10 -36 15 -56 15s-35.833 -6.66699 -47.5 -20s-17.5 -29.333 -17.5 -48v-38h157
c6.66699 0 12.5 -2.33301 17.5 -7s7.5 -10.334 7.5 -17.001v-56c0 -6.66699 -2.5 -12.334 -7.5 -17.001s-10.833 -7 -17.5 -7h-157v-369c0 -7.33301 -2.66699 -13.666 -8 -18.999s-11.666 -8 -18.999 -8h-69c-7.33301 0 -13.666 2.66699 -18.999 8s-8 11.666 -8 18.999v369
h-89c-6.66699 0 -12.5 2.33301 -17.5 7s-7.5 10.334 -7.5 17.001v56c0 6.66699 2.5 12.334 7.5 17.001s10.833 7 17.5 7h89v35c0 50 17.667 91.667 53 125s80.333 50 135 50c48 0 87.667 -11 119 -33z" />
    <glyph glyph-name="g" unicode="g" 
d="M344 283v71c0 14.667 -5.83301 27.167 -17.5 37.5s-27.167 15.5 -46.5 15.5c-18 0 -32.667 -5.16699 -44 -15.5s-17 -22.833 -17 -37.5v-71c0 -14.667 5.66699 -27.167 17 -37.5s26 -15.5 44 -15.5c19.333 0 34.833 5.16699 46.5 15.5s17.5 22.833 17.5 37.5zM379 -13
h-187.999c-11.333 0 -20.833 -3.83301 -28.5 -11.5s-11.5 -16.834 -11.5 -27.501c0 -10 3.83301 -18.333 11.5 -25s17.167 -10 28.5 -10h187c11.333 0 20.833 3.33301 28.5 10s11.5 15.334 11.5 26.001c0 10 -3.83301 18.833 -11.5 26.5s-16.834 11.5 -27.501 11.5z
M469.001 456c-10.667 -2 -21.0029 -9.66602 -31.0029 -22.999c17.333 -24.667 26 -53.334 26 -86.001v-60c0 -40 -15.667 -75.167 -47 -105.5s-70 -47.5 -116 -51.5v-50h99c36.667 0 68.167 -12.667 94.5 -38s39.5 -56.666 39.5 -93.999c0 -38 -12.667 -68.833 -38 -92.5
s-57.666 -35.5 -96.999 -35.5h-212c-37.333 0 -68.333 11.833 -93 35.5s-37 54.5 -37 92.5s13 69.5 39 94.5s58.333 37.5 97 37.5v69c-28 14 -50.667 33.5 -68 58.5s-26 51.5 -26 79.5v60c0 46 18.333 84.667 55 116s80.334 47 131.001 47c22 0 44.667 -4.66699 68 -14
c28.667 42.667 67.334 64 116.001 64c6.66699 0 12.5 -2.5 17.5 -7.5s7.5 -10.833 7.5 -17.5v-56c0 -12.667 -8.33301 -20.334 -25 -23.001z" />
    <glyph glyph-name="h" unicode="h" 
d="M222 673l-0.00292969 -206c28.667 28.667 64.334 43 107.001 43c49.333 0 92 -17.5 128 -52.5s54 -77.5 54 -127.5v-303c0 -7.33301 -2.66699 -13.666 -8 -18.999s-11.666 -8 -18.999 -8h-69c-7.33301 0 -13.666 2.66699 -18.999 8s-8 11.666 -8 18.999v304
c0 20 -7.83301 37.333 -23.5 52s-34.5 22 -56.5 22c-22.667 0 -42.667 -7.33301 -60 -22s-26 -31.667 -26 -51v-305c0 -7.33301 -2.66699 -13.666 -8 -18.999s-11.666 -8 -18.999 -8h-68c-7.33301 0 -13.666 2.66699 -18.999 8s-8 11.666 -8 18.999v646
c0 7.33301 2.66699 13.666 8 18.999s11.666 8 18.999 8h68c7.33301 0 13.666 -2.66699 18.999 -8s8 -11.666 8 -18.999z" />
    <glyph glyph-name="i" unicode="i" 
d="M260 396l-140 -0.000976562c-6.66699 0 -12.5 2.33301 -17.5 7s-7.5 10.334 -7.5 17.001v56c0 6.66699 2.5 12.334 7.5 17.001s10.833 7 17.5 7h234c7.33301 0 14 -2.33301 20 -7s9 -10.334 9 -17.001v-372h122c6.66699 0 12.5 -2.33301 17.5 -7s7.5 -10.334 7.5 -17.001
v-56c0 -6.66699 -2.5 -12.334 -7.5 -17.001s-10.833 -7 -17.5 -7h-391c-6.66699 0 -12.5 2.33301 -17.5 7s-7.5 10.334 -7.5 17.001v56c0 6.66699 2.5 12.334 7.5 17.001s10.833 7 17.5 7h146v292zM387 675.999v-80.002c0 -16 -8.66699 -24 -26 -24h-80
c-7.33301 0 -13.166 2.33301 -17.499 7s-6.5 10.334 -6.5 17.001v80c0 6.66699 2.16699 12.334 6.5 17.001s10.166 7 17.499 7h80c17.333 0 26 -8 26 -24z" />
    <glyph glyph-name="j" unicode="j" 
d="M469 676v-80.002c0 -16 -8.66699 -24 -26 -24h-80c-7.33301 0 -13.166 2.33301 -17.499 7s-6.5 10.334 -6.5 17.001v80c0 6.66699 2.16699 12.334 6.5 17.001s10.166 7 17.499 7h80c17.333 0 26 -8 26 -24zM121 -30.002c0 8.66699 2.83105 15.832 8.49805 21.499
s12.834 8.5 21.501 8.5h57c8.66699 0 15.834 -2.83301 21.501 -8.5s8.5 -12.834 8.5 -21.501c0 -15.333 5.5 -28.166 16.5 -38.499s23.167 -15.5 36.5 -15.5c16.667 0 29.667 5.83301 39 17.5s14 25.5 14 41.5v421h-209c-6.66699 0 -12.5 2.33301 -17.5 7
s-7.5 10.334 -7.5 17.001v56c0 6.66699 2.5 12.334 7.5 17.001s10.833 7 17.5 7h302c7.33301 0 14 -2.33301 20 -7s9 -10.334 9 -17.001v-487c0 -50.667 -16.667 -93.167 -50 -127.5s-75.666 -51.5 -126.999 -51.5c-44.667 0 -83.834 16.167 -117.501 48.5
s-50.5 69.5 -50.5 111.5z" />
    <glyph glyph-name="k" unicode="k" 
d="M400 25l-162 230.002v-228c0 -7.33301 -2.66699 -13.666 -8 -18.999s-11.666 -8 -18.999 -8h-66c-7.33301 0 -13.666 2.66699 -18.999 8s-8 11.666 -8 18.999v646c0 7.33301 2.66699 13.666 8 18.999s11.666 8 18.999 8h66c7.33301 0 13.666 -2.66699 18.999 -8
s8 -12 8 -20v-403l149 206c12 16.667 26.333 25 43 25h67c16 0 24 -5.66699 24 -17c0 -4.66699 -1.66699 -9.33398 -5 -14.001l-157 -209l172 -229c4 -5.33301 6 -10 6 -14c0 -11.333 -8.33301 -17 -25 -17h-69c-16.667 -0 -31 8.33301 -43 25z" />
    <glyph glyph-name="l" unicode="l" 
d="M260 596l-124 -0.000976562c-6.66699 0 -12.5 2.33301 -17.5 7s-7.5 10.334 -7.5 17.001v56c0 6.66699 2.5 12.334 7.5 17.001s10.833 7 17.5 7h218c7.33301 0 14 -2.33301 20 -7s9 -10.334 9 -17.001v-572h122c6.66699 0 12.5 -2.33301 17.5 -7s7.5 -10.334 7.5 -17.001
v-56c0 -6.66699 -2.5 -12.334 -7.5 -17.001s-10.833 -7 -17.5 -7h-391c-6.66699 0 -12.5 2.33301 -17.5 7s-7.5 10.334 -7.5 17.001v56c0 6.66699 2.5 12.334 7.5 17.001s10.833 7 17.5 7h146v492z" />
    <glyph glyph-name="m" unicode="m" 
d="M358 347l-0.0078125 -319.998c0 -7.33301 -2.66699 -13.666 -8 -18.999s-11.666 -8 -18.999 -8h-55c-7.33301 0 -13.666 2.66699 -18.999 8s-8 11.666 -8 18.999v340c0 11.333 -3.33301 20.666 -10 27.999s-14.667 11 -24 11c-14 0 -25.333 -5.66699 -34 -17
s-13 -25.333 -13 -42v-320c0 -7.33301 -2.66699 -13.666 -8 -18.999s-11.666 -8 -18.999 -8h-65c-7.33301 0 -13.5 2.66699 -18.5 8s-7.5 11.666 -7.5 18.999v445c0 8 2.33301 14.667 7 20s11 8 19 8h55c8.66699 0 15.834 -2.66699 21.501 -8s8.5 -12 8.5 -20v-15
c2.66699 4 6.83398 8.66699 12.501 14s16.834 12.666 33.501 21.999s33 14 49 14s30 -3.16699 42 -9.5s20 -12.5 24 -18.5l6 -9c23.333 24.667 54.333 37 93 37c38 0 69.333 -13.667 94 -41s37 -60.666 37 -99.999v-339c0 -7.33301 -2.66699 -13.666 -8 -18.999
s-11.666 -8 -18.999 -8h-64c-7.33301 0 -13.666 2.66699 -18.999 8s-8 11.666 -8 18.999v340c0 11.333 -3.16699 20.666 -9.5 27.999s-13.833 11 -22.5 11c-29.333 0 -44 -19.667 -44 -59z" />
    <glyph glyph-name="n" unicode="n" 
d="M217 473l-0.000976562 -15c3.33301 4 8.16602 8.83301 14.499 14.5s20 13.334 41 23.001s42.167 14.5 63.5 14.5c49.333 0 90.833 -17.333 124.5 -52s50.5 -79.334 50.5 -134.001v-297c0 -7.33301 -2.66699 -13.666 -8 -18.999s-11.666 -8 -18.999 -8h-69
c-7.33301 0 -13.666 2.66699 -18.999 8s-8 11.666 -8 18.999v295c0 24.667 -7.5 44.667 -22.5 60s-34.167 23 -57.5 23c-24 0 -44.333 -8 -61 -24s-25 -34 -25 -54v-300c0 -7.33301 -2.66699 -13.666 -8 -18.999s-11.666 -8 -18.999 -8h-68
c-7.33301 0 -13.666 2.66699 -18.999 8s-8 11.666 -8 18.999v446c0 7.33301 2.66699 13.666 8 18.999s11.666 8 18.999 8h63c7.33301 0 13.666 -2.66699 18.999 -8s8 -11.666 8 -18.999z" />
    <glyph glyph-name="o" unicode="o" 
d="M503 339v-178c0 -48.667 -18.833 -89.334 -56.5 -122.001s-86.167 -49 -145.5 -49c-60 0 -109 16.333 -147 49s-57 73.334 -57 122.001v178c0 48.667 19 89.334 57 122.001s87 49 147 49c59.333 0 107.833 -16.333 145.5 -49s56.5 -73.334 56.5 -122.001zM377 159
v180.999c0 18 -7 33.5 -21 46.5s-32.667 19.5 -56 19.5c-22 0 -40.5 -6.66699 -55.5 -20s-22.5 -28.666 -22.5 -45.999v-181c0 -17.333 7.5 -32.5 22.5 -45.5s33.833 -19.5 56.5 -19.5s41 6.33301 55 19s21 28 21 46z" />
    <glyph glyph-name="p" unicode="p" 
d="M386 163v174c0 18 -7.16699 33.833 -21.5 47.5s-32.5 20.5 -54.5 20.5s-40.833 -7.16699 -56.5 -21.5s-23.5 -30.833 -23.5 -49.5v-168c0 -20 7.66699 -37.167 23 -51.5s34.333 -21.5 57 -21.5c22 0 40.167 7.16699 54.5 21.5s21.5 30.5 21.5 48.5zM230 24
l-0.00195312 -177c0 -7.33301 -2.66699 -13.666 -8 -18.999s-11.666 -8 -18.999 -8h-71c-7.33301 0 -13.666 2.66699 -18.999 8s-8 11.666 -8 18.999v626c0 7.33301 2.66699 13.666 8 18.999s11.666 8 18.999 8h61c7.33301 0 13.666 -2.66699 18.999 -8s8 -11.666 8 -18.999
v-8c28.667 28.667 66.334 43 113.001 43c49.333 0 91.333 -16.167 126 -48.5s52 -72.833 52 -121.5v-176c0 -50 -17.333 -91.167 -52 -123.5s-76 -48.5 -124 -48.5c-20 0 -38.667 2.83301 -56 8.5s-29.666 11.5 -36.999 17.5z" />
    <glyph glyph-name="q" unicode="q" 
d="M214 337v-174c0 -18 7.16699 -34.167 21.5 -48.5s32.5 -21.5 54.5 -21.5c22.667 0 41.667 7.16699 57 21.5s23 31.5 23 51.5v168c0 18.667 -7.83301 35.167 -23.5 49.5s-34.5 21.5 -56.5 21.5s-40.167 -6.83301 -54.5 -20.5s-21.5 -29.5 -21.5 -47.5zM370 -153
l-0.000976562 177c-25.333 -22.667 -60.333 -34 -105 -34c-48 0 -89.333 16.167 -124 48.5s-52 73.5 -52 123.5v176c0 48.667 17.333 89.167 52 121.5s76.667 48.5 126 48.5c46.667 0 84.334 -14.333 113.001 -43v8c0 7.33301 2.66699 13.666 8 18.999s11.666 8 18.999 8h61
c7.33301 0 13.666 -2.66699 18.999 -8s8 -11.666 8 -18.999v-626c0 -7.33301 -2.66699 -13.666 -8 -18.999s-11.666 -8 -18.999 -8h-71c-7.33301 0 -13.666 2.66699 -18.999 8s-8 11.666 -8 18.999z" />
    <glyph glyph-name="r" unicode="r" 
d="M540 358c0 -7.33301 -2.66602 -13.667 -7.99902 -19s-11.666 -8 -18.999 -8h-66c-14 0 -23.333 9 -28 27c-2 10.667 -7.83301 21.167 -17.5 31.5s-22.5 15.5 -38.5 15.5c-22.667 0 -41.667 -8 -57 -24s-23 -35.667 -23 -59v-218h177c6.66699 0 12.5 -2.33301 17.5 -7
s7.5 -10.334 7.5 -17.001v-56c0 -6.66699 -2.5 -12.334 -7.5 -17.001s-10.833 -7 -17.5 -7h-375c-6.66699 0 -12.5 2.33301 -17.5 7s-7.5 10.334 -7.5 17.001v56c0 6.66699 2.5 12.334 7.5 17.001s10.833 7 17.5 7h76v369c0 7.33301 2.66699 13.666 8 18.999
s11.666 8 18.999 8h63c7.33301 0 13.666 -2.66699 18.999 -8s8 -11.666 8 -18.999v-13c2.66699 3.33301 6.66699 7.83301 12 13.5s17.333 13 36 22s38.667 13.5 60 13.5c48 0 85.667 -16.833 113 -50.5s41 -67.167 41 -100.5z" />
    <glyph glyph-name="s" unicode="s" 
d="M300 -10c-60.667 0 -107.501 15.6641 -140.501 46.9971s-49.5 62 -49.5 92c0 7.33301 2.66699 13.666 8 18.999s11.666 8 18.999 8h61c18.667 0 31.334 -8.66699 38.001 -26c10 -24.667 32 -37 66 -37c20.667 0 35.834 4.83301 45.501 14.5s14.5 20.834 14.5 33.501
c0 14.667 -8.33301 27.334 -25 38.001s-36.667 20.334 -60 29.001s-46.833 18.334 -70.5 29.001s-43.834 26.5 -60.501 47.5s-25 46.167 -25 75.5c0 44 17.833 80 53.5 108s78.167 42 127.5 42c57.333 0 102 -15.333 134 -46s48 -61.334 48 -92.001
c0 -7.33301 -2.66699 -13.666 -8 -18.999s-11.666 -8 -18.999 -8h-64c-18.667 0 -30.667 8.66699 -36 26c-2.66699 8 -8.66699 16.167 -18 24.5s-22.333 12.5 -39 12.5c-16 0 -29.5 -4.83301 -40.5 -14.5s-16.5 -20.5 -16.5 -32.5s8.5 -22.5 25.5 -31.5
s37.5 -17.333 61.5 -25s48.167 -17 72.5 -28s45 -27.667 62 -50s25.5 -49.5 25.5 -81.5c0 -42 -18.833 -78.333 -56.5 -109s-82.167 -46 -133.5 -46z" />
    <glyph glyph-name="t" unicode="t" 
d="M337 -10c-60 0 -106.997 16.5 -140.997 49.5s-51 75.167 -51 126.5v230h-62c-6.66699 0 -12.5 2.33301 -17.5 7s-7.5 10.334 -7.5 17.001v56c0 6.66699 2.5 12.334 7.5 17.001s10.833 7 17.5 7h62v104c0 7.33301 2.66699 13.666 8 18.999s11.666 8 18.999 8h66
c7.33301 0 13.666 -2.66699 18.999 -8s8 -12 8 -20v-103h218c6.66699 0 12.5 -2.33301 17.5 -7s7.5 -10.334 7.5 -17.001v-56c0 -6.66699 -2.5 -12.334 -7.5 -17.001s-10.833 -7 -17.5 -7h-218v-227c0 -22 6.83301 -40 20.5 -54s31.5 -21 53.5 -21c37.333 0 61 16.333 71 49
c4.66699 17.333 16 26 34 26h59c7.33301 0 13.666 -2.66699 18.999 -8s8 -11.666 8 -18.999c0 -12.667 -3.16699 -26.834 -9.5 -42.501s-16 -32.167 -29 -49.5s-33 -31.666 -60 -42.999s-58.5 -17 -94.5 -17z" />
    <glyph glyph-name="u" unicode="u" 
d="M387 27l0.000976562 15c-3.33301 -4 -8.16602 -8.83301 -14.499 -14.5s-20 -13.334 -41 -23.001s-42.167 -14.5 -63.5 -14.5c-49.333 0 -90.833 17.333 -124.5 52s-50.5 79.334 -50.5 134.001v297c0 7.33301 2.66699 13.666 8 18.999s11.666 8 18.999 8h69
c7.33301 0 13.666 -2.66699 18.999 -8s8 -11.666 8 -18.999v-295c0 -24.667 7.5 -44.667 22.5 -60s34.167 -23 57.5 -23c24 0 44.333 8 61 24s25 34 25 54v300c0 7.33301 2.66699 13.666 8 18.999s11.666 8 18.999 8h68c7.33301 0 13.666 -2.66699 18.999 -8
s8 -11.666 8 -18.999v-446c0 -7.33301 -2.66699 -13.666 -8 -18.999s-11.666 -8 -18.999 -8h-63c-7.33301 0 -13.666 2.66699 -18.999 8s-8 11.666 -8 18.999z" />
    <glyph glyph-name="v" unicode="v" 
d="M202 27l-91.9961 251.001c-6.66699 18 -10 35.333 -10 52v143c0 7.33301 2.66699 13.666 8 18.999s11.666 8 18.999 8h69c7.33301 0 13.666 -2.66699 18.999 -8s8 -11.666 8 -18.999v-165l71 -207h10l72 207v165c0 7.33301 2.66699 13.666 8 18.999s11.666 8 18.999 8h68
c7.33301 0 13.666 -2.66699 18.999 -8s8 -11.666 8 -18.999v-143c0 -18.667 -3 -36 -9 -52l-92 -251c-7.33301 -18 -18.333 -27 -33 -27h-130c-7.33301 0 -14 2.66699 -20 8s-10 11.666 -12 18.999z" />
    <glyph glyph-name="w" unicode="w" 
d="M358 293l35.0078 -184.001h12l19 203v161c0 7.33301 2.66699 13.666 8 18.999s11.666 8 18.999 8h54c7.33301 0 13.666 -2.66699 18.999 -8s8 -11.666 8 -18.999v-155c0 -18 -1.33301 -34 -4 -48l-38 -243c-1.33301 -7.33301 -4.83301 -13.666 -10.5 -18.999
s-12.5 -8 -20.5 -8h-90c-7.33301 0 -14.333 2.66699 -21 8s-10.667 11.666 -12 18.999l-34 192h-4l-36 -192c-1.33301 -7.33301 -5.33301 -13.666 -12 -18.999s-13.667 -8 -21 -8h-90c-18 0 -28.333 9 -31 27l-37 243c-2.66699 14 -4 30 -4 48v155
c0 7.33301 2.66699 13.666 8 18.999s11.666 8 18.999 8h54c7.33301 0 13.666 -2.66699 18.999 -8s8 -11.666 8 -18.999v-161l19 -203h12l35 184c1.33301 7.33301 5.16602 13.666 11.499 18.999s13.166 8 20.499 8h53c7.33301 0 14.166 -2.66699 20.499 -8
s10.166 -11.666 11.499 -18.999z" />
    <glyph glyph-name="x" unicode="x" 
d="M498 469l-130 -213l134 -225c3.33301 -6.66699 5 -11.334 5 -14.001c0 -11.333 -8.33301 -17 -25 -17h-69c-18.667 0 -33 8.33301 -43 25l-70 121l-70 -121c-10 -16.667 -24.333 -25 -43 -25h-69c-16.667 0 -25 5.66699 -25 17c0 2.66699 1.66699 7.33398 5 14.001
l134 225l-128 213c-3.33301 6.66699 -5 11.667 -5 15c0 10.667 8.33301 16 25 16h69c18.667 0 33 -8.33301 43 -25l64 -111l66 111c10 16.667 24.333 25 43 25h69c16.667 0 25 -5.33301 25 -16c0 -3.33301 -1.66699 -8.33301 -5 -15z" />
    <glyph glyph-name="y" unicode="y" 
d="M536 469l-240 -621c-6.66699 -18.667 -20.667 -28 -42 -28h-63c-17.333 0 -26 6.33301 -26 19c0 3.33301 1 7.33301 3 12l70 178l-170 440c-2 6 -3 10.667 -3 14c0 11.333 8.33301 17 25 17h69c20.667 0 34.667 -9.33301 42 -28l103 -289l101 289
c7.33301 18.667 21.333 28 42 28h67c16.667 0 25 -5.66699 25 -17c0 -3.33301 -1 -8 -3 -14z" />
    <glyph glyph-name="z" unicode="z" 
d="M118 117l225 279h-199c-6.66699 0 -12.5 2.33301 -17.5 7s-7.5 10.334 -7.5 17.001v56c0 6.66699 2.5 12.334 7.5 17.001s10.833 7 17.5 7h321c6.66699 0 12.5 -2.33301 17.5 -7s7.5 -10.334 7.5 -17.001v-56c0 -12.667 -4.33301 -25 -13 -37l-223 -279h216
c6.66699 0 12.5 -2.33301 17.5 -7s7.5 -10.334 7.5 -17.001v-56c0 -6.66699 -2.5 -12.334 -7.5 -17.001s-10.833 -7 -17.5 -7h-340c-6.66699 0 -12.5 2.33301 -17.5 7s-7.5 10.334 -7.5 17.001v56c0 12.667 4.33301 25 13 37z" />
    <glyph glyph-name="braceleft" unicode="{" 
d="M166 202c-20 4.66699 -29.999 14.6699 -29.999 30.0029v57c0 15.333 10 25.333 30 30c8 2 15.5 6.33301 22.5 13s10.5 14.667 10.5 24v162c0 52.667 20.833 97.834 62.5 135.501s91.167 56.5 148.5 56.5c8.66699 0 15.834 -2.83301 21.501 -8.5s8.5 -12.834 8.5 -21.501
v-57c0 -8.66699 -2.83301 -15.834 -8.5 -21.501s-12.834 -8.5 -21.501 -8.5c-24 0 -45 -7.5 -63 -22.5s-27 -32.5 -27 -52.5v-175c0 -32 -12.333 -59.667 -37 -83c24.667 -23.333 37 -51 37 -83v-176c0 -20 9 -37.333 27 -52s39 -22 63 -22
c8.66699 0 15.834 -2.83301 21.501 -8.5s8.5 -12.834 8.5 -21.501v-57c0 -8.66699 -2.83301 -15.834 -8.5 -21.501s-12.834 -8.5 -21.501 -8.5c-57.333 0 -106.833 19 -148.5 57s-62.5 83.333 -62.5 136v162c0 10 -3.33301 18.167 -10 24.5s-14.334 10.5 -23.001 12.5z" />
    <glyph glyph-name="bar" unicode="|" 
d="M359 670v-820c0 -8.66699 -2.83301 -15.834 -8.5 -21.501s-12.834 -8.5 -21.501 -8.5h-59c-8.66699 0 -15.834 2.83301 -21.501 8.5s-8.5 12.834 -8.5 21.501v820c0 8.66699 2.83301 15.834 8.5 21.501s12.834 8.5 21.501 8.5h59c8.66699 0 15.834 -2.83301 21.501 -8.5
s8.5 -12.834 8.5 -21.501z" />
    <glyph glyph-name="braceright" unicode="}" 
d="M434 202c-8.66699 -2 -16.333 -6.16992 -23 -12.5029s-10 -14.5 -10 -24.5v-162c0 -52.667 -20.833 -98 -62.5 -136s-91.167 -57 -148.5 -57c-8.66699 0 -15.834 2.83301 -21.501 8.5s-8.5 12.834 -8.5 21.501v57c0 8.66699 2.83301 15.834 8.5 21.501
s12.834 8.5 21.501 8.5c24 0 45 7.33301 63 22s27 32 27 52v176c0 32 12.333 59.667 37 83c-24.667 23.333 -37 51 -37 83v175c0 20 -9 37.5 -27 52.5s-39 22.5 -63 22.5c-8.66699 0 -15.834 2.83301 -21.501 8.5s-8.5 12.834 -8.5 21.501v57
c0 8.66699 2.83301 15.834 8.5 21.501s12.834 8.5 21.501 8.5c57.333 0 106.833 -18.833 148.5 -56.5s62.5 -82.834 62.5 -135.501v-162c0 -9.33301 3.5 -17.333 10.5 -24s14.5 -11 22.5 -13c20 -4.66699 30 -14.667 30 -30v-57c0 -15.333 -10 -25.333 -30 -30z" />
    <glyph glyph-name="asciitilde" unicode="~" 
d="M197 359c28.667 0 63.001 -6.83301 103.001 -20.5s65.667 -20.5 77 -20.5c14 0 23.667 6 29 18c4.66699 14.667 12 22 22 22h69c6.66699 0 12.167 -2.33301 16.5 -7s6.5 -10.334 6.5 -17.001c0 -31.333 -11 -60.833 -33 -88.5s-50 -41.5 -84 -41.5
c-28.667 0 -63.334 6.83301 -104.001 20.5s-66 20.5 -76 20.5c-14 0 -23.667 -6 -29 -18c-4.66699 -14.667 -12 -22 -22 -22h-69c-6.66699 0 -12.167 2.33301 -16.5 7s-6.5 10.334 -6.5 17.001c0 31.333 11 60.833 33 88.5s50 41.5 84 41.5z" />
    <glyph glyph-name="exclamdown" unicode="&#xa1;" 
d="M232 389v86c0 16.667 9 25 27 25h84c16.667 0 25 -8.33301 25 -25v-86c0 -16.667 -8.33301 -25 -25 -25h-84c-18 0 -27 8.33301 -27 25zM237 -170v435c0 8.66699 2.83301 15.834 8.5 21.501s12.834 8.5 21.501 8.5h65c8.66699 0 15.834 -2.83301 21.501 -8.5
s8.5 -12.834 8.5 -21.501v-435c0 -8.66699 -2.83301 -15.834 -8.5 -21.501s-12.834 -8.5 -21.501 -8.5h-65c-8.66699 0 -15.834 2.83301 -21.501 8.5s-8.5 12.834 -8.5 21.501z" />
    <glyph glyph-name="cent" unicode="&#xa2;" 
d="M492 159c0 -28.667 -10.834 -59.5 -32.501 -92.5s-56.167 -54.833 -103.5 -65.5v-45c0 -8 -2.66699 -14.667 -8 -20s-11.666 -8 -18.999 -8h-66c-7.33301 0 -13.666 2.66699 -18.999 8s-8 11.666 -8 18.999v48c-41.333 10.667 -74 31 -98 61s-36 65.667 -36 107v160
c0 42 11.833 78.5 35.5 109.5s56.5 51.833 98.5 62.5v44c0 7.33301 2.66699 13.666 8 18.999s11.666 8 18.999 8h66c7.33301 0 13.666 -2.66699 18.999 -8s8 -12 8 -20v-43c44.667 -11.333 78 -32.833 100 -64.5s33 -61.167 33 -88.5
c0 -7.33301 -2.66699 -13.666 -8 -18.999s-11.666 -8 -18.999 -8h-60c-18.667 0 -30.334 8.66699 -35.001 26c-11.333 38 -34.666 57 -69.999 57c-21.333 0 -38.166 -6.83301 -50.499 -20.5s-18.5 -31.5 -18.5 -53.5v-160c0 -21.333 6.33301 -38.833 19 -52.5
s29.667 -20.5 51 -20.5c39.333 0 63 20.333 71 61c3.33301 17.333 15.333 26 36 26h60c7.33301 0 13.666 -2.66699 18.999 -8s8 -11.666 8 -18.999z" />
    <glyph glyph-name="sterling" unicode="&#xa3;" 
d="M147 385l0.00195312 128.998c0 57.333 17.833 104.333 53.5 141s81.167 55 136.5 55c60 0 107 -19.667 141 -59s51 -78.666 51 -117.999c0 -8.66699 -2.66699 -15.834 -8 -21.501s-12.333 -8.5 -21 -8.5h-60c-18 0 -28.667 10 -32 30
c-2.66699 16 -9.33398 30.5 -20.001 43.5s-27.334 19.5 -50.001 19.5c-21.333 0 -38.333 -7 -51 -21s-19 -31.667 -19 -53v-137h103c17.333 0 26 -8 26 -24v-67c0 -16 -8.66699 -24 -26 -24h-103v-154h222c17.333 0 26 -8 26 -24v-68c0 -16 -8.66699 -24 -26 -24h-378
c-6.66699 0 -12.334 2.33301 -17.001 7s-7 10.334 -7 17.001v68c0 6.66699 2.33301 12.334 7 17.001s10.334 7 17.001 7h35v154h-40c-7.33301 0 -13.166 2.33301 -17.499 7s-6.5 10.334 -6.5 17.001v67c0 7.33301 2.16699 13.166 6.5 17.499s10.166 6.5 17.499 6.5h40z" />
    <glyph glyph-name="currency" unicode="&#xa4;" 
d="M220 273c0 -26.667 9.33301 -49.5 28 -68.5s41.667 -28.5 69 -28.5c26 0 48.667 9.5 68 28.5s29 41.833 29 68.5c0 26 -9.83301 48.667 -29.5 68s-42.167 29 -67.5 29c-28 0 -51.167 -9.33301 -69.5 -28s-27.5 -41.667 -27.5 -69zM548 421l-40.999 -43.999
c17.333 -32.667 26 -67.334 26 -104.001c0 -33.333 -8.66699 -68 -26 -104l41 -43c12 -12 12.333 -23.667 1 -35l-48 -48c-12 -11.333 -24.333 -10.666 -37 2.00098l-43 41c-32.667 -19.333 -67.334 -29 -104.001 -29c-36 0 -71 9.33301 -105 28l-41 -41
c-13.333 -13.333 -25.666 -14 -36.999 -2l-49 49c-11.333 11.333 -11 23 1 35l43 42c-17.333 30.667 -26 63.667 -26 99c0 43.333 8.66699 80 26 110l-43 44c-12 12 -12.333 23.667 -1 35l49 49c11.333 11.333 23.666 10.666 36.999 -2.00098l42 -41
c33.333 17.333 68 26 104 26c35.333 0 70.333 -8.33301 105 -25l42 39c12.667 13.333 25 14 37 2l48 -48c11.333 -11.333 11 -23 -1 -35z" />
    <glyph glyph-name="yen" unicode="&#xa5;" 
d="M491 131h-130v-101c0 -8.66699 -2.83301 -15.834 -8.5 -21.501s-12.834 -8.5 -21.501 -8.5h-62c-8.66699 0 -15.834 2.83301 -21.501 8.5s-8.5 12.834 -8.5 21.501v101h-132c-7.33301 0 -13.166 2.16699 -17.499 6.5s-6.5 10.166 -6.5 17.499v63
c0 6.66699 2.16699 12.334 6.5 17.001s10.166 7 17.499 7h132v66h-132c-7.33301 0 -13.166 2.33301 -17.499 7s-6.5 10.334 -6.5 17.001v63c0 7.33301 2.16699 13.166 6.5 17.499s10.166 6.5 17.499 6.5h89l-117 246c-3.33301 8.66699 -5 14 -5 16
c0 12.667 8.66699 19 26 19h65c20.667 0 35.334 -9.66699 44.001 -29l91 -211l91 211c8.66699 19.333 23.334 29 44.001 29h65c17.333 0 26 -6.33301 26 -19c0 -2 -1.66699 -7.33301 -5 -16l-117 -246h87c17.333 0 26 -8 26 -24v-63c0 -16 -8.66699 -24 -26 -24h-130v-66
h130c17.333 0 26 -8 26 -24v-63c0 -16 -8.66699 -24 -26 -24z" />
    <glyph glyph-name="brokenbar" unicode="&#xa6;" 
d="M359 670v-312c0 -8.66699 -2.83301 -15.834 -8.5 -21.501s-12.834 -8.5 -21.501 -8.5h-59c-8.66699 0 -15.834 2.83301 -21.501 8.5s-8.5 12.834 -8.5 21.501v312c0 8.66699 2.83301 15.834 8.5 21.501s12.834 8.5 21.501 8.5h59c8.66699 0 15.834 -2.83301 21.501 -8.5
s8.5 -12.834 8.5 -21.501zM359 162v-312c0 -8.66699 -2.83301 -15.834 -8.5 -21.501s-12.834 -8.5 -21.501 -8.5h-59c-8.66699 0 -15.834 2.83301 -21.501 8.5s-8.5 12.834 -8.5 21.501v312c0 8.66699 2.83301 15.834 8.5 21.501s12.834 8.5 21.501 8.5h59
c8.66699 0 15.834 -2.83301 21.501 -8.5s8.5 -12.834 8.5 -21.501z" />
    <glyph glyph-name="section" unicode="&#xa7;" 
d="M389 311c0 16 -8.33301 29.166 -25 39.499s-40.667 21.833 -72 34.5s-56 25 -74 37c-4.66699 -6 -7 -17.333 -7 -34c0 -14 8.33301 -26.333 25 -37s40.667 -22.667 72 -36s55.333 -25.333 72 -36c6 4.66699 9 15.334 9 32.001zM299 97.999
c20 0 33.833 4.50195 41.5 13.502s11.5 18.833 11.5 29.5c0 11.333 -9 22.166 -27 32.499s-40 20.833 -66 31.5s-51.833 22.834 -77.5 36.501s-47.5 32.5 -65.5 56.5s-27 51.333 -27 82c0 46 15.333 85 46 117c-10 16.667 -15 39.334 -15 68.001c0 42 15.667 76.667 47 104
s77 41 137 41c62 0 108 -15 138 -45s45 -63.667 45 -101c0 -8.66699 -2.66699 -15.834 -8 -21.501s-12.333 -8.5 -21 -8.5h-66c-12.667 0 -23.334 10 -32.001 30c-10.667 25.333 -30 38 -58 38c-19.333 0 -33 -4.5 -41 -13.5s-12 -18.833 -12 -29.5
c0 -11.333 9 -22.333 27 -33s39.833 -21.167 65.5 -31.5s51.5 -22.333 77.5 -36s48 -32.334 66 -56.001s27 -50.834 27 -81.501c0 -46.667 -15.667 -86.334 -47 -119.001c11.333 -20.667 17 -42.667 17 -66c0 -41.333 -16 -76 -48 -104s-77.333 -42 -136 -42
c-62 0 -108.167 15 -138.5 45s-45.5 63.667 -45.5 101c0 8.66699 2.66699 15.834 8 21.501s12.333 8.5 21 8.5h66c12.667 0 23.334 -10 32.001 -30c10.667 -25.333 30 -38 58 -38z" />
    <glyph glyph-name="dieresis" unicode="&#xa8;" 
d="M255 672v-72c0 -14.667 -7.66699 -22 -23 -22h-69c-6 0 -11 2 -15 6s-6 9.33301 -6 16v72c0 6.66699 2 12 6 16s9 6 15 6h69c15.333 0 23 -7.33301 23 -22zM457 672v-72c0 -14.667 -7.66699 -22 -23 -22h-68c-14.667 0 -22 7.33301 -22 22v72c0 14.667 7.33301 22 22 22
h68c15.333 0 23 -7.33301 23 -22z" />
    <glyph glyph-name="copyright" unicode="&#xa9;" 
d="M483 242v216c0 47.333 -17.833 87.666 -53.5 120.999s-78.5 50 -128.5 50s-93.167 -16.667 -129.5 -50s-54.5 -73.666 -54.5 -120.999v-216c0 -47.333 18.167 -87.666 54.5 -120.999s79.5 -50 129.5 -50s92.833 16.667 128.5 50s53.5 73.666 53.5 120.999zM567 451v-203
c0 -72 -25.833 -133 -77.5 -183s-114.5 -75 -188.5 -75s-137 25 -189 75s-78 111 -78 183v203c0 72 26 133 78 183s115 75 189 75s136.833 -25 188.5 -75s77.5 -111 77.5 -183zM370 303l26.999 0.00195312c16 0 24 -8 24 -24c0 -32.667 -11.5 -59.834 -34.5 -81.501
s-51.167 -32.5 -84.5 -32.5c-34 0 -62.333 11 -85 33s-34 49 -34 81v148c0 32 11.333 59.167 34 81.5s51.334 33.5 86.001 33.5c34 0 61.667 -11 83 -33s32 -51 32 -87c0 -16 -8 -24 -24 -24h-29c-8 0 -14 2.5 -18 7.5s-6 10.5 -6 16.5c0 13.333 -3.33301 24.166 -10 32.499
s-15.667 12.5 -27 12.5c-12.667 0 -23 -4.5 -31 -13.5s-12 -19.833 -12 -32.5v-137c0 -12 4.16699 -22.667 12.5 -32s18.5 -14 30.5 -14c11.333 0 21 3.5 29 10.5s12 16.5 12 28.5c0 17.333 8.33301 26 25 26z" />
    <glyph glyph-name="ordfeminine" unicode="&#xaa;" 
d="M258 622c-4.66699 -10.667 -11.999 -16.001 -21.999 -16.001h-44c-6.66699 0 -11.834 1.66699 -15.501 5s-5.5 7 -5.5 11c0 24.667 13 45.667 39 63s58.667 26 98 26c45.333 0 80.666 -10.833 105.999 -32.5s38 -49.167 38 -82.5v-220c0 -11.333 -7 -17 -21 -17h-39
c-14 0 -21 5.66699 -21 17v12c-24.667 -23.333 -56.667 -35 -96 -35s-70.666 10.333 -93.999 31s-35 46.334 -35 77.001c0 32 13.667 58.167 41 78.5s61.333 32.5 102 36.5l80 7v10c0 14 -5.5 26.667 -16.5 38s-25.833 17 -44.5 17c-12.667 0 -23.667 -2.83301 -33 -8.5
s-15 -11.5 -17 -17.5zM291.001 417.999c19.333 0 37.167 5.50098 53.5 16.501s24.5 22.167 24.5 33.5v52l-76 -7c-43.333 -4 -65 -21.667 -65 -53c0 -10.667 5 -20.334 15 -29.001s26 -13 48 -13zM175.002 304h258c12.667 0 19 -6 19 -18v-40c0 -12 -6.33301 -18 -19 -18
h-258c-12.667 0 -19 6 -19 18v40c0 12 6.33301 18 19 18z" />
    <glyph glyph-name="guillemotleft" unicode="&#xab;" 
d="M149 145l-94.999 122.001c-4.66699 5.33301 -7 12 -7 20c0 6.66699 2.33301 13.334 7 20.001l95 123c13.333 16.667 27.666 25 42.999 25h75c16 0 24 -5.66699 24 -17c0 -4.66699 -1.66699 -9.33398 -5 -14.001l-107 -137l108 -136c4 -4.66699 6 -9.33398 6 -14.001
c0 -11.333 -8.33301 -17 -25 -17h-75c-16 0 -30.667 8.33301 -44 25zM399.001 145.001l-94.999 122c-4.66699 5.33301 -7 12 -7 20c0 6.66699 2.33301 13.334 7 20.001l95 123c13.333 16.667 27.666 25 42.999 25h75c16 0 24 -5.66699 24 -17
c0 -4.66699 -1.66699 -9.33398 -5 -14.001l-107 -137l108 -136c4 -5.33301 6 -10 6 -14c0 -11.333 -8.33301 -17 -25 -17h-75c-16 0 -30.667 8.33301 -44 25z" />
    <glyph glyph-name="logicalnot" unicode="&#xac;" 
d="M520 410v-254c0 -6.66699 -2 -12 -6 -16s-9 -6 -15 -6h-73c-6 0 -11 2 -15 6s-6 9.33301 -6 16v160h-303c-6.66699 0 -12 2 -16 6s-6 9 -6 15v73c0 6 2 11 6 15s9.33301 6 16 6h395c15.333 0 23 -7 23 -21z" />
    <glyph glyph-name="uni00AD" unicode="&#xad;" 
 />
    <glyph glyph-name="registered" unicode="&#xae;" 
d="M375 349l53 -94c2.66699 -5.33301 4 -9 4 -11c0 -8 -6.33301 -12 -19 -12h-39c-10.667 0 -19 5.66699 -25 17l-48 87h-33v-87c0 -11.333 -7.33301 -17 -22 -17h-33c-6 0 -10.833 1.66699 -14.5 5s-5.5 7.33301 -5.5 12v286c0 6 2 11.333 6 16s9.33301 7 16 7h111
c24.667 0 46.167 -8.5 64.5 -25.5s27.5 -37.167 27.5 -60.5v-44c0 -14.667 -4.16699 -29.5 -12.5 -44.5s-18.5 -26.5 -30.5 -34.5zM342 420v51.999c0 6.66699 -2.66699 12.5 -8 17.5s-11.666 7.5 -18.999 7.5h-50v-101h50c7.33301 0 13.666 2.33301 18.999 7
s8 10.334 8 17.001zM474 307.999v164c0 44.667 -17 83 -51 115s-74.667 48 -122 48c-48 0 -89.167 -16 -123.5 -48s-51.5 -70.333 -51.5 -115v-164c0 -44.667 17.167 -83 51.5 -115s75.5 -48 123.5 -48c47.333 0 88 16 122 48s51 70.333 51 115zM554 464.999v-151
c0 -68.667 -24.667 -126.834 -74 -174.501s-109 -71.5 -179 -71.5c-70.667 0 -130.667 23.833 -180 71.5s-74 105.834 -74 174.501v151c0 68.667 24.667 126.834 74 174.501s109.333 71.5 180 71.5c70 0 129.667 -23.833 179 -71.5s74 -105.834 74 -174.501z" />
    <glyph glyph-name="macron" unicode="&#xaf;" 
d="M444 655v-62c0 -14 -7.66699 -21 -23 -21h-244c-6.66699 0 -12 2 -16 6s-6 9 -6 15v62c0 6 2 11 6 15s9.33301 6 16 6h244c15.333 0 23 -7 23 -21z" />
    <glyph glyph-name="degree" unicode="&#xb0;" 
d="M134 545c0 45.333 16.333 84.333 49 117s71.667 49 117 49s84.333 -16.333 117 -49s49 -71.667 49 -117s-16.333 -84.333 -49 -117s-71.667 -49 -117 -49s-84.333 16.333 -117 49s-49 71.667 -49 117zM237 545c0 -17.333 6.16699 -32.166 18.5 -44.499
s26.833 -18.5 43.5 -18.5c17.333 0 32.333 6.16699 45 18.5s19 27.166 19 44.499s-6.33301 32.166 -19 44.499s-27.667 18.5 -45 18.5c-16.667 0 -31.167 -6.16699 -43.5 -18.5s-18.5 -27.166 -18.5 -44.499z" />
    <glyph glyph-name="plusminus" unicode="&#xb1;" 
d="M263 509h73c14 0 21 -7.66699 21 -23v-95h140c15.333 0 23 -7 23 -21v-73c0 -14 -7.66699 -21 -23 -21h-140v-95c0 -6.66699 -2 -12 -6 -16s-9 -6 -15 -6h-73c-6 0 -11 2 -15 6s-6 9.33301 -6 16v95h-140c-6.66699 0 -12 2 -16 6s-6 9 -6 15v73c0 6 2 11 6 15
s9.33301 6 16 6h140v95c0 15.333 7 23 21 23zM520 94v-73c0 -14 -7.66699 -21 -23 -21h-395c-6.66699 0 -12 2 -16 6s-6 9 -6 15v73c0 6 2 11 6 15s9.33301 6 16 6h395c15.333 0 23 -7 23 -21z" />
    <glyph glyph-name="twosuperior" unicode="&#xb2;" 
d="M183 728c0 32 11.5 58.498 34.5 79.498s51.167 31.5 84.5 31.5c36 0 65 -10.5 87 -31.5s33 -48.167 33 -81.5c0 -27.333 -10 -53.166 -30 -77.499s-42.333 -47.166 -67 -68.499s-39.667 -38.333 -45 -51h119c6.66699 0 12.167 -2 16.5 -6s6.5 -9.33301 6.5 -16v-39
c0 -6.66699 -2.16699 -12.167 -6.5 -16.5s-9.83301 -6.5 -16.5 -6.5h-199c-6 0 -11.333 2.33301 -16 7s-7 10 -7 16v25c0 26 8 51.5 24 76.5s33.5 45.5 52.5 61.5s36.5 33 52.5 51s24 33.333 24 46c0 7.33301 -2.83301 13.333 -8.5 18s-12.167 7 -19.5 7
c-16.667 0 -26.667 -8.33301 -30 -25c-4 -15.333 -12.667 -23 -26 -23h-37c-17.333 0 -26 7.66699 -26 23z" />
    <glyph glyph-name="threesuperior" unicode="&#xb3;" 
d="M399 749l-38 -45.002c16.667 -7.33301 30.5 -19 41.5 -35s16.5 -34 16.5 -54v-61c0 -30.667 -11.5 -57.5 -34.5 -80.5s-51.5 -34.5 -85.5 -34.5c-36 0 -64.667 10.833 -86 32.5s-32 47.834 -32 78.501c0 15.333 8 23 24 23h40c12.667 0 21.334 -8 26.001 -24
c4 -16 13.333 -24 28 -24c7.33301 0 13.833 2.5 19.5 7.5s8.5 10.833 8.5 17.5v58c0 6.66699 -2.33301 12 -7 16s-10.334 6 -17.001 6h-28c-18 0 -27 8.33301 -27 25v20c0 8.66699 3 16.667 9 24l42 46h-82c-14.667 0 -22 8.33301 -22 25v35c0 16 7.33301 24 22 24h168
c15.333 0 23 -8 23 -24v-31c0 -9.33301 -3 -17.666 -9 -24.999z" />
    <glyph glyph-name="acute" unicode="&#xb4;" 
d="M259 555l-49.998 0.000976562c-15.333 0 -23 5 -23 15c0 5.33301 3.33301 12.666 10 21.999l73 94c11.333 16 28.666 24 51.999 24h69c15.333 0 23 -6 23 -18c0 -6 -3.33301 -12.333 -10 -19l-94 -92c-18.667 -17.333 -35.334 -26 -50.001 -26z" />
    <glyph glyph-name="mu" unicode="&#xb5;" 
d="M508 100c7.33301 0 13.668 -2.66895 19.001 -8.00195s8 -11.666 8 -18.999v-51c0 -7.33301 -2.66699 -13.666 -8 -18.999s-11.666 -8 -18.999 -8h-20c-39.333 0 -71.333 14.667 -96 44c-38 -32.667 -78.333 -49 -121 -49c-18 0 -39 7 -63 21v-164
c0 -7.33301 -2.66699 -13.666 -8 -18.999s-11.666 -8 -18.999 -8h-69c-7.33301 0 -13.666 2.66699 -18.999 8s-8 11.666 -8 18.999v626c0 7.33301 2.66699 13.666 8 18.999s11.666 8 18.999 8h69c7.33301 0 13.666 -2.66699 18.999 -8s8 -11.666 8 -18.999v-311
c0 -17.333 7.33301 -32.833 22 -46.5s31.667 -20.5 51 -20.5s37 6.5 53 19.5s24 27.5 24 43.5v315c0 7.33301 2.66699 13.666 8 18.999s11.666 8 18.999 8h67c7.33301 0 13.666 -2.66699 18.999 -8s8 -11.666 8 -18.999v-347c0 -6.66699 2.83301 -12.667 8.5 -18
s12.5 -8 20.5 -8z" />
    <glyph glyph-name="paragraph" unicode="&#xb6;" 
d="M396 -150l0.00390625 737.001h-50v-737c0 -8.66699 -2.83301 -15.834 -8.5 -21.501s-12.834 -8.5 -21.501 -8.5h-63c-8.66699 0 -16 2.83301 -22 8.5s-9 12.834 -9 21.501v458c-46.667 8.66699 -86.334 31 -119.001 67s-49 77.667 -49 125c0 56 20 103.333 60 142
s88 58 144 58h199c10 0 18 -2.83301 24 -8.5s9 -12.834 9 -21.501v-820c0 -8.66699 -2.83301 -15.834 -8.5 -21.501s-12.834 -8.5 -21.501 -8.5h-34c-8.66699 0 -15.834 2.83301 -21.501 8.5s-8.5 12.834 -8.5 21.501z" />
    <glyph glyph-name="periodcentered" unicode="&#xb7;" 
d="M368 330v-86c0 -16.667 -9 -25 -27 -25h-84c-16.667 0 -25 8.33301 -25 25v86c0 16.667 8.33301 25 25 25h84c18 0 27 -8.33301 27 -25z" />
    <glyph glyph-name="cedilla" unicode="&#xb8;" 
d="M224 -68v68.001h85v-25c21.333 -2 39.5 -10.833 54.5 -26.5s22.5 -33.834 22.5 -54.501c0 -24 -8.33301 -44 -25 -60s-36.667 -24 -60 -24h-67c-5.33301 0 -10 2 -14 6s-6 8.66699 -6 14v23c0 5.33301 2 10 6 14s8.66699 6 14 6h42c5.33301 0 10 1.83301 14 5.5
s6 8.5 6 14.5c0 5.33301 -2 9.83301 -6 13.5s-8.66699 5.5 -14 5.5h-32c-5.33301 0 -10 2 -14 6s-6 8.66699 -6 14z" />
    <glyph glyph-name="onesuperior" unicode="&#xb9;" 
d="M239 819l57.999 9.99902h61c6.66699 0 12.334 -2.16699 17.001 -6.5s7 -10.166 7 -17.499v-337c0 -15.333 -8 -23 -24 -23h-47c-16 0 -24 7.66699 -24 23v276c-24.667 -4.66699 -40.667 -7 -48 -7c-14 0 -21 7.66699 -21 23v36c0 13.333 7 21 21 23z" />
    <glyph glyph-name="ordmasculine" unicode="&#xba;" 
d="M450 583v-102c0 -35.333 -14.167 -65.5 -42.5 -90.5s-62.833 -37.5 -103.5 -37.5s-75.667 12.667 -105 38s-44 55.333 -44 90v102c0 34.667 14.667 64.667 44 90s64.333 38 105 38s75.167 -12.5 103.5 -37.5s42.5 -55.167 42.5 -90.5zM372 486v94
c0 16.667 -6.66699 31.5 -20 44.5s-29.666 19.5 -48.999 19.5c-18.667 0 -34.334 -6.33301 -47.001 -19s-19 -27.667 -19 -45v-94c0 -17.333 6.16699 -32.833 18.5 -46.5s28.5 -20.5 48.5 -20.5c18.667 0 34.667 6.83301 48 20.5s20 29.167 20 46.5zM175 304h256
c12.667 0 19 -6 19 -18v-40c0 -12 -6.33301 -18 -19 -18h-256c-12.667 0 -19 6 -19 18v40c0 12 6.33301 18 19 18z" />
    <glyph glyph-name="guillemotright" unicode="&#xbb;" 
d="M296 267l-94.999 -122.001c-13.333 -16.667 -28 -25 -44 -25h-75c-16.667 0 -25 5.66699 -25 17c0 4.66699 2 9.33398 6 14.001l108 136l-107 137c-3.33301 4.66699 -5 9.33398 -5 14.001c0 11.333 8 17 24 17h75c15.333 0 29.666 -8.33301 42.999 -25l95 -123
c4.66699 -6.66699 7 -13.334 7 -20.001c0 -8 -2.33301 -14.667 -7 -20zM546.001 266.999l-94.999 -122.001c-13.333 -16.667 -28 -25 -44 -25h-75c-16.667 0 -25 5.66699 -25 17c0 4.66699 2 9.33398 6 14.001l108 136l-107 137c-3.33301 4.66699 -5 9.33398 -5 14.001
c0 11.333 8 17 24 17h75c15.333 0 29.666 -8.33301 42.999 -25l95 -123c4.66699 -6.66699 7 -13.334 7 -20.001c0 -8 -2.33301 -14.667 -7 -20z" />
    <glyph glyph-name="onequarter" unicode="&#xbc;" 
d="M36 691l58.001 9.99902h61c7.33301 0 13.166 -2.16699 17.499 -6.5s6.5 -10.166 6.5 -17.499v-337c0 -15.333 -8 -23 -24 -23h-47c-16 0 -24 7.66699 -24 23v276c-24.667 -4.66699 -40.667 -7 -48 -7c-14 0 -21 7.66699 -21 23v36c0 13.333 7 21 21 23zM496.001 358.999
l-97.999 -205h55v50c0 16 8 24 24 24h46c14.667 0 22 -8 22 -24v-50h14c16 0 24 -7.66699 24 -23v-39c0 -6.66699 -2.16699 -12 -6.5 -16s-9.83301 -6 -16.5 -6h-15v-48c0 -14.667 -7.33301 -22 -22 -22h-47c-16 0 -24 7 -24 21v49h-135
c-6.66699 0 -12.334 2.33301 -17.001 7s-7 11 -7 19v32c0 9.33301 2 18 6 26l102 212c6 12 15.333 18 28 18h50c13.333 0 20 -4.66699 20 -14c0 -3.33301 -1 -7 -3 -11zM479.002 668.999l-321 -644c-8 -16.667 -20.333 -25 -37 -25h-23c-14 0 -21 4.66699 -21 14
c0 4.66699 1.66699 10.334 5 17.001l321 644c4.66699 8.66699 9.5 15 14.5 19s12.5 6 22.5 6h23c14 0 21 -4.66699 21 -14c0 -4.66699 -1.66699 -10.334 -5 -17.001z" />
    <glyph glyph-name="onehalf" unicode="&#xbd;" 
d="M341 283c0 32 11.5 58.498 34.5 79.498s51.167 31.5 84.5 31.5c36 0 65 -10.5 87 -31.5s33 -48.167 33 -81.5c0 -27.333 -10 -53.166 -30 -77.499s-42.333 -47.166 -67 -68.499s-39.667 -38.333 -45 -51h119c6.66699 0 12.167 -2 16.5 -6s6.5 -9.33301 6.5 -16v-39
c0 -6.66699 -2.16699 -12.167 -6.5 -16.5s-9.83301 -6.5 -16.5 -6.5h-199c-6 -0 -11.333 2.33301 -16 7s-7 10 -7 16v25c0 26 8 51.5 24 76.5s33.5 45.5 52.5 61.5s36.5 33 52.5 51s24 33.333 24 46c0 7.33301 -2.83301 13.333 -8.5 18s-12.167 7 -19.5 7
c-16.667 0 -26.667 -8.33301 -30 -25c-4 -15.333 -12.667 -23 -26 -23h-37c-17.333 0 -26 7.66699 -26 23zM36 690.998l58.001 9.99902h61c7.33301 0 13.166 -2.16699 17.499 -6.5s6.5 -10.166 6.5 -17.499v-337c0 -15.333 -8 -23 -24 -23h-47c-16 0 -24 7.66699 -24 23v276
c-24.667 -4.66699 -40.667 -7 -48 -7c-14 0 -21 7.66699 -21 23v36c0 13.333 7 21 21 23zM478.001 668.997l-321 -644c-4.66699 -8.66699 -9.5 -15 -14.5 -19s-12.5 -6 -22.5 -6h-23c-14 0 -21 4.66699 -21 14c0 4.66699 1.66699 10.334 5 17.001l321 644
c8 16.667 20.333 25 37 25h23c14 0 21 -4.66699 21 -14c0 -4.66699 -1.66699 -10.334 -5 -17.001z" />
    <glyph glyph-name="threequarters" unicode="&#xbe;" 
d="M503 359l-97.999 -205h55v50c0 16 8 24 24 24h46c14.667 0 22 -8 22 -24v-50h14c16 0 24 -7.66699 24 -23v-39c0 -6.66699 -2.16699 -12 -6.5 -16s-9.83301 -6 -16.5 -6h-15v-48c0 -14.667 -7.33301 -22 -22 -22h-47c-16 0 -24 7 -24 21v49h-135
c-6.66699 0 -12.334 2.33301 -17.001 7s-7 11 -7 19v32c0 9.33301 2 18 6 26l102 212c6 12 15.333 18 28 18h50c13.333 0 20 -4.66699 20 -14c0 -3.33301 -1 -7 -3 -11zM506.001 669l-321 -644c-4.66699 -8.66699 -9.5 -15 -14.5 -19s-12.5 -6 -22.5 -6h-23
c-14 0 -21 4.66699 -21 14c0 4.66699 1.66699 10.334 5 17.001l321 644c8 16.667 20.333 25 37 25h23c14 0 21 -4.66699 21 -14c0 -4.66699 -1.66699 -10.334 -5 -17.001zM236.001 620l-38.001 -45.002c16.667 -7.33301 30.5 -19 41.5 -35s16.5 -34 16.5 -54v-61
c0 -30 -11.667 -56.667 -35 -80s-51.666 -35 -84.999 -35c-36 0 -64.667 10.833 -86 32.5s-32 47.834 -32 78.501c0 15.333 8 23 24 23h40c12.667 0 21.334 -8 26.001 -24c4 -16 13.333 -24 28 -24c7.33301 0 13.833 2.5 19.5 7.5s8.5 10.833 8.5 17.5v58
c0 6.66699 -2.33301 12 -7 16s-10.334 6 -17.001 6h-28c-18 0 -27 8.33301 -27 25v20c0 8.66699 3 16.667 9 24l42 46h-82c-14.667 0 -22 8.33301 -22 25v35c0 16 7.33301 24 22 24h168c15.333 0 23 -8 23 -24v-31c0 -9.33301 -3 -17.666 -9 -24.999z" />
    <glyph glyph-name="questiondown" unicode="&#xbf;" 
d="M374 -22c2 16.667 10.998 25 26.998 25h74c16.667 0 25 -8.33301 25 -25c0 -47.333 -18.5 -90.5 -55.5 -129.5s-86.5 -58.5 -148.5 -58.5c-56.667 0 -103.334 17.5 -140.001 52.5s-55 81.167 -55 138.5c0 27.333 5.16699 51.5 15.5 72.5s22.833 38.5 37.5 52.5
s29.334 27.833 44.001 41.5s27.167 30.5 37.5 50.5s15.5 42.667 15.5 68c0 8.66699 2.83301 15.834 8.5 21.501s12.834 8.5 21.501 8.5h65c8.66699 0 15.834 -2.83301 21.501 -8.5s8.5 -12.834 8.5 -21.501c0 -33.333 -5 -63 -15 -89s-22.333 -46.833 -37 -62.5
s-29.167 -30.167 -43.5 -43.5s-26.5 -28 -36.5 -44s-15 -33.333 -15 -52c0 -19.333 7 -35.833 21 -49.5s31 -20.5 51 -20.5c20.667 0 37.5 7.16699 50.5 21.5s20.5 31.5 22.5 51.5zM245.998 389v86c0 16.667 9 25 27 25h84c16.667 0 25 -8.33301 25 -25v-86
c0 -16.667 -8.33301 -25 -25 -25h-84c-18 0 -27 8.33301 -27 25z" />
    <glyph glyph-name="Agrave" unicode="&#xc0;" 
d="M380 325l-70 258h-20l-70 -258h160zM402 673l102.006 -348c3.33301 -13.333 5 -26.333 5 -39v-256c0 -8.66699 -2.83301 -15.834 -8.5 -21.501s-12.834 -8.5 -21.501 -8.5h-58c-8.66699 0 -15.834 2.83301 -21.501 8.5s-8.5 12.834 -8.5 21.501v178h-182v-178
c0 -8.66699 -2.83301 -15.834 -8.5 -21.501s-12.834 -8.5 -21.501 -8.5h-58c-8.66699 0 -15.834 2.83301 -21.501 8.5s-8.5 12.834 -8.5 21.501v256c0 11.333 1.66699 24.333 5 39l102 348c5.33301 18 16.666 27 33.999 27h136c17.333 0 28.666 -9 33.999 -27zM335.006 755
l-49.998 -0.000976562c-14.667 0 -31.334 8.66699 -50.001 26l-94 92c-6.66699 6.66699 -10 13 -10 19c0 12 7.66699 18 23 18h69c23.333 0 40.666 -8 51.999 -24l73 -94c6.66699 -9.33301 10 -16.666 10 -21.999c0 -10 -7.66699 -15 -23 -15z" />
    <glyph glyph-name="Aacute" unicode="&#xc1;" 
d="M380 325l-70 258h-20l-70 -258h160zM402 673l102.006 -348c3.33301 -13.333 5 -26.333 5 -39v-256c0 -8.66699 -2.83301 -15.834 -8.5 -21.501s-12.834 -8.5 -21.501 -8.5h-58c-8.66699 0 -15.834 2.83301 -21.501 8.5s-8.5 12.834 -8.5 21.501v178h-182v-178
c0 -8.66699 -2.83301 -15.834 -8.5 -21.501s-12.834 -8.5 -21.501 -8.5h-58c-8.66699 0 -15.834 2.83301 -21.501 8.5s-8.5 12.834 -8.5 21.501v256c0 11.333 1.66699 24.333 5 39l102 348c5.33301 18 16.666 27 33.999 27h136c17.333 0 28.666 -9 33.999 -27zM314.006 755
l-49.998 0.000976562c-15.333 0 -23 5 -23 15c0 5.33301 3.33301 12.666 10 21.999l73 94c11.333 16 28.666 24 51.999 24h69c15.333 0 23 -6 23 -18c0 -6 -3.33301 -12.333 -10 -19l-94 -92c-18.667 -17.333 -35.334 -26 -50.001 -26z" />
    <glyph glyph-name="Acircumflex" unicode="&#xc2;" 
d="M380 325l-70 258h-20l-70 -258h160zM402 673l102.006 -348c3.33301 -13.333 5 -26.333 5 -39v-256c0 -8.66699 -2.83301 -15.834 -8.5 -21.501s-12.834 -8.5 -21.501 -8.5h-58c-8.66699 0 -15.834 2.83301 -21.501 8.5s-8.5 12.834 -8.5 21.501v178h-182v-178
c0 -8.66699 -2.83301 -15.834 -8.5 -21.501s-12.834 -8.5 -21.501 -8.5h-58c-8.66699 0 -15.834 2.83301 -21.501 8.5s-8.5 12.834 -8.5 21.501v256c0 11.333 1.66699 24.333 5 39l102 348c5.33301 18 16.666 27 33.999 27h136c17.333 0 28.666 -9 33.999 -27zM439.006 755
h-54c-20 0 -35.667 7.66699 -47 23l-38 51l-37 -51c-12 -15.333 -28 -23 -48 -23h-54c-16.667 0 -25 5.33301 -25 16c0 6.66699 2.66699 12.667 8 18l81 95c14.667 17.333 31.667 26 51 26h48c19.333 0 36.333 -8.66699 51 -26l81 -95c5.33301 -6.66699 8 -12.667 8 -18
c0 -10.667 -8.33301 -16 -25 -16z" />
    <glyph glyph-name="Atilde" unicode="&#xc3;" 
d="M380 325l-70 258h-20l-70 -258h160zM402 673l102.006 -348c3.33301 -13.333 5 -26.333 5 -39v-256c0 -8.66699 -2.83301 -15.834 -8.5 -21.501s-12.834 -8.5 -21.501 -8.5h-58c-8.66699 0 -15.834 2.83301 -21.501 8.5s-8.5 12.834 -8.5 21.501v178h-182v-178
c0 -8.66699 -2.83301 -15.834 -8.5 -21.501s-12.834 -8.5 -21.501 -8.5h-58c-8.66699 0 -15.834 2.83301 -21.501 8.5s-8.5 12.834 -8.5 21.501v256c0 11.333 1.66699 24.333 5 39l102 348c5.33301 18 16.666 27 33.999 27h136c17.333 0 28.666 -9 33.999 -27zM227.006 889
c18.667 0 40.167 -6.16699 64.5 -18.5s40.166 -18.5 47.499 -18.5c6.66699 0 12.334 1.83301 17.001 5.5s7.66699 7.16699 9 10.5c4.66699 13.333 11.334 20 20.001 20h72c6 0 11 -2.16699 15 -6.5s6 -9.5 6 -15.5c0 -28.667 -10 -55.5 -30 -80.5s-45.333 -37.5 -76 -37.5
c-18.667 0 -40.167 6.16699 -64.5 18.5s-40.166 18.5 -47.499 18.5c-6.66699 0 -12.334 -1.83301 -17.001 -5.5s-7.66699 -7.16699 -9 -10.5c-4.66699 -13.333 -11.334 -20 -20.001 -20h-72c-6 0 -11 2.16699 -15 6.5s-6 9.5 -6 15.5c0 28.667 10 55.5 30 80.5
s45.333 37.5 76 37.5z" />
    <glyph glyph-name="Adieresis" unicode="&#xc4;" 
d="M380 325l-70 258h-20l-70 -258h160zM402 673l102.006 -348c3.33301 -13.333 5 -26.333 5 -39v-256c0 -8.66699 -2.83301 -15.834 -8.5 -21.501s-12.834 -8.5 -21.501 -8.5h-58c-8.66699 0 -15.834 2.83301 -21.501 8.5s-8.5 12.834 -8.5 21.501v178h-182v-178
c0 -8.66699 -2.83301 -15.834 -8.5 -21.501s-12.834 -8.5 -21.501 -8.5h-58c-8.66699 0 -15.834 2.83301 -21.501 8.5s-8.5 12.834 -8.5 21.501v256c0 11.333 1.66699 24.333 5 39l102 348c5.33301 18 16.666 27 33.999 27h136c17.333 0 28.666 -9 33.999 -27zM255.006 872
v-72c0 -14.667 -7.66699 -22 -23 -22h-69c-6 0 -11 2 -15 6s-6 9.33301 -6 16v72c0 6.66699 2 12 6 16s9 6 15 6h69c15.333 0 23 -7.33301 23 -22zM457.006 872v-72c0 -14.667 -7.66699 -22 -23 -22h-68c-14.667 0 -22 7.33301 -22 22v72c0 14.667 7.33301 22 22 22h68
c15.333 0 23 -7.33301 23 -22z" />
    <glyph glyph-name="Aring" unicode="&#xc5;" 
d="M380 325l-70 258h-20l-70 -258h160zM402 673l102.006 -348c3.33301 -13.333 5 -26.333 5 -39v-256c0 -8.66699 -2.83301 -15.834 -8.5 -21.501s-12.834 -8.5 -21.501 -8.5h-58c-8.66699 0 -15.834 2.83301 -21.501 8.5s-8.5 12.834 -8.5 21.501v178h-182v-178
c0 -8.66699 -2.83301 -15.834 -8.5 -21.501s-12.834 -8.5 -21.501 -8.5h-58c-8.66699 0 -15.834 2.83301 -21.501 8.5s-8.5 12.834 -8.5 21.501v256c0 11.333 1.66699 24.333 5 39l102 348c5.33301 18 16.666 27 33.999 27h136c17.333 0 28.666 -9 33.999 -27zM178.006 843
c0 31.333 11.5 56.168 34.5 74.501s52.5 27.5 88.5 27.5c35.333 0 64.333 -9.16699 87 -27.5s34 -43.166 34 -74.499c0 -30.667 -11.333 -55.334 -34 -74.001s-51.667 -28 -87 -28c-36 0 -65.5 9.16699 -88.5 27.5s-34.5 43.166 -34.5 74.499zM259.006 844.002
c0 -10.667 3.83301 -19.666 11.5 -26.999s17.834 -11 30.501 -11c11.333 0 20.833 3.66699 28.5 11s11.5 16.333 11.5 27c0 10 -3.83301 19 -11.5 27s-17.167 12 -28.5 12c-12.667 0 -22.834 -3.83301 -30.501 -11.5s-11.5 -16.834 -11.5 -27.501z" />
    <glyph glyph-name="AE" unicode="&#xc6;" 
d="M229 583l-61 -260h114v260h-53zM538 583l-137.996 0.00488281v-160h116c8.66699 0 15.834 -2.83301 21.501 -8.5s8.5 -12.834 8.5 -21.501v-56c0 -8.66699 -2.83301 -15.834 -8.5 -21.501s-12.834 -8.5 -21.501 -8.5h-116v-190h145
c8.66699 0 15.834 -2.83301 21.501 -8.5s8.5 -12.834 8.5 -21.501v-57c0 -8.66699 -2.83301 -15.834 -8.5 -21.501s-12.834 -8.5 -21.501 -8.5h-233c-8.66699 0 -15.834 2.83301 -21.501 8.5s-8.5 12.834 -8.5 21.501v178h-127v-178
c0 -8.66699 -2.83301 -15.834 -8.5 -21.501s-12.834 -8.5 -21.501 -8.5h-58c-8.66699 0 -15.834 2.83301 -21.501 8.5s-8.5 12.834 -8.5 21.501v256c0 8.66699 2 21.667 6 39l96 348c5.33301 18 16.666 27 33.999 27h365c8.66699 0 15.834 -2.83301 21.501 -8.5
s8.5 -12.834 8.5 -21.501v-57c0 -8.66699 -2.83301 -15.834 -8.5 -21.501s-12.834 -8.5 -21.501 -8.5z" />
    <glyph glyph-name="Ccedilla" unicode="&#xc7;" 
d="M512 188c0 -48 -16.001 -90.332 -48.001 -126.999s-72 -59.334 -120 -68.001v-18c21.333 -2 39.5 -10.833 54.5 -26.5s22.5 -33.834 22.5 -54.501c0 -24 -8.33301 -44 -25 -60s-36.667 -24 -60 -24h-67c-5.33301 0 -10 2 -14 6s-6 8.66699 -6 14v23c0 5.33301 2 10 6 14
s8.66699 6 14 6h42c5.33301 0 10 1.83301 14 5.5s6 8.5 6 14.5c0 5.33301 -2 9.83301 -6 13.5s-8.66699 5.5 -14 5.5h-32c-5.33301 0 -10 2 -14 6s-6 8.66699 -6 14v64c-45.333 10 -82.833 32.833 -112.5 68.5s-44.5 76.5 -44.5 122.5v327c0 53.333 20.167 99.333 60.5 138
s88.166 58 143.499 58c41.333 0 78.166 -10.5 110.499 -31.5s55.833 -44.667 70.5 -71s22 -51.166 22 -74.499c0 -8.66699 -2.66699 -15.834 -8 -21.501s-12.333 -8.5 -21 -8.5h-60c-18 0 -28.667 10 -32 30c-2.66699 14 -11.167 28 -25.5 42s-32.833 21 -55.5 21
c-22 0 -41.167 -7.5 -57.5 -22.5s-24.5 -32.833 -24.5 -53.5v-339c0 -20.667 8.16699 -38.667 24.5 -54s35.5 -23 57.5 -23c22.667 0 42.834 7.33301 60.501 22s26.5 35.334 26.5 62.001c0 8.66699 2.83301 15.834 8.5 21.501s12.834 8.5 21.501 8.5h58
c8.66699 0 15.834 -2.83301 21.501 -8.5s8.5 -12.834 8.5 -21.501z" />
    <glyph glyph-name="Egrave" unicode="&#xc8;" 
d="M469 0l-319 0.00390625c-8.66699 0 -15.834 2.83301 -21.501 8.5s-8.5 12.834 -8.5 21.501v640c0 8.66699 2.83301 15.834 8.5 21.501s12.834 8.5 21.501 8.5h312c8.66699 0 15.834 -2.83301 21.501 -8.5s8.5 -12.834 8.5 -21.501v-57
c0 -8.66699 -2.83301 -15.834 -8.5 -21.501s-12.834 -8.5 -21.501 -8.5h-223v-160h201c8.66699 0 15.834 -2.83301 21.501 -8.5s8.5 -12.834 8.5 -21.501v-56c0 -8.66699 -2.83301 -15.834 -8.5 -21.501s-12.834 -8.5 -21.501 -8.5h-201v-190h230
c8.66699 0 15.834 -2.83301 21.501 -8.5s8.5 -12.834 8.5 -21.501v-57c0 -8.66699 -2.83301 -15.834 -8.5 -21.501s-12.834 -8.5 -21.501 -8.5zM362 755.004l-49.998 -0.000976562c-14.667 0 -31.334 8.66699 -50.001 26l-94 92c-6.66699 6.66699 -10 13 -10 19
c0 12 7.66699 18 23 18h69c23.333 0 40.666 -8 51.999 -24l73 -94c6.66699 -9.33301 10 -16.666 10 -21.999c0 -10 -7.66699 -15 -23 -15z" />
    <glyph glyph-name="Eacute" unicode="&#xc9;" 
d="M469 0l-319 0.00390625c-8.66699 0 -15.834 2.83301 -21.501 8.5s-8.5 12.834 -8.5 21.501v640c0 8.66699 2.83301 15.834 8.5 21.501s12.834 8.5 21.501 8.5h312c8.66699 0 15.834 -2.83301 21.501 -8.5s8.5 -12.834 8.5 -21.501v-57
c0 -8.66699 -2.83301 -15.834 -8.5 -21.501s-12.834 -8.5 -21.501 -8.5h-223v-160h201c8.66699 0 15.834 -2.83301 21.501 -8.5s8.5 -12.834 8.5 -21.501v-56c0 -8.66699 -2.83301 -15.834 -8.5 -21.501s-12.834 -8.5 -21.501 -8.5h-201v-190h230
c8.66699 0 15.834 -2.83301 21.501 -8.5s8.5 -12.834 8.5 -21.501v-57c0 -8.66699 -2.83301 -15.834 -8.5 -21.501s-12.834 -8.5 -21.501 -8.5zM314 755.004l-49.998 0.000976562c-15.333 0 -23 5 -23 15c0 5.33301 3.33301 12.666 10 21.999l73 94
c11.333 16 28.666 24 51.999 24h69c15.333 0 23 -6 23 -18c0 -6 -3.33301 -12.333 -10 -19l-94 -92c-18.667 -17.333 -35.334 -26 -50.001 -26z" />
    <glyph glyph-name="Ecircumflex" unicode="&#xca;" 
d="M469 0l-319 0.00390625c-8.66699 0 -15.834 2.83301 -21.501 8.5s-8.5 12.834 -8.5 21.501v640c0 8.66699 2.83301 15.834 8.5 21.501s12.834 8.5 21.501 8.5h312c8.66699 0 15.834 -2.83301 21.501 -8.5s8.5 -12.834 8.5 -21.501v-57
c0 -8.66699 -2.83301 -15.834 -8.5 -21.501s-12.834 -8.5 -21.501 -8.5h-223v-160h201c8.66699 0 15.834 -2.83301 21.501 -8.5s8.5 -12.834 8.5 -21.501v-56c0 -8.66699 -2.83301 -15.834 -8.5 -21.501s-12.834 -8.5 -21.501 -8.5h-201v-190h230
c8.66699 0 15.834 -2.83301 21.501 -8.5s8.5 -12.834 8.5 -21.501v-57c0 -8.66699 -2.83301 -15.834 -8.5 -21.501s-12.834 -8.5 -21.501 -8.5zM447 755.004h-54c-20 0 -35.667 7.66699 -47 23l-38 51l-37 -51c-12 -15.333 -28 -23 -48 -23h-54
c-16.667 0 -25 5.33301 -25 16c0 6.66699 2.66699 12.667 8 18l81 95c14.667 17.333 31.667 26 51 26h48c19.333 0 36.333 -8.66699 51 -26l81 -95c5.33301 -6.66699 8 -12.667 8 -18c0 -10.667 -8.33301 -16 -25 -16z" />
    <glyph glyph-name="Edieresis" unicode="&#xcb;" 
d="M469 0l-319 0.00390625c-8.66699 0 -15.834 2.83301 -21.501 8.5s-8.5 12.834 -8.5 21.501v640c0 8.66699 2.83301 15.834 8.5 21.501s12.834 8.5 21.501 8.5h312c8.66699 0 15.834 -2.83301 21.501 -8.5s8.5 -12.834 8.5 -21.501v-57
c0 -8.66699 -2.83301 -15.834 -8.5 -21.501s-12.834 -8.5 -21.501 -8.5h-223v-160h201c8.66699 0 15.834 -2.83301 21.501 -8.5s8.5 -12.834 8.5 -21.501v-56c0 -8.66699 -2.83301 -15.834 -8.5 -21.501s-12.834 -8.5 -21.501 -8.5h-201v-190h230
c8.66699 0 15.834 -2.83301 21.501 -8.5s8.5 -12.834 8.5 -21.501v-57c0 -8.66699 -2.83301 -15.834 -8.5 -21.501s-12.834 -8.5 -21.501 -8.5zM262 872.004v-72c0 -14.667 -7.66699 -22 -23 -22h-69c-6 0 -11 2 -15 6s-6 9.33301 -6 16v72c0 6.66699 2 12 6 16s9 6 15 6h69
c15.333 0 23 -7.33301 23 -22zM464 872.004v-72c0 -14.667 -7.66699 -22 -23 -22h-68c-14.667 0 -22 7.33301 -22 22v72c0 14.667 7.33301 22 22 22h68c15.333 0 23 -7.33301 23 -22z" />
    <glyph glyph-name="Igrave" unicode="&#xcc;" 
d="M500 92v-68.0039c0 -16 -8.66699 -24 -26 -24h-350c-6.66699 0 -12.334 2.33301 -17.001 7s-7 10.334 -7 17.001v68c0 6.66699 2.33301 12.334 7 17.001s10.334 7 17.001 7h115v468h-115c-6.66699 0 -12.334 2.33301 -17.001 7s-7 10.334 -7 17.001v68
c0 6.66699 2.33301 12.334 7 17.001s10.334 7 17.001 7h350c17.333 0 26 -8 26 -24v-68c0 -16 -8.66699 -24 -26 -24h-114v-468h114c17.333 0 26 -8 26 -24zM354 754.996l-49.998 -0.000976562c-14.667 0 -31.334 8.66699 -50.001 26l-94 92c-6.66699 6.66699 -10 13 -10 19
c0 12 7.66699 18 23 18h69c23.333 0 40.666 -8 51.999 -24l73 -94c6.66699 -9.33301 10 -16.666 10 -21.999c0 -10 -7.66699 -15 -23 -15z" />
    <glyph glyph-name="Iacute" unicode="&#xcd;" 
d="M500 92v-68.0039c0 -16 -8.66699 -24 -26 -24h-350c-6.66699 0 -12.334 2.33301 -17.001 7s-7 10.334 -7 17.001v68c0 6.66699 2.33301 12.334 7 17.001s10.334 7 17.001 7h115v468h-115c-6.66699 0 -12.334 2.33301 -17.001 7s-7 10.334 -7 17.001v68
c0 6.66699 2.33301 12.334 7 17.001s10.334 7 17.001 7h350c17.333 0 26 -8 26 -24v-68c0 -16 -8.66699 -24 -26 -24h-114v-468h114c17.333 0 26 -8 26 -24zM315 754.996l-49.998 0.000976562c-15.333 0 -23 5 -23 15c0 5.33301 3.33301 12.666 10 21.999l73 94
c11.333 16 28.666 24 51.999 24h69c15.333 0 23 -6 23 -18c0 -6 -3.33301 -12.333 -10 -19l-94 -92c-18.667 -17.333 -35.334 -26 -50.001 -26z" />
    <glyph glyph-name="Icircumflex" unicode="&#xce;" 
d="M500 92v-68.0039c0 -16 -8.66699 -24 -26 -24h-350c-6.66699 0 -12.334 2.33301 -17.001 7s-7 10.334 -7 17.001v68c0 6.66699 2.33301 12.334 7 17.001s10.334 7 17.001 7h115v468h-115c-6.66699 0 -12.334 2.33301 -17.001 7s-7 10.334 -7 17.001v68
c0 6.66699 2.33301 12.334 7 17.001s10.334 7 17.001 7h350c17.333 0 26 -8 26 -24v-68c0 -16 -8.66699 -24 -26 -24h-114v-468h114c17.333 0 26 -8 26 -24zM439 754.996h-54c-20 0 -35.667 7.66699 -47 23l-38 51l-37 -51c-12 -15.333 -28 -23 -48 -23h-54
c-16.667 0 -25 5.33301 -25 16c0 6.66699 2.66699 12.667 8 18l81 95c14.667 17.333 31.667 26 51 26h48c19.333 0 36.333 -8.66699 51 -26l81 -95c5.33301 -6.66699 8 -12.667 8 -18c0 -10.667 -8.33301 -16 -25 -16z" />
    <glyph glyph-name="Idieresis" unicode="&#xcf;" 
d="M500 92v-68.0039c0 -16 -8.66699 -24 -26 -24h-350c-6.66699 0 -12.334 2.33301 -17.001 7s-7 10.334 -7 17.001v68c0 6.66699 2.33301 12.334 7 17.001s10.334 7 17.001 7h115v468h-115c-6.66699 0 -12.334 2.33301 -17.001 7s-7 10.334 -7 17.001v68
c0 6.66699 2.33301 12.334 7 17.001s10.334 7 17.001 7h350c17.333 0 26 -8 26 -24v-68c0 -16 -8.66699 -24 -26 -24h-114v-468h114c17.333 0 26 -8 26 -24zM255 871.996v-72c0 -14.667 -7.66699 -22 -23 -22h-69c-6 0 -11 2 -15 6s-6 9.33301 -6 16v72c0 6.66699 2 12 6 16
s9 6 15 6h69c15.333 0 23 -7.33301 23 -22zM457 871.996v-72c0 -14.667 -7.66699 -22 -23 -22h-68c-14.667 0 -22 7.33301 -22 22v72c0 14.667 7.33301 22 22 22h68c15.333 0 23 -7.33301 23 -22z" />
    <glyph glyph-name="Eth" unicode="&#xd0;" 
d="M324 0l-169 -0.00195312c-8.66699 0 -15.834 2.83301 -21.501 8.5s-8.5 12.834 -8.5 21.501v278h-37c-6.66699 0 -12.334 2.33301 -17.001 7s-7 10.334 -7 17.001v65c0 7.33301 2.33301 13.166 7 17.499s10.334 6.5 17.001 6.5h37v249
c0 8.66699 2.83301 15.834 8.5 21.501s12.834 8.5 21.501 8.5h169c54 0 100 -19 138 -57s57 -84 57 -138v-310c0 -54 -19 -100 -57 -138s-84 -57 -138 -57zM395 189.998v319c0 20.667 -7.16699 38.167 -21.5 52.5s-31.833 21.5 -52.5 21.5h-76v-162h55
c17.333 0 26 -8 26 -24v-65c0 -16 -8.66699 -24 -26 -24h-55v-191h76c20.667 0 38.167 7 52.5 21s21.5 31.333 21.5 52z" />
    <glyph glyph-name="Ntilde" unicode="&#xd1;" 
d="M97 30v640c0 8.66699 3 15.834 9 21.501s13.333 8.5 22 8.5h59c22.667 0 38 -10 46 -30l118 -305l39 -126h6l-7 130v301c0 8.66699 2.83301 15.834 8.5 21.501s12.834 8.5 21.501 8.5h54c8.66699 0 15.834 -2.83301 21.501 -8.5s8.5 -12.834 8.5 -21.501v-640
c0 -8.66699 -3 -15.834 -9 -21.501s-13.333 -8.5 -22 -8.5h-59c-22.667 0 -38 10 -46 30l-117 301l-40 129h-6l7 -130v-300c0 -8.66699 -2.83301 -15.834 -8.5 -21.501s-12.834 -8.5 -21.501 -8.5h-54c-8.66699 0 -15.834 2.83301 -21.501 8.5s-8.5 12.834 -8.5 21.501z
M227 889c18.667 0 40.167 -6.16699 64.5 -18.5s40.166 -18.5 47.499 -18.5c6.66699 0 12.334 1.83301 17.001 5.5s7.66699 7.16699 9 10.5c4.66699 13.333 11.334 20 20.001 20h72c6 0 11 -2.16699 15 -6.5s6 -9.5 6 -15.5c0 -28.667 -10 -55.5 -30 -80.5
s-45.333 -37.5 -76 -37.5c-18.667 0 -40.167 6.16699 -64.5 18.5s-40.166 18.5 -47.499 18.5c-6.66699 0 -12.334 -1.83301 -17.001 -5.5s-7.66699 -7.16699 -9 -10.5c-4.66699 -13.333 -11.334 -20 -20.001 -20h-72c-6 0 -11 2.16699 -15 6.5s-6 9.5 -6 15.5
c0 28.667 10 55.5 30 80.5s45.333 37.5 76 37.5z" />
    <glyph glyph-name="Ograve" unicode="&#xd2;" 
d="M507 514v-328c0 -54 -19.833 -100.167 -59.5 -138.5s-88.834 -57.5 -147.501 -57.5s-108 19.333 -148 58s-60 85 -60 139v327c0 54 20 100.167 60 138.5s89.333 57.5 148 57.5s107.834 -19.167 147.501 -57.5s59.5 -84.5 59.5 -138.5zM388 180v340.001
c0 20.667 -8.66699 38.667 -26 54s-38 23 -62 23s-44.667 -7.66699 -62 -23s-26 -33.333 -26 -54v-339c0 -20.667 8.66699 -38.834 26 -54.501s38 -23.5 62 -23.5s44.667 7.66699 62 23s26 33.333 26 54zM333 755.001l-49.998 -0.000976562
c-14.667 0 -31.334 8.66699 -50.001 26l-94 92c-6.66699 6.66699 -10 13 -10 19c0 12 7.66699 18 23 18h69c23.333 0 40.666 -8 51.999 -24l73 -94c6.66699 -9.33301 10 -16.666 10 -21.999c0 -10 -7.66699 -15 -23 -15z" />
    <glyph glyph-name="Oacute" unicode="&#xd3;" 
d="M507 514v-328c0 -54 -19.833 -100.167 -59.5 -138.5s-88.834 -57.5 -147.501 -57.5s-108 19.333 -148 58s-60 85 -60 139v327c0 54 20 100.167 60 138.5s89.333 57.5 148 57.5s107.834 -19.167 147.501 -57.5s59.5 -84.5 59.5 -138.5zM388 180v340.001
c0 20.667 -8.66699 38.667 -26 54s-38 23 -62 23s-44.667 -7.66699 -62 -23s-26 -33.333 -26 -54v-339c0 -20.667 8.66699 -38.834 26 -54.501s38 -23.5 62 -23.5s44.667 7.66699 62 23s26 33.333 26 54zM308 755.001l-49.998 0.000976562c-15.333 0 -23 5 -23 15
c0 5.33301 3.33301 12.666 10 21.999l73 94c11.333 16 28.666 24 51.999 24h69c15.333 0 23 -6 23 -18c0 -6 -3.33301 -12.333 -10 -19l-94 -92c-18.667 -17.333 -35.334 -26 -50.001 -26z" />
    <glyph glyph-name="Ocircumflex" unicode="&#xd4;" 
d="M507 514v-328c0 -54 -19.833 -100.167 -59.5 -138.5s-88.834 -57.5 -147.501 -57.5s-108 19.333 -148 58s-60 85 -60 139v327c0 54 20 100.167 60 138.5s89.333 57.5 148 57.5s107.834 -19.167 147.501 -57.5s59.5 -84.5 59.5 -138.5zM388 180v340.001
c0 20.667 -8.66699 38.667 -26 54s-38 23 -62 23s-44.667 -7.66699 -62 -23s-26 -33.333 -26 -54v-339c0 -20.667 8.66699 -38.834 26 -54.501s38 -23.5 62 -23.5s44.667 7.66699 62 23s26 33.333 26 54zM439 755.001h-54c-20 0 -35.667 7.66699 -47 23l-38 51l-37 -51
c-12 -15.333 -28 -23 -48 -23h-54c-16.667 0 -25 5.33301 -25 16c0 6.66699 2.66699 12.667 8 18l81 95c14.667 17.333 31.667 26 51 26h48c19.333 0 36.333 -8.66699 51 -26l81 -95c5.33301 -6.66699 8 -12.667 8 -18c0 -10.667 -8.33301 -16 -25 -16z" />
    <glyph glyph-name="Otilde" unicode="&#xd5;" 
d="M507 514v-328c0 -54 -19.833 -100.167 -59.5 -138.5s-88.834 -57.5 -147.501 -57.5s-108 19.333 -148 58s-60 85 -60 139v327c0 54 20 100.167 60 138.5s89.333 57.5 148 57.5s107.834 -19.167 147.501 -57.5s59.5 -84.5 59.5 -138.5zM388 180v340.001
c0 20.667 -8.66699 38.667 -26 54s-38 23 -62 23s-44.667 -7.66699 -62 -23s-26 -33.333 -26 -54v-339c0 -20.667 8.66699 -38.834 26 -54.501s38 -23.5 62 -23.5s44.667 7.66699 62 23s26 33.333 26 54zM227 889.001c18.667 0 40.167 -6.16699 64.5 -18.5
s40.166 -18.5 47.499 -18.5c6.66699 0 12.334 1.83301 17.001 5.5s7.66699 7.16699 9 10.5c4.66699 13.333 11.334 20 20.001 20h72c6 0 11 -2.16699 15 -6.5s6 -9.5 6 -15.5c0 -28.667 -10 -55.5 -30 -80.5s-45.333 -37.5 -76 -37.5c-18.667 0 -40.167 6.16699 -64.5 18.5
s-40.166 18.5 -47.499 18.5c-6.66699 0 -12.334 -1.83301 -17.001 -5.5s-7.66699 -7.16699 -9 -10.5c-4.66699 -13.333 -11.334 -20 -20.001 -20h-72c-6 0 -11 2.16699 -15 6.5s-6 9.5 -6 15.5c0 28.667 10 55.5 30 80.5s45.333 37.5 76 37.5z" />
    <glyph glyph-name="Odieresis" unicode="&#xd6;" 
d="M507 514v-328c0 -54 -19.833 -100.167 -59.5 -138.5s-88.834 -57.5 -147.501 -57.5s-108 19.333 -148 58s-60 85 -60 139v327c0 54 20 100.167 60 138.5s89.333 57.5 148 57.5s107.834 -19.167 147.501 -57.5s59.5 -84.5 59.5 -138.5zM388 180v340.001
c0 20.667 -8.66699 38.667 -26 54s-38 23 -62 23s-44.667 -7.66699 -62 -23s-26 -33.333 -26 -54v-339c0 -20.667 8.66699 -38.834 26 -54.501s38 -23.5 62 -23.5s44.667 7.66699 62 23s26 33.333 26 54zM255 872.001v-72c0 -14.667 -7.66699 -22 -23 -22h-69
c-6 0 -11 2 -15 6s-6 9.33301 -6 16v72c0 6.66699 2 12 6 16s9 6 15 6h69c15.333 0 23 -7.33301 23 -22zM457 872.001v-72c0 -14.667 -7.66699 -22 -23 -22h-68c-14.667 0 -22 7.33301 -22 22v72c0 14.667 7.33301 22 22 22h68c15.333 0 23 -7.33301 23 -22z" />
    <glyph glyph-name="multiply" unicode="&#xd7;" 
d="M121 431l51.002 51.001c10.667 10.667 21.334 10.334 32.001 -0.999023l112 -112l113 113c11.333 11.333 21.666 11.666 30.999 0.999023l52 -51c9.33301 -10.667 8.66602 -21.334 -2.00098 -32.001l-113 -113l113 -112c10.667 -10 10.667 -20.333 0 -31l-51 -51
c-10 -10 -20.333 -9.66699 -31 1l-112 112l-113 -113c-10 -10 -20.333 -10.333 -31 -1l-51 52c-10.667 9.33301 -10.334 19.333 0.999023 30l113 113l-113 113c-10.667 10.667 -11 21 -1 31z" />
    <glyph glyph-name="Oslash" unicode="&#xd8;" 
d="M487 724l41.999 -24.001c6.66699 -4.66699 10 -10.334 10 -17.001c0 -5.33301 -1.33301 -9.66602 -4 -12.999l-43 -74c13.333 -25.333 20 -52.666 20 -81.999v-328c0 -54 -20.5 -100.167 -61.5 -138.5s-91.167 -57.5 -150.5 -57.5c-48.667 0 -93 14 -133 42l-27 -47
c-5.33301 -8 -11.666 -12 -18.999 -12c-3.33301 0 -6.66602 1 -9.99902 3l-42 24c-6.66699 4 -10 10 -10 18c0 4 1 8 3 12l43 74c-13.333 25.333 -20 53 -20 83v327c0 54 21 100.167 63 138.5s92.667 57.5 152 57.5c48.667 0 92.334 -14 131.001 -42l27 47
c5.33301 8 11.666 12 18.999 12c3.33301 0 6.66602 -1 9.99902 -3zM393.999 179.999v257.999l-27 -61l-141 -243c19.333 -21.333 44 -32 74 -32c24.667 0 46.5 7.83301 65.5 23.5s28.5 33.834 28.5 54.501zM203.999 519.998l0.000976562 -257.999l26 58l142 247
c-18.667 20.667 -42.667 31 -72 31c-24.667 0 -46.834 -7.83301 -66.501 -23.5s-29.5 -33.834 -29.5 -54.501z" />
    <glyph glyph-name="Ugrave" unicode="&#xd9;" 
d="M507 670l-0.00292969 -483.999c0 -54 -19.833 -100.167 -59.5 -138.5s-88.834 -57.5 -147.501 -57.5s-108 19.333 -148 58s-60 85 -60 139v483c0 8.66699 2.83301 15.834 8.5 21.501s12.834 8.5 21.501 8.5h59c8.66699 0 15.834 -2.83301 21.501 -8.5
s8.5 -12.834 8.5 -21.501v-489c0 -20.667 8.83301 -38.834 26.5 -54.501s38.5 -23.5 62.5 -23.5s44.667 7.66699 62 23s26 33.333 26 54v490c0 8.66699 2.83301 15.834 8.5 21.501s12.834 8.5 21.501 8.5h59c8.66699 0 15.834 -2.83301 21.501 -8.5s8.5 -12.834 8.5 -21.501
zM341.997 755.001l-49.998 -0.000976562c-14.667 0 -31.334 8.66699 -50.001 26l-94 92c-6.66699 6.66699 -10 13 -10 19c0 12 7.66699 18 23 18h69c23.333 0 40.666 -8 51.999 -24l73 -94c6.66699 -9.33301 10 -16.666 10 -21.999c0 -10 -7.66699 -15 -23 -15z" />
    <glyph glyph-name="Uacute" unicode="&#xda;" 
d="M507 670l-0.00292969 -483.999c0 -54 -19.833 -100.167 -59.5 -138.5s-88.834 -57.5 -147.501 -57.5s-108 19.333 -148 58s-60 85 -60 139v483c0 8.66699 2.83301 15.834 8.5 21.501s12.834 8.5 21.501 8.5h59c8.66699 0 15.834 -2.83301 21.501 -8.5
s8.5 -12.834 8.5 -21.501v-489c0 -20.667 8.83301 -38.834 26.5 -54.501s38.5 -23.5 62.5 -23.5s44.667 7.66699 62 23s26 33.333 26 54v490c0 8.66699 2.83301 15.834 8.5 21.501s12.834 8.5 21.501 8.5h59c8.66699 0 15.834 -2.83301 21.501 -8.5s8.5 -12.834 8.5 -21.501
zM314.997 755.001l-49.998 0.000976562c-15.333 0 -23 5 -23 15c0 5.33301 3.33301 12.666 10 21.999l73 94c11.333 16 28.666 24 51.999 24h69c15.333 0 23 -6 23 -18c0 -6 -3.33301 -12.333 -10 -19l-94 -92c-18.667 -17.333 -35.334 -26 -50.001 -26z" />
    <glyph glyph-name="Ucircumflex" unicode="&#xdb;" 
d="M507 670l-0.00292969 -483.999c0 -54 -19.833 -100.167 -59.5 -138.5s-88.834 -57.5 -147.501 -57.5s-108 19.333 -148 58s-60 85 -60 139v483c0 8.66699 2.83301 15.834 8.5 21.501s12.834 8.5 21.501 8.5h59c8.66699 0 15.834 -2.83301 21.501 -8.5
s8.5 -12.834 8.5 -21.501v-489c0 -20.667 8.83301 -38.834 26.5 -54.501s38.5 -23.5 62.5 -23.5s44.667 7.66699 62 23s26 33.333 26 54v490c0 8.66699 2.83301 15.834 8.5 21.501s12.834 8.5 21.501 8.5h59c8.66699 0 15.834 -2.83301 21.501 -8.5s8.5 -12.834 8.5 -21.501
zM438.997 755.001h-54c-20 0 -35.667 7.66699 -47 23l-38 51l-37 -51c-12 -15.333 -28 -23 -48 -23h-54c-16.667 0 -25 5.33301 -25 16c0 6.66699 2.66699 12.667 8 18l81 95c14.667 17.333 31.667 26 51 26h48c19.333 0 36.333 -8.66699 51 -26l81 -95
c5.33301 -6.66699 8 -12.667 8 -18c0 -10.667 -8.33301 -16 -25 -16z" />
    <glyph glyph-name="Udieresis" unicode="&#xdc;" 
d="M507 670l-0.00292969 -483.999c0 -54 -19.833 -100.167 -59.5 -138.5s-88.834 -57.5 -147.501 -57.5s-108 19.333 -148 58s-60 85 -60 139v483c0 8.66699 2.83301 15.834 8.5 21.501s12.834 8.5 21.501 8.5h59c8.66699 0 15.834 -2.83301 21.501 -8.5
s8.5 -12.834 8.5 -21.501v-489c0 -20.667 8.83301 -38.834 26.5 -54.501s38.5 -23.5 62.5 -23.5s44.667 7.66699 62 23s26 33.333 26 54v490c0 8.66699 2.83301 15.834 8.5 21.501s12.834 8.5 21.501 8.5h59c8.66699 0 15.834 -2.83301 21.501 -8.5s8.5 -12.834 8.5 -21.501
zM254.997 872.001v-72c0 -14.667 -7.66699 -22 -23 -22h-69c-6 0 -11 2 -15 6s-6 9.33301 -6 16v72c0 6.66699 2 12 6 16s9 6 15 6h69c15.333 0 23 -7.33301 23 -22zM456.997 872.001v-72c0 -14.667 -7.66699 -22 -23 -22h-68c-14.667 0 -22 7.33301 -22 22v72
c0 14.667 7.33301 22 22 22h68c15.333 0 23 -7.33301 23 -22z" />
    <glyph glyph-name="Yacute" unicode="&#xdd;" 
d="M361 328v-298c0 -8.66699 -2.83301 -15.834 -8.5 -21.501s-12.834 -8.5 -21.501 -8.5h-62c-8.66699 0 -15.834 2.83301 -21.501 8.5s-8.5 12.834 -8.5 21.501v298l-160 337c-3.33301 8.66699 -5 14 -5 16c0 12.667 8.66699 19 26 19h65
c20.667 0 35.334 -9.66699 44.001 -29l91 -211l91 211c8.66699 19.333 23.334 29 44.001 29h65c17.333 0 26 -6.33301 26 -19c0 -2 -1.66699 -7.33301 -5 -16zM317 755l-49.998 0.000976562c-15.333 0 -23 5 -23 15c0 5.33301 3.33301 12.666 10 21.999l73 94
c11.333 16 28.666 24 51.999 24h69c15.333 0 23 -6 23 -18c0 -6 -3.33301 -12.333 -10 -19l-94 -92c-18.667 -17.333 -35.334 -26 -50.001 -26z" />
    <glyph glyph-name="Thorn" unicode="&#xde;" 
d="M246 671v-65h90c46.667 0 86.5 -16.333 119.5 -49s49.5 -72.667 49.5 -120v-134c0 -48 -16.333 -88.333 -49 -121s-72.667 -49 -120 -49h-90v-103c0 -8.66699 -2.83301 -15.834 -8.5 -21.501s-12.834 -8.5 -21.501 -8.5h-59c-8.66699 0 -15.834 2.83301 -21.501 8.5
s-8.5 12.834 -8.5 21.501v641c0 8.66699 2.83301 15.834 8.5 21.501s12.834 8.5 21.501 8.5h59c8.66699 0 15.834 -2.83301 21.501 -8.5s8.5 -12.834 8.5 -21.501zM382 295v147c0 13.333 -4.83301 24.5 -14.5 33.5s-21.5 13.5 -35.5 13.5h-84v-240h84
c14 0 25.833 4.5 35.5 13.5s14.5 19.833 14.5 32.5z" />
    <glyph glyph-name="germandbls" unicode="&#xdf;" 
d="M238 136c0 8.66699 2.82715 15.8291 8.49414 21.4961s12.834 8.5 21.501 8.5h56c8.66699 0 15.834 -2.83301 21.501 -8.5s8.5 -12.834 8.5 -21.501c0 -7.33301 4 -15.166 12 -23.499s17.667 -12.5 29 -12.5c14 0 25.5 4.33301 34.5 13s13.5 19 13.5 31
c0 13.333 -5.33301 26.833 -16 40.5s-23.5 26.834 -38.5 39.501s-30.167 26.334 -45.5 41.001s-28.333 33 -39 55s-16 46 -16 72c0 31.333 9 58.5 27 81.5s41.667 39.167 71 48.5c0 22.667 -8.66699 42.167 -26 58.5s-39.666 24.5 -66.999 24.5
c-29.333 0 -52.166 -9.5 -68.499 -28.5s-24.5 -46.5 -24.5 -82.5v-467c0 -7.33301 -2.66699 -13.666 -8 -18.999s-11.666 -8 -18.999 -8h-64c-7.33301 0 -13.666 2.66699 -18.999 8s-8 11.666 -8 18.999v462c0 69.333 19 123.5 57 162.5s89.333 58.5 154 58.5
c60 0 110.667 -18.5 152 -55.5s62 -79.5 62 -127.5v-32c0 -11.333 -3.5 -21.166 -10.5 -29.499s-15.5 -13.833 -25.5 -16.5c-20 -5.33301 -36 -13.5 -48 -24.5s-18 -23.5 -18 -37.5c0 -13.333 8 -28.166 24 -44.499s33.667 -31.833 53 -46.5s37 -35.167 53 -61.5
s24 -54.833 24 -85.5c0 -44 -16.167 -81.333 -48.5 -112s-72.5 -46 -120.5 -46c-44 0 -80.333 15 -109 45s-43 63.333 -43 100z" />
    <glyph glyph-name="agrave" unicode="&#xe0;" 
d="M281 88c24 0 45.667 7.16699 65 21.5s29 29.5 29 45.5v63l-96 -8c-18.667 -1.33301 -34 -7.5 -46 -18.5s-18 -24.833 -18 -41.5c0 -17.333 6 -32 18 -44s28 -18 48 -18zM126 378c0 28.667 16.332 57.834 48.999 87.501s75.667 44.5 129 44.5
c59.333 0 105.833 -16.167 139.5 -48.5s50.5 -73.166 50.5 -122.499v-312c0 -7.33301 -2.66699 -13.666 -8 -18.999s-11.666 -8 -18.999 -8h-55c-7.33301 0 -13.666 2.66699 -18.999 8s-8 11.666 -8 18.999v15c-3.33301 -4 -8 -8.83301 -14 -14.5
s-19.833 -13.167 -41.5 -22.5s-44.834 -14 -69.501 -14c-46.667 0 -86 14.833 -118 44.5s-48 67.167 -48 112.5s17.5 81.5 52.5 108.5s79.167 42.5 132.5 46.5l96 8v21c0 25.333 -7 44.166 -21 56.499s-30.667 18.5 -50 18.5c-26.667 0 -45 -10 -55 -30
c-8.66699 -17.333 -20.334 -26 -35.001 -26h-61c-7.33301 0 -13.666 2.66699 -18.999 8s-8 11.666 -8 18.999zM339.999 555l-49.998 -0.000976562c-14.667 0 -31.334 8.66699 -50.001 26l-94 92c-6.66699 6.66699 -10 13 -10 19c0 12 7.66699 18 23 18h69
c23.333 0 40.666 -8 51.999 -24l73 -94c6.66699 -9.33301 10 -16.666 10 -21.999c0 -10 -7.66699 -15 -23 -15z" />
    <glyph glyph-name="aacute" unicode="&#xe1;" 
d="M281 88c24 0 45.667 7.16699 65 21.5s29 29.5 29 45.5v63l-96 -8c-18.667 -1.33301 -34 -7.5 -46 -18.5s-18 -24.833 -18 -41.5c0 -17.333 6 -32 18 -44s28 -18 48 -18zM126 378c0 28.667 16.332 57.834 48.999 87.501s75.667 44.5 129 44.5
c59.333 0 105.833 -16.167 139.5 -48.5s50.5 -73.166 50.5 -122.499v-312c0 -7.33301 -2.66699 -13.666 -8 -18.999s-11.666 -8 -18.999 -8h-55c-7.33301 0 -13.666 2.66699 -18.999 8s-8 11.666 -8 18.999v15c-3.33301 -4 -8 -8.83301 -14 -14.5
s-19.833 -13.167 -41.5 -22.5s-44.834 -14 -69.501 -14c-46.667 0 -86 14.833 -118 44.5s-48 67.167 -48 112.5s17.5 81.5 52.5 108.5s79.167 42.5 132.5 46.5l96 8v21c0 25.333 -7 44.166 -21 56.499s-30.667 18.5 -50 18.5c-26.667 0 -45 -10 -55 -30
c-8.66699 -17.333 -20.334 -26 -35.001 -26h-61c-7.33301 0 -13.666 2.66699 -18.999 8s-8 11.666 -8 18.999zM322.999 555l-49.998 0.000976562c-15.333 0 -23 5 -23 15c0 5.33301 3.33301 12.666 10 21.999l73 94c11.333 16 28.666 24 51.999 24h69c15.333 0 23 -6 23 -18
c0 -6 -3.33301 -12.333 -10 -19l-94 -92c-18.667 -17.333 -35.334 -26 -50.001 -26z" />
    <glyph glyph-name="acircumflex" unicode="&#xe2;" 
d="M281 88c24 0 45.667 7.16699 65 21.5s29 29.5 29 45.5v63l-96 -8c-18.667 -1.33301 -34 -7.5 -46 -18.5s-18 -24.833 -18 -41.5c0 -17.333 6 -32 18 -44s28 -18 48 -18zM126 378c0 28.667 16.332 57.834 48.999 87.501s75.667 44.5 129 44.5
c59.333 0 105.833 -16.167 139.5 -48.5s50.5 -73.166 50.5 -122.499v-312c0 -7.33301 -2.66699 -13.666 -8 -18.999s-11.666 -8 -18.999 -8h-55c-7.33301 0 -13.666 2.66699 -18.999 8s-8 11.666 -8 18.999v15c-3.33301 -4 -8 -8.83301 -14 -14.5
s-19.833 -13.167 -41.5 -22.5s-44.834 -14 -69.501 -14c-46.667 0 -86 14.833 -118 44.5s-48 67.167 -48 112.5s17.5 81.5 52.5 108.5s79.167 42.5 132.5 46.5l96 8v21c0 25.333 -7 44.166 -21 56.499s-30.667 18.5 -50 18.5c-26.667 0 -45 -10 -55 -30
c-8.66699 -17.333 -20.334 -26 -35.001 -26h-61c-7.33301 0 -13.666 2.66699 -18.999 8s-8 11.666 -8 18.999zM445.999 555h-54c-20 0 -35.667 7.66699 -47 23l-38 51l-37 -51c-12 -15.333 -28 -23 -48 -23h-54c-16.667 0 -25 5.33301 -25 16c0 6.66699 2.66699 12.667 8 18
l81 95c14.667 17.333 31.667 26 51 26h48c19.333 0 36.333 -8.66699 51 -26l81 -95c5.33301 -6.66699 8 -12.667 8 -18c0 -10.667 -8.33301 -16 -25 -16z" />
    <glyph glyph-name="atilde" unicode="&#xe3;" 
d="M281 88c24 0 45.667 7.16699 65 21.5s29 29.5 29 45.5v63l-96 -8c-18.667 -1.33301 -34 -7.5 -46 -18.5s-18 -24.833 -18 -41.5c0 -17.333 6 -32 18 -44s28 -18 48 -18zM126 378c0 28.667 16.332 57.834 48.999 87.501s75.667 44.5 129 44.5
c59.333 0 105.833 -16.167 139.5 -48.5s50.5 -73.166 50.5 -122.499v-312c0 -7.33301 -2.66699 -13.666 -8 -18.999s-11.666 -8 -18.999 -8h-55c-7.33301 0 -13.666 2.66699 -18.999 8s-8 11.666 -8 18.999v15c-3.33301 -4 -8 -8.83301 -14 -14.5
s-19.833 -13.167 -41.5 -22.5s-44.834 -14 -69.501 -14c-46.667 0 -86 14.833 -118 44.5s-48 67.167 -48 112.5s17.5 81.5 52.5 108.5s79.167 42.5 132.5 46.5l96 8v21c0 25.333 -7 44.166 -21 56.499s-30.667 18.5 -50 18.5c-26.667 0 -45 -10 -55 -30
c-8.66699 -17.333 -20.334 -26 -35.001 -26h-61c-7.33301 0 -13.666 2.66699 -18.999 8s-8 11.666 -8 18.999zM234.999 689c18.667 0 40.167 -6.16699 64.5 -18.5s40.166 -18.5 47.499 -18.5c6.66699 0 12.334 1.83301 17.001 5.5s7.66699 7.16699 9 10.5
c4.66699 13.333 11.334 20 20.001 20h72c6 0 11 -2.16699 15 -6.5s6 -9.5 6 -15.5c0 -28.667 -10 -55.5 -30 -80.5s-45.333 -37.5 -76 -37.5c-18.667 0 -40.167 6.16699 -64.5 18.5s-40.166 18.5 -47.499 18.5c-6.66699 0 -12.334 -1.83301 -17.001 -5.5
s-7.66699 -7.16699 -9 -10.5c-4.66699 -13.333 -11.334 -20 -20.001 -20h-72c-6 0 -11 2.16699 -15 6.5s-6 9.5 -6 15.5c0 28.667 10 55.5 30 80.5s45.333 37.5 76 37.5z" />
    <glyph glyph-name="adieresis" unicode="&#xe4;" 
d="M281 88c24 0 45.667 7.16699 65 21.5s29 29.5 29 45.5v63l-96 -8c-18.667 -1.33301 -34 -7.5 -46 -18.5s-18 -24.833 -18 -41.5c0 -17.333 6 -32 18 -44s28 -18 48 -18zM126 378c0 28.667 16.332 57.834 48.999 87.501s75.667 44.5 129 44.5
c59.333 0 105.833 -16.167 139.5 -48.5s50.5 -73.166 50.5 -122.499v-312c0 -7.33301 -2.66699 -13.666 -8 -18.999s-11.666 -8 -18.999 -8h-55c-7.33301 0 -13.666 2.66699 -18.999 8s-8 11.666 -8 18.999v15c-3.33301 -4 -8 -8.83301 -14 -14.5
s-19.833 -13.167 -41.5 -22.5s-44.834 -14 -69.501 -14c-46.667 0 -86 14.833 -118 44.5s-48 67.167 -48 112.5s17.5 81.5 52.5 108.5s79.167 42.5 132.5 46.5l96 8v21c0 25.333 -7 44.166 -21 56.499s-30.667 18.5 -50 18.5c-26.667 0 -45 -10 -55 -30
c-8.66699 -17.333 -20.334 -26 -35.001 -26h-61c-7.33301 0 -13.666 2.66699 -18.999 8s-8 11.666 -8 18.999zM261.999 672v-72c0 -14.667 -7.66699 -22 -23 -22h-69c-6 0 -11 2 -15 6s-6 9.33301 -6 16v72c0 6.66699 2 12 6 16s9 6 15 6h69c15.333 0 23 -7.33301 23 -22z
M463.999 672v-72c0 -14.667 -7.66699 -22 -23 -22h-68c-14.667 0 -22 7.33301 -22 22v72c0 14.667 7.33301 22 22 22h68c15.333 0 23 -7.33301 23 -22z" />
    <glyph glyph-name="aring" unicode="&#xe5;" 
d="M281 88c24 0 45.667 7.16699 65 21.5s29 29.5 29 45.5v63l-96 -8c-18.667 -1.33301 -34 -7.5 -46 -18.5s-18 -24.833 -18 -41.5c0 -17.333 6 -32 18 -44s28 -18 48 -18zM126 378c0 28.667 16.332 57.834 48.999 87.501s75.667 44.5 129 44.5
c59.333 0 105.833 -16.167 139.5 -48.5s50.5 -73.166 50.5 -122.499v-312c0 -7.33301 -2.66699 -13.666 -8 -18.999s-11.666 -8 -18.999 -8h-55c-7.33301 0 -13.666 2.66699 -18.999 8s-8 11.666 -8 18.999v15c-3.33301 -4 -8 -8.83301 -14 -14.5
s-19.833 -13.167 -41.5 -22.5s-44.834 -14 -69.501 -14c-46.667 0 -86 14.833 -118 44.5s-48 67.167 -48 112.5s17.5 81.5 52.5 108.5s79.167 42.5 132.5 46.5l96 8v21c0 25.333 -7 44.166 -21 56.499s-30.667 18.5 -50 18.5c-26.667 0 -45 -10 -55 -30
c-8.66699 -17.333 -20.334 -26 -35.001 -26h-61c-7.33301 0 -13.666 2.66699 -18.999 8s-8 11.666 -8 18.999zM190.999 643c0 31.333 11.5 56.168 34.5 74.501s52.5 27.5 88.5 27.5c35.333 0 64.333 -9.16699 87 -27.5s34 -43.166 34 -74.499
c0 -30.667 -11.333 -55.334 -34 -74.001s-51.667 -28 -87 -28c-36 0 -65.5 9.16699 -88.5 27.5s-34.5 43.166 -34.5 74.499zM271.999 644.002c0 -10.667 3.83301 -19.666 11.5 -26.999s17.834 -11 30.501 -11c11.333 0 20.833 3.66699 28.5 11s11.5 16.333 11.5 27
c0 10 -3.83301 19 -11.5 27s-17.167 12 -28.5 12c-12.667 0 -22.834 -3.83301 -30.501 -11.5s-11.5 -16.834 -11.5 -27.501z" />
    <glyph glyph-name="ae" unicode="&#xe6;" 
d="M181 93c20.667 0 37.667 6.16602 51 18.499s20 25.833 20 40.5v57h-60c-16 0 -30 -5.66699 -42 -17s-18 -25.666 -18 -42.999c0 -14.667 4.5 -27.667 13.5 -39s20.833 -17 35.5 -17zM414 405.999c-16 0 -29.333 -5.5 -40 -16.5s-16 -25.5 -16 -43.5v-37h108v33
c0 18.667 -4.66699 34 -14 46s-22 18 -38 18zM414 -9.00098c-25.333 0 -47.665 4.50293 -66.998 13.5029s-32.333 17.833 -39 26.5l-10 13c-2.66699 -4 -6.83398 -9 -12.501 -15s-18.334 -14 -38.001 -24s-41.167 -15 -64.5 -15c-46 0 -83.5 15.333 -112.5 46
s-43.5 70.667 -43.5 120c0 45.333 16 82.166 48 110.499s69.667 42.5 113 42.5h64v32c0 19.333 -4.66699 35.166 -14 47.499s-21 18.5 -35 18.5c-21.333 0 -36 -10 -44 -30c-6 -17.333 -17.667 -26 -35 -26h-48c-7.33301 0 -13.666 2.66699 -18.999 8s-8 11.666 -8 18.999
c0 30 13.167 59.5 39.5 88.5s64.5 43.5 114.5 43.5c42 0 77.333 -13.333 106 -40c30.667 26 66 39 106 39c45.333 0 82.666 -16.5 111.999 -49.5s44 -73.5 44 -121.5v-97c0 -8 -3.16699 -15.333 -9.5 -22s-13.833 -10 -22.5 -10h-181v-49c0 -18.667 5 -34.334 15 -47.001
s23.667 -19 41 -19c25.333 0 41 10 47 30c4.66699 17.333 16.334 26 35.001 26h45c7.33301 0 13.666 -2.66699 18.999 -8s8 -11.666 8 -18.999c0 -30 -13.167 -59.5 -39.5 -88.5s-64.5 -43.5 -114.5 -43.5z" />
    <glyph glyph-name="ccedilla" unicode="&#xe7;" 
d="M240 -68l-0.00195312 64.999c-43.333 9.33301 -78.166 29.333 -104.499 60s-39.5 67 -39.5 109v165c0 52 18.667 94.833 56 128.5s85.666 50.5 144.999 50.5c34.667 0 65.667 -6 93 -18s48.333 -26.667 63 -44s25.667 -34.666 33 -51.999s11 -32.666 11 -45.999
c0 -7.33301 -2.66699 -13.666 -8 -18.999s-11.666 -8 -18.999 -8h-64c-18.667 0 -30.334 8.66699 -35.001 26c-2 6 -4.83301 12.5 -8.5 19.5s-11.5 15 -23.5 24s-26 13.5 -42 13.5c-21.333 0 -39.166 -7 -53.499 -21s-21.5 -31.667 -21.5 -53v-165
c0 -21.333 7.16699 -38.833 21.5 -52.5s32.5 -20.5 54.5 -20.5c18 0 33.167 4.83301 45.5 14.5s20 18.167 23 25.5s5.16699 14.333 6.5 21c3.33301 17.333 15.333 26 36 26h64c7.33301 0 13.666 -2.66699 18.999 -8s8 -11.666 8 -18.999c0 -12.667 -3 -26.834 -9 -42.501
s-15.167 -32.334 -27.5 -50.001s-30.666 -33 -54.999 -46s-52.166 -20.833 -83.499 -23.5v-17c21.333 -2 39.5 -10.833 54.5 -26.5s22.5 -33.834 22.5 -54.501c0 -24 -8.33301 -44 -25 -60s-36.667 -24 -60 -24h-67c-5.33301 0 -10 2 -14 6s-6 8.66699 -6 14v23
c0 5.33301 2 10 6 14s8.66699 6 14 6h42c5.33301 0 10 1.83301 14 5.5s6 8.5 6 14.5c0 5.33301 -2 9.83301 -6 13.5s-8.66699 5.5 -14 5.5h-32c-5.33301 0 -10 2 -14 6s-6 8.66699 -6 14z" />
    <glyph glyph-name="egrave" unicode="&#xe8;" 
d="M223 338v-29h155v29c0 18 -7.5 34.167 -22.5 48.5s-33.5 21.5 -55.5 21.5c-20.667 0 -38.667 -7.33301 -54 -22s-23 -30.667 -23 -48zM299 -9c-58.667 0 -107 17 -145 51s-57 75.333 -57 124v168c0 48.667 19.167 90.167 57.5 124.5s86.833 51.5 145.5 51.5
s107 -16.667 145 -50s57 -74 57 -122v-91c0 -9.33301 -3.33301 -17.166 -10 -23.499s-15 -9.5 -25 -9.5h-244v-50c0 -18 7.33301 -34.167 22 -48.5s32.667 -21.5 54 -21.5c22 0 38.833 3.83301 50.5 11.5s18.5 15.167 20.5 22.5c4 14.667 15 22 33 22h63c18 0 27 -9 27 -27
c0 -28.667 -17.667 -57.834 -53 -87.501s-82.333 -44.5 -141 -44.5zM332 555l-49.998 -0.000976562c-14.667 0 -31.334 8.66699 -50.001 26l-94 92c-6.66699 6.66699 -10 13 -10 19c0 12 7.66699 18 23 18h69c23.333 0 40.666 -8 51.999 -24l73 -94
c6.66699 -9.33301 10 -16.666 10 -21.999c0 -10 -7.66699 -15 -23 -15z" />
    <glyph glyph-name="eacute" unicode="&#xe9;" 
d="M223 338v-29h155v29c0 18 -7.5 34.167 -22.5 48.5s-33.5 21.5 -55.5 21.5c-20.667 0 -38.667 -7.33301 -54 -22s-23 -30.667 -23 -48zM299 -9c-58.667 0 -107 17 -145 51s-57 75.333 -57 124v168c0 48.667 19.167 90.167 57.5 124.5s86.833 51.5 145.5 51.5
s107 -16.667 145 -50s57 -74 57 -122v-91c0 -9.33301 -3.33301 -17.166 -10 -23.499s-15 -9.5 -25 -9.5h-244v-50c0 -18 7.33301 -34.167 22 -48.5s32.667 -21.5 54 -21.5c22 0 38.833 3.83301 50.5 11.5s18.5 15.167 20.5 22.5c4 14.667 15 22 33 22h63c18 0 27 -9 27 -27
c0 -28.667 -17.667 -57.834 -53 -87.501s-82.333 -44.5 -141 -44.5zM319 555l-49.998 0.000976562c-15.333 0 -23 5 -23 15c0 5.33301 3.33301 12.666 10 21.999l73 94c11.333 16 28.666 24 51.999 24h69c15.333 0 23 -6 23 -18c0 -6 -3.33301 -12.333 -10 -19l-94 -92
c-18.667 -17.333 -35.334 -26 -50.001 -26z" />
    <glyph glyph-name="ecircumflex" unicode="&#xea;" 
d="M223 338v-29h155v29c0 18 -7.5 34.167 -22.5 48.5s-33.5 21.5 -55.5 21.5c-20.667 0 -38.667 -7.33301 -54 -22s-23 -30.667 -23 -48zM299 -9c-58.667 0 -107 17 -145 51s-57 75.333 -57 124v168c0 48.667 19.167 90.167 57.5 124.5s86.833 51.5 145.5 51.5
s107 -16.667 145 -50s57 -74 57 -122v-91c0 -9.33301 -3.33301 -17.166 -10 -23.499s-15 -9.5 -25 -9.5h-244v-50c0 -18 7.33301 -34.167 22 -48.5s32.667 -21.5 54 -21.5c22 0 38.833 3.83301 50.5 11.5s18.5 15.167 20.5 22.5c4 14.667 15 22 33 22h63c18 0 27 -9 27 -27
c0 -28.667 -17.667 -57.834 -53 -87.501s-82.333 -44.5 -141 -44.5zM439 555h-54c-20 0 -35.667 7.66699 -47 23l-38 51l-37 -51c-12 -15.333 -28 -23 -48 -23h-54c-16.667 0 -25 5.33301 -25 16c0 6.66699 2.66699 12.667 8 18l81 95c14.667 17.333 31.667 26 51 26h48
c19.333 0 36.333 -8.66699 51 -26l81 -95c5.33301 -6.66699 8 -12.667 8 -18c0 -10.667 -8.33301 -16 -25 -16z" />
    <glyph glyph-name="edieresis" unicode="&#xeb;" 
d="M223 338v-29h155v29c0 18 -7.5 34.167 -22.5 48.5s-33.5 21.5 -55.5 21.5c-20.667 0 -38.667 -7.33301 -54 -22s-23 -30.667 -23 -48zM299 -9c-58.667 0 -107 17 -145 51s-57 75.333 -57 124v168c0 48.667 19.167 90.167 57.5 124.5s86.833 51.5 145.5 51.5
s107 -16.667 145 -50s57 -74 57 -122v-91c0 -9.33301 -3.33301 -17.166 -10 -23.499s-15 -9.5 -25 -9.5h-244v-50c0 -18 7.33301 -34.167 22 -48.5s32.667 -21.5 54 -21.5c22 0 38.833 3.83301 50.5 11.5s18.5 15.167 20.5 22.5c4 14.667 15 22 33 22h63c18 0 27 -9 27 -27
c0 -28.667 -17.667 -57.834 -53 -87.501s-82.333 -44.5 -141 -44.5zM255 672v-72c0 -14.667 -7.66699 -22 -23 -22h-69c-6 0 -11 2 -15 6s-6 9.33301 -6 16v72c0 6.66699 2 12 6 16s9 6 15 6h69c15.333 0 23 -7.33301 23 -22zM457 672v-72c0 -14.667 -7.66699 -22 -23 -22
h-68c-14.667 0 -22 7.33301 -22 22v72c0 14.667 7.33301 22 22 22h68c15.333 0 23 -7.33301 23 -22z" />
    <glyph glyph-name="igrave" unicode="&#xec;" 
d="M260 396l-140 -0.000976562c-6.66699 0 -12.5 2.33301 -17.5 7s-7.5 10.334 -7.5 17.001v56c0 6.66699 2.5 12.334 7.5 17.001s10.833 7 17.5 7h234c7.33301 0 14 -2.33301 20 -7s9 -10.334 9 -17.001v-372h122c6.66699 0 12.5 -2.33301 17.5 -7s7.5 -10.334 7.5 -17.001
v-56c0 -6.66699 -2.5 -12.334 -7.5 -17.001s-10.833 -7 -17.5 -7h-391c-6.66699 0 -12.5 2.33301 -17.5 7s-7.5 10.334 -7.5 17.001v56c0 6.66699 2.5 12.334 7.5 17.001s10.833 7 17.5 7h146v292zM348 554.999l-49.998 -0.000976562c-14.667 0 -31.334 8.66699 -50.001 26
l-94 92c-6.66699 6.66699 -10 13 -10 19c0 12 7.66699 18 23 18h69c23.333 0 40.666 -8 51.999 -24l73 -94c6.66699 -9.33301 10 -16.666 10 -21.999c0 -10 -7.66699 -15 -23 -15z" />
    <glyph glyph-name="iacute" unicode="&#xed;" 
d="M260 396l-140 -0.000976562c-6.66699 0 -12.5 2.33301 -17.5 7s-7.5 10.334 -7.5 17.001v56c0 6.66699 2.5 12.334 7.5 17.001s10.833 7 17.5 7h234c7.33301 0 14 -2.33301 20 -7s9 -10.334 9 -17.001v-372h122c6.66699 0 12.5 -2.33301 17.5 -7s7.5 -10.334 7.5 -17.001
v-56c0 -6.66699 -2.5 -12.334 -7.5 -17.001s-10.833 -7 -17.5 -7h-391c-6.66699 0 -12.5 2.33301 -17.5 7s-7.5 10.334 -7.5 17.001v56c0 6.66699 2.5 12.334 7.5 17.001s10.833 7 17.5 7h146v292zM328 554.999l-49.998 0.000976562c-15.333 0 -23 5 -23 15
c0 5.33301 3.33301 12.666 10 21.999l73 94c11.333 16 28.666 24 51.999 24h69c15.333 0 23 -6 23 -18c0 -6 -3.33301 -12.333 -10 -19l-94 -92c-18.667 -17.333 -35.334 -26 -50.001 -26z" />
    <glyph glyph-name="icircumflex" unicode="&#xee;" 
d="M260 396l-140 -0.000976562c-6.66699 0 -12.5 2.33301 -17.5 7s-7.5 10.334 -7.5 17.001v56c0 6.66699 2.5 12.334 7.5 17.001s10.833 7 17.5 7h234c7.33301 0 14 -2.33301 20 -7s9 -10.334 9 -17.001v-372h122c6.66699 0 12.5 -2.33301 17.5 -7s7.5 -10.334 7.5 -17.001
v-56c0 -6.66699 -2.5 -12.334 -7.5 -17.001s-10.833 -7 -17.5 -7h-391c-6.66699 0 -12.5 2.33301 -17.5 7s-7.5 10.334 -7.5 17.001v56c0 6.66699 2.5 12.334 7.5 17.001s10.833 7 17.5 7h146v292zM456 554.999h-54c-20 0 -35.667 7.66699 -47 23l-38 51l-37 -51
c-12 -15.333 -28 -23 -48 -23h-54c-16.667 0 -25 5.33301 -25 16c0 6.66699 2.66699 12.667 8 18l81 95c14.667 17.333 31.667 26 51 26h48c19.333 0 36.333 -8.66699 51 -26l81 -95c5.33301 -6.66699 8 -12.667 8 -18c0 -10.667 -8.33301 -16 -25 -16z" />
    <glyph glyph-name="idieresis" unicode="&#xef;" 
d="M260 396l-140 -0.000976562c-6.66699 0 -12.5 2.33301 -17.5 7s-7.5 10.334 -7.5 17.001v56c0 6.66699 2.5 12.334 7.5 17.001s10.833 7 17.5 7h234c7.33301 0 14 -2.33301 20 -7s9 -10.334 9 -17.001v-372h122c6.66699 0 12.5 -2.33301 17.5 -7s7.5 -10.334 7.5 -17.001
v-56c0 -6.66699 -2.5 -12.334 -7.5 -17.001s-10.833 -7 -17.5 -7h-391c-6.66699 0 -12.5 2.33301 -17.5 7s-7.5 10.334 -7.5 17.001v56c0 6.66699 2.5 12.334 7.5 17.001s10.833 7 17.5 7h146v292zM269 671.999v-72c0 -14.667 -7.66699 -22 -23 -22h-69c-6 0 -11 2 -15 6
s-6 9.33301 -6 16v72c0 6.66699 2 12 6 16s9 6 15 6h69c15.333 0 23 -7.33301 23 -22zM471 671.999v-72c0 -14.667 -7.66699 -22 -23 -22h-68c-14.667 0 -22 7.33301 -22 22v72c0 14.667 7.33301 22 22 22h68c15.333 0 23 -7.33301 23 -22z" />
    <glyph glyph-name="eth" unicode="&#xf0;" 
d="M355 158v150c0 16.667 -7.5 31.167 -22.5 43.5s-32.5 18.5 -52.5 18.5c-19.333 0 -36.333 -6.16699 -51 -18.5s-22 -26.833 -22 -43.5v-150c0 -16.667 7.5 -31.334 22.5 -44.001s32.167 -19 51.5 -19s36.5 6.33301 51.5 19s22.5 27.334 22.5 44.001zM509 566
l-34.0039 -11.0049c0 -2.66699 0.333008 -6.66699 1 -12s1.33398 -10.166 2.00098 -14.499s1 -7.16602 1 -8.49902v-359c0 -48.667 -18.667 -89.334 -56 -122.001s-84.666 -49 -141.999 -49s-104.666 16.333 -141.999 49s-56 73.334 -56 122.001v144
c0 46 17.5 85.5 52.5 118.5s76.833 49.5 125.5 49.5c17.333 0 33.833 -2.66699 49.5 -8s26.834 -10.666 33.501 -15.999l11 -8v76l-42 -14c-4 -1.33301 -7.33301 -2 -10 -2c-12.667 0 -19 7.33301 -19 22v44c0 12 7.66699 20.667 23 26l11 4c-9.33301 6 -19.666 9 -30.999 9
h-53c-6.66699 0 -12.5 2.33301 -17.5 7s-7.5 10.334 -7.5 17.001v56c0 6.66699 2.5 12.334 7.5 17.001s10.833 7 17.5 7h53c63.333 0 116.666 -24.333 159.999 -73l56 19c4 1.33301 7.33301 2 10 2c12.667 0 19 -7.33301 19 -22v-44c0 -12 -7.66699 -20.667 -23 -26z" />
    <glyph glyph-name="ntilde" unicode="&#xf1;" 
d="M217 473l-0.000976562 -15c3.33301 4 8.16602 8.83301 14.499 14.5s20 13.334 41 23.001s42.167 14.5 63.5 14.5c49.333 0 90.833 -17.333 124.5 -52s50.5 -79.334 50.5 -134.001v-297c0 -7.33301 -2.66699 -13.666 -8 -18.999s-11.666 -8 -18.999 -8h-69
c-7.33301 0 -13.666 2.66699 -18.999 8s-8 11.666 -8 18.999v295c0 24.667 -7.5 44.667 -22.5 60s-34.167 23 -57.5 23c-24 0 -44.333 -8 -61 -24s-25 -34 -25 -54v-300c0 -7.33301 -2.66699 -13.666 -8 -18.999s-11.666 -8 -18.999 -8h-68
c-7.33301 0 -13.666 2.66699 -18.999 8s-8 11.666 -8 18.999v446c0 7.33301 2.66699 13.666 8 18.999s11.666 8 18.999 8h63c7.33301 0 13.666 -2.66699 18.999 -8s8 -11.666 8 -18.999zM242.999 689c18.667 0 40.167 -6.16699 64.5 -18.5s40.166 -18.5 47.499 -18.5
c6.66699 0 12.334 1.83301 17.001 5.5s7.66699 7.16699 9 10.5c4.66699 13.333 11.334 20 20.001 20h72c6 0 11 -2.16699 15 -6.5s6 -9.5 6 -15.5c0 -28.667 -10 -55.5 -30 -80.5s-45.333 -37.5 -76 -37.5c-18.667 0 -40.167 6.16699 -64.5 18.5s-40.166 18.5 -47.499 18.5
c-6.66699 0 -12.334 -1.83301 -17.001 -5.5s-7.66699 -7.16699 -9 -10.5c-4.66699 -13.333 -11.334 -20 -20.001 -20h-72c-6 0 -11 2.16699 -15 6.5s-6 9.5 -6 15.5c0 28.667 10 55.5 30 80.5s45.333 37.5 76 37.5z" />
    <glyph glyph-name="ograve" unicode="&#xf2;" 
d="M503 339v-178c0 -48.667 -18.833 -89.334 -56.5 -122.001s-86.167 -49 -145.5 -49c-60 0 -109 16.333 -147 49s-57 73.334 -57 122.001v178c0 48.667 19 89.334 57 122.001s87 49 147 49c59.333 0 107.833 -16.333 145.5 -49s56.5 -73.334 56.5 -122.001zM377 159
v180.999c0 18 -7 33.5 -21 46.5s-32.667 19.5 -56 19.5c-22 0 -40.5 -6.66699 -55.5 -20s-22.5 -28.666 -22.5 -45.999v-181c0 -17.333 7.5 -32.5 22.5 -45.5s33.833 -19.5 56.5 -19.5s41 6.33301 55 19s21 28 21 46zM338 554.999l-49.998 -0.000976562
c-14.667 0 -31.334 8.66699 -50.001 26l-94 92c-6.66699 6.66699 -10 13 -10 19c0 12 7.66699 18 23 18h69c23.333 0 40.666 -8 51.999 -24l73 -94c6.66699 -9.33301 10 -16.666 10 -21.999c0 -10 -7.66699 -15 -23 -15z" />
    <glyph glyph-name="oacute" unicode="&#xf3;" 
d="M503 339v-178c0 -48.667 -18.833 -89.334 -56.5 -122.001s-86.167 -49 -145.5 -49c-60 0 -109 16.333 -147 49s-57 73.334 -57 122.001v178c0 48.667 19 89.334 57 122.001s87 49 147 49c59.333 0 107.833 -16.333 145.5 -49s56.5 -73.334 56.5 -122.001zM377 159
v180.999c0 18 -7 33.5 -21 46.5s-32.667 19.5 -56 19.5c-22 0 -40.5 -6.66699 -55.5 -20s-22.5 -28.666 -22.5 -45.999v-181c0 -17.333 7.5 -32.5 22.5 -45.5s33.833 -19.5 56.5 -19.5s41 6.33301 55 19s21 28 21 46zM311 554.999l-49.998 0.000976562
c-15.333 0 -23 5 -23 15c0 5.33301 3.33301 12.666 10 21.999l73 94c11.333 16 28.666 24 51.999 24h69c15.333 0 23 -6 23 -18c0 -6 -3.33301 -12.333 -10 -19l-94 -92c-18.667 -17.333 -35.334 -26 -50.001 -26z" />
    <glyph glyph-name="ocircumflex" unicode="&#xf4;" 
d="M503 339v-178c0 -48.667 -18.833 -89.334 -56.5 -122.001s-86.167 -49 -145.5 -49c-60 0 -109 16.333 -147 49s-57 73.334 -57 122.001v178c0 48.667 19 89.334 57 122.001s87 49 147 49c59.333 0 107.833 -16.333 145.5 -49s56.5 -73.334 56.5 -122.001zM377 159
v180.999c0 18 -7 33.5 -21 46.5s-32.667 19.5 -56 19.5c-22 0 -40.5 -6.66699 -55.5 -20s-22.5 -28.666 -22.5 -45.999v-181c0 -17.333 7.5 -32.5 22.5 -45.5s33.833 -19.5 56.5 -19.5s41 6.33301 55 19s21 28 21 46zM439 554.999h-54c-20 0 -35.667 7.66699 -47 23l-38 51
l-37 -51c-12 -15.333 -28 -23 -48 -23h-54c-16.667 0 -25 5.33301 -25 16c0 6.66699 2.66699 12.667 8 18l81 95c14.667 17.333 31.667 26 51 26h48c19.333 0 36.333 -8.66699 51 -26l81 -95c5.33301 -6.66699 8 -12.667 8 -18c0 -10.667 -8.33301 -16 -25 -16z" />
    <glyph glyph-name="otilde" unicode="&#xf5;" 
d="M503 339v-178c0 -48.667 -18.833 -89.334 -56.5 -122.001s-86.167 -49 -145.5 -49c-60 0 -109 16.333 -147 49s-57 73.334 -57 122.001v178c0 48.667 19 89.334 57 122.001s87 49 147 49c59.333 0 107.833 -16.333 145.5 -49s56.5 -73.334 56.5 -122.001zM377 159
v180.999c0 18 -7 33.5 -21 46.5s-32.667 19.5 -56 19.5c-22 0 -40.5 -6.66699 -55.5 -20s-22.5 -28.666 -22.5 -45.999v-181c0 -17.333 7.5 -32.5 22.5 -45.5s33.833 -19.5 56.5 -19.5s41 6.33301 55 19s21 28 21 46zM228 688.999c18.667 0 40.167 -6.16699 64.5 -18.5
s40.166 -18.5 47.499 -18.5c6.66699 0 12.334 1.83301 17.001 5.5s7.66699 7.16699 9 10.5c4.66699 13.333 11.334 20 20.001 20h72c6 0 11 -2.16699 15 -6.5s6 -9.5 6 -15.5c0 -28.667 -10 -55.5 -30 -80.5s-45.333 -37.5 -76 -37.5c-18.667 0 -40.167 6.16699 -64.5 18.5
s-40.166 18.5 -47.499 18.5c-6.66699 0 -12.334 -1.83301 -17.001 -5.5s-7.66699 -7.16699 -9 -10.5c-4.66699 -13.333 -11.334 -20 -20.001 -20h-72c-6 0 -11 2.16699 -15 6.5s-6 9.5 -6 15.5c0 28.667 10 55.5 30 80.5s45.333 37.5 76 37.5z" />
    <glyph glyph-name="odieresis" unicode="&#xf6;" 
d="M503 339v-178c0 -48.667 -18.833 -89.334 -56.5 -122.001s-86.167 -49 -145.5 -49c-60 0 -109 16.333 -147 49s-57 73.334 -57 122.001v178c0 48.667 19 89.334 57 122.001s87 49 147 49c59.333 0 107.833 -16.333 145.5 -49s56.5 -73.334 56.5 -122.001zM377 159
v180.999c0 18 -7 33.5 -21 46.5s-32.667 19.5 -56 19.5c-22 0 -40.5 -6.66699 -55.5 -20s-22.5 -28.666 -22.5 -45.999v-181c0 -17.333 7.5 -32.5 22.5 -45.5s33.833 -19.5 56.5 -19.5s41 6.33301 55 19s21 28 21 46zM255 671.999v-72c0 -14.667 -7.66699 -22 -23 -22h-69
c-6 0 -11 2 -15 6s-6 9.33301 -6 16v72c0 6.66699 2 12 6 16s9 6 15 6h69c15.333 0 23 -7.33301 23 -22zM457 671.999v-72c0 -14.667 -7.66699 -22 -23 -22h-68c-14.667 0 -22 7.33301 -22 22v72c0 14.667 7.33301 22 22 22h68c15.333 0 23 -7.33301 23 -22z" />
    <glyph glyph-name="divide" unicode="&#xf7;" 
d="M102 345h395c15.333 0 23 -7 23 -21v-73c0 -14 -7.66699 -21 -23 -21h-395c-6.66699 0 -12 2 -16 6s-6 9 -6 15v73c0 6 2 11 6 15s9.33301 6 16 6zM368 156v-86c0 -16.667 -9 -25 -27 -25h-84c-16.667 0 -25 8.33301 -25 25v86c0 16.667 8.33301 25 25 25h84
c18 0 27 -8.33301 27 -25zM368 505v-86c0 -16.667 -9 -25 -27 -25h-84c-16.667 0 -25 8.33301 -25 25v86c0 16.667 8.33301 25 25 25h84c18 0 27 -8.33301 27 -25z" />
    <glyph glyph-name="oslash" unicode="&#xf8;" 
d="M467 530l34.999 -24.999c6 -4 9 -9.33301 9 -16c0 -4.66699 -1.66699 -9.66699 -5 -15l-32 -45c19.333 -26.667 29 -57 29 -91v-178c0 -48.667 -19 -89.334 -57 -122.001s-87 -49 -147 -49c-41.333 0 -78.666 8.66699 -111.999 26l-27 -39
c-4.66699 -6.66699 -10.667 -10 -18 -10c-4.66699 0 -8.66699 1.33301 -12 4l-35 25c-6 4 -9 9.66699 -9 17c0 5.33301 1.33301 9.66602 4 12.999l33 47c-17.333 26.667 -26 56 -26 88v178c0 48.667 18.833 89.334 56.5 122.001s86.167 49 145.5 49
c42 0 79 -8.33301 111 -25l27 39c5.33301 7.33301 11.333 11 18 11c4.66699 0 8.66699 -1.33301 12 -4zM299.999 94.001c22 0 41.333 6.5 58 19.5s25 28.167 25 45.5v149l-131 -201c14 -8.66699 30 -13 48 -13zM217.999 340.001l0.000976562 -141l127 193
c-14 8.66699 -29.333 13 -46 13c-22.667 0 -41.834 -6.5 -57.501 -19.5s-23.5 -28.167 -23.5 -45.5z" />
    <glyph glyph-name="ugrave" unicode="&#xf9;" 
d="M387 27l0.000976562 15c-3.33301 -4 -8.16602 -8.83301 -14.499 -14.5s-20 -13.334 -41 -23.001s-42.167 -14.5 -63.5 -14.5c-49.333 0 -90.833 17.333 -124.5 52s-50.5 79.334 -50.5 134.001v297c0 7.33301 2.66699 13.666 8 18.999s11.666 8 18.999 8h69
c7.33301 0 13.666 -2.66699 18.999 -8s8 -11.666 8 -18.999v-295c0 -24.667 7.5 -44.667 22.5 -60s34.167 -23 57.5 -23c24 0 44.333 8 61 24s25 34 25 54v300c0 7.33301 2.66699 13.666 8 18.999s11.666 8 18.999 8h68c7.33301 0 13.666 -2.66699 18.999 -8
s8 -11.666 8 -18.999v-446c0 -7.33301 -2.66699 -13.666 -8 -18.999s-11.666 -8 -18.999 -8h-63c-7.33301 0 -13.666 2.66699 -18.999 8s-8 11.666 -8 18.999zM344.001 555l-49.998 -0.000976562c-14.667 0 -31.334 8.66699 -50.001 26l-94 92
c-6.66699 6.66699 -10 13 -10 19c0 12 7.66699 18 23 18h69c23.333 0 40.666 -8 51.999 -24l73 -94c6.66699 -9.33301 10 -16.666 10 -21.999c0 -10 -7.66699 -15 -23 -15z" />
    <glyph glyph-name="uacute" unicode="&#xfa;" 
d="M387 27l0.000976562 15c-3.33301 -4 -8.16602 -8.83301 -14.499 -14.5s-20 -13.334 -41 -23.001s-42.167 -14.5 -63.5 -14.5c-49.333 0 -90.833 17.333 -124.5 52s-50.5 79.334 -50.5 134.001v297c0 7.33301 2.66699 13.666 8 18.999s11.666 8 18.999 8h69
c7.33301 0 13.666 -2.66699 18.999 -8s8 -11.666 8 -18.999v-295c0 -24.667 7.5 -44.667 22.5 -60s34.167 -23 57.5 -23c24 0 44.333 8 61 24s25 34 25 54v300c0 7.33301 2.66699 13.666 8 18.999s11.666 8 18.999 8h68c7.33301 0 13.666 -2.66699 18.999 -8
s8 -11.666 8 -18.999v-446c0 -7.33301 -2.66699 -13.666 -8 -18.999s-11.666 -8 -18.999 -8h-63c-7.33301 0 -13.666 2.66699 -18.999 8s-8 11.666 -8 18.999zM316.001 555l-49.998 0.000976562c-15.333 0 -23 5 -23 15c0 5.33301 3.33301 12.666 10 21.999l73 94
c11.333 16 28.666 24 51.999 24h69c15.333 0 23 -6 23 -18c0 -6 -3.33301 -12.333 -10 -19l-94 -92c-18.667 -17.333 -35.334 -26 -50.001 -26z" />
    <glyph glyph-name="ucircumflex" unicode="&#xfb;" 
d="M387 27l0.000976562 15c-3.33301 -4 -8.16602 -8.83301 -14.499 -14.5s-20 -13.334 -41 -23.001s-42.167 -14.5 -63.5 -14.5c-49.333 0 -90.833 17.333 -124.5 52s-50.5 79.334 -50.5 134.001v297c0 7.33301 2.66699 13.666 8 18.999s11.666 8 18.999 8h69
c7.33301 0 13.666 -2.66699 18.999 -8s8 -11.666 8 -18.999v-295c0 -24.667 7.5 -44.667 22.5 -60s34.167 -23 57.5 -23c24 0 44.333 8 61 24s25 34 25 54v300c0 7.33301 2.66699 13.666 8 18.999s11.666 8 18.999 8h68c7.33301 0 13.666 -2.66699 18.999 -8
s8 -11.666 8 -18.999v-446c0 -7.33301 -2.66699 -13.666 -8 -18.999s-11.666 -8 -18.999 -8h-63c-7.33301 0 -13.666 2.66699 -18.999 8s-8 11.666 -8 18.999zM443.001 555h-54c-20 0 -35.667 7.66699 -47 23l-38 51l-37 -51c-12 -15.333 -28 -23 -48 -23h-54
c-16.667 0 -25 5.33301 -25 16c0 6.66699 2.66699 12.667 8 18l81 95c14.667 17.333 31.667 26 51 26h48c19.333 0 36.333 -8.66699 51 -26l81 -95c5.33301 -6.66699 8 -12.667 8 -18c0 -10.667 -8.33301 -16 -25 -16z" />
    <glyph glyph-name="udieresis" unicode="&#xfc;" 
d="M387 27l0.000976562 15c-3.33301 -4 -8.16602 -8.83301 -14.499 -14.5s-20 -13.334 -41 -23.001s-42.167 -14.5 -63.5 -14.5c-49.333 0 -90.833 17.333 -124.5 52s-50.5 79.334 -50.5 134.001v297c0 7.33301 2.66699 13.666 8 18.999s11.666 8 18.999 8h69
c7.33301 0 13.666 -2.66699 18.999 -8s8 -11.666 8 -18.999v-295c0 -24.667 7.5 -44.667 22.5 -60s34.167 -23 57.5 -23c24 0 44.333 8 61 24s25 34 25 54v300c0 7.33301 2.66699 13.666 8 18.999s11.666 8 18.999 8h68c7.33301 0 13.666 -2.66699 18.999 -8
s8 -11.666 8 -18.999v-446c0 -7.33301 -2.66699 -13.666 -8 -18.999s-11.666 -8 -18.999 -8h-63c-7.33301 0 -13.666 2.66699 -18.999 8s-8 11.666 -8 18.999zM259.001 672v-72c0 -14.667 -7.66699 -22 -23 -22h-69c-6 0 -11 2 -15 6s-6 9.33301 -6 16v72
c0 6.66699 2 12 6 16s9 6 15 6h69c15.333 0 23 -7.33301 23 -22zM461.001 672v-72c0 -14.667 -7.66699 -22 -23 -22h-68c-14.667 0 -22 7.33301 -22 22v72c0 14.667 7.33301 22 22 22h68c15.333 0 23 -7.33301 23 -22z" />
    <glyph glyph-name="yacute" unicode="&#xfd;" 
d="M536 469l-240 -621c-6.66699 -18.667 -20.667 -28 -42 -28h-63c-17.333 0 -26 6.33301 -26 19c0 3.33301 1 7.33301 3 12l70 178l-170 440c-2 6 -3 10.667 -3 14c0 11.333 8.33301 17 25 17h69c20.667 0 34.667 -9.33301 42 -28l103 -289l101 289
c7.33301 18.667 21.333 28 42 28h67c16.667 0 25 -5.66699 25 -17c0 -3.33301 -1 -8 -3 -14zM310 555l-49.998 0.000976562c-15.333 0 -23 5 -23 15c0 5.33301 3.33301 12.666 10 21.999l73 94c11.333 16 28.666 24 51.999 24h69c15.333 0 23 -6 23 -18
c0 -6 -3.33301 -12.333 -10 -19l-94 -92c-18.667 -17.333 -35.334 -26 -50.001 -26z" />
    <glyph glyph-name="thorn" unicode="&#xfe;" 
d="M386 163v174c0 18 -7.16699 33.833 -21.5 47.5s-32.5 20.5 -54.5 20.5s-40.833 -7.16699 -56.5 -21.5s-23.5 -30.833 -23.5 -49.5v-168c0 -20 7.66699 -37.167 23 -51.5s34.333 -21.5 57 -21.5c22 0 40.167 7.16699 54.5 21.5s21.5 30.5 21.5 48.5zM230 24
l-0.00195312 -177c0 -7.33301 -2.66699 -13.666 -8 -18.999s-11.666 -8 -18.999 -8h-71c-7.33301 0 -13.666 2.66699 -18.999 8s-8 11.666 -8 18.999v826c0 7.33301 2.66699 13.666 8 18.999s11.666 8 18.999 8h71c7.33301 0 13.666 -2.66699 18.999 -8s8 -11.666 8 -18.999
v-208c2.66699 3.33301 6.5 7.33301 11.5 12s16.333 11 34 19s36.834 12 57.501 12c49.333 0 91.333 -16.167 126 -48.5s52 -72.833 52 -121.5v-176c0 -50 -17.333 -91.167 -52 -123.5s-76 -48.5 -124 -48.5c-20 0 -38.667 2.83301 -56 8.5s-29.666 11.5 -36.999 17.5z" />
    <glyph glyph-name="ydieresis" unicode="&#xff;" 
d="M536 469l-240 -621c-6.66699 -18.667 -20.667 -28 -42 -28h-63c-17.333 0 -26 6.33301 -26 19c0 3.33301 1 7.33301 3 12l70 178l-170 440c-2 6 -3 10.667 -3 14c0 11.333 8.33301 17 25 17h69c20.667 0 34.667 -9.33301 42 -28l103 -289l101 289
c7.33301 18.667 21.333 28 42 28h67c16.667 0 25 -5.66699 25 -17c0 -3.33301 -1 -8 -3 -14zM257 672v-72c0 -14.667 -7.66699 -22 -23 -22h-69c-6 0 -11 2 -15 6s-6 9.33301 -6 16v72c0 6.66699 2 12 6 16s9 6 15 6h69c15.333 0 23 -7.33301 23 -22zM459 672v-72
c0 -14.667 -7.66699 -22 -23 -22h-68c-14.667 0 -22 7.33301 -22 22v72c0 14.667 7.33301 22 22 22h68c15.333 0 23 -7.33301 23 -22z" />
    <glyph glyph-name="Amacron" unicode="&#x100;" 
d="M380 325l-70 258h-20l-70 -258h160zM402 673l102.006 -348c3.33301 -13.333 5 -26.333 5 -39v-256c0 -8.66699 -2.83301 -15.834 -8.5 -21.501s-12.834 -8.5 -21.501 -8.5h-58c-8.66699 0 -15.834 2.83301 -21.501 8.5s-8.5 12.834 -8.5 21.501v178h-182v-178
c0 -8.66699 -2.83301 -15.834 -8.5 -21.501s-12.834 -8.5 -21.501 -8.5h-58c-8.66699 0 -15.834 2.83301 -21.501 8.5s-8.5 12.834 -8.5 21.501v256c0 11.333 1.66699 24.333 5 39l102 348c5.33301 18 16.666 27 33.999 27h136c17.333 0 28.666 -9 33.999 -27zM444.006 855
v-62c0 -14 -7.66699 -21 -23 -21h-244c-6.66699 0 -12 2 -16 6s-6 9 -6 15v62c0 6 2 11 6 15s9.33301 6 16 6h244c15.333 0 23 -7 23 -21z" />
    <glyph glyph-name="amacron" unicode="&#x101;" 
d="M281 88c24 0 45.667 7.16699 65 21.5s29 29.5 29 45.5v63l-96 -8c-18.667 -1.33301 -34 -7.5 -46 -18.5s-18 -24.833 -18 -41.5c0 -17.333 6 -32 18 -44s28 -18 48 -18zM126 378c0 28.667 16.332 57.834 48.999 87.501s75.667 44.5 129 44.5
c59.333 0 105.833 -16.167 139.5 -48.5s50.5 -73.166 50.5 -122.499v-312c0 -7.33301 -2.66699 -13.666 -8 -18.999s-11.666 -8 -18.999 -8h-55c-7.33301 0 -13.666 2.66699 -18.999 8s-8 11.666 -8 18.999v15c-3.33301 -4 -8 -8.83301 -14 -14.5
s-19.833 -13.167 -41.5 -22.5s-44.834 -14 -69.501 -14c-46.667 0 -86 14.833 -118 44.5s-48 67.167 -48 112.5s17.5 81.5 52.5 108.5s79.167 42.5 132.5 46.5l96 8v21c0 25.333 -7 44.166 -21 56.499s-30.667 18.5 -50 18.5c-26.667 0 -45 -10 -55 -30
c-8.66699 -17.333 -20.334 -26 -35.001 -26h-61c-7.33301 0 -13.666 2.66699 -18.999 8s-8 11.666 -8 18.999zM449.999 655v-62c0 -14 -7.66699 -21 -23 -21h-244c-6.66699 0 -12 2 -16 6s-6 9 -6 15v62c0 6 2 11 6 15s9.33301 6 16 6h244c15.333 0 23 -7 23 -21z" />
    <glyph glyph-name="Abreve" unicode="&#x102;" 
d="M380 325l-70 258h-20l-70 -258h160zM402 673l102.006 -348c3.33301 -13.333 5 -26.333 5 -39v-256c0 -8.66699 -2.83301 -15.834 -8.5 -21.501s-12.834 -8.5 -21.501 -8.5h-58c-8.66699 0 -15.834 2.83301 -21.501 8.5s-8.5 12.834 -8.5 21.501v178h-182v-178
c0 -8.66699 -2.83301 -15.834 -8.5 -21.501s-12.834 -8.5 -21.501 -8.5h-58c-8.66699 0 -15.834 2.83301 -21.501 8.5s-8.5 12.834 -8.5 21.501v256c0 11.333 1.66699 24.333 5 39l102 348c5.33301 18 16.666 27 33.999 27h136c17.333 0 28.666 -9 33.999 -27zM165.006 910
h59.002c12.667 0 20.667 -6.33301 24 -19c4 -14.667 9.5 -25.667 16.5 -33s18.833 -11 35.5 -11c16 0 27.667 3.66699 35 11s13 18.333 17 33c3.33301 12.667 11.333 19 24 19h61c9.33301 0 14 -6.33301 14 -19c0 -10.667 -2.66699 -23 -8 -37s-13.333 -28.833 -24 -44.5
s-26.334 -28.667 -47.001 -39s-44.667 -15.5 -72 -15.5s-51.333 5.16699 -72 15.5s-36.334 23.333 -47.001 39s-18.667 30.5 -24 44.5s-8 26.333 -8 37c0 12.667 5.33301 19 16 19z" />
    <glyph glyph-name="abreve" unicode="&#x103;" 
d="M281 88c24 0 45.667 7.16699 65 21.5s29 29.5 29 45.5v63l-96 -8c-18.667 -1.33301 -34 -7.5 -46 -18.5s-18 -24.833 -18 -41.5c0 -17.333 6 -32 18 -44s28 -18 48 -18zM126 378c0 28.667 16.332 57.834 48.999 87.501s75.667 44.5 129 44.5
c59.333 0 105.833 -16.167 139.5 -48.5s50.5 -73.166 50.5 -122.499v-312c0 -7.33301 -2.66699 -13.666 -8 -18.999s-11.666 -8 -18.999 -8h-55c-7.33301 0 -13.666 2.66699 -18.999 8s-8 11.666 -8 18.999v15c-3.33301 -4 -8 -8.83301 -14 -14.5
s-19.833 -13.167 -41.5 -22.5s-44.834 -14 -69.501 -14c-46.667 0 -86 14.833 -118 44.5s-48 67.167 -48 112.5s17.5 81.5 52.5 108.5s79.167 42.5 132.5 46.5l96 8v21c0 25.333 -7 44.166 -21 56.499s-30.667 18.5 -50 18.5c-26.667 0 -45 -10 -55 -30
c-8.66699 -17.333 -20.334 -26 -35.001 -26h-61c-7.33301 0 -13.666 2.66699 -18.999 8s-8 11.666 -8 18.999zM164.999 710h59.002c12.667 0 20.667 -6.33301 24 -19c4 -14.667 9.5 -25.667 16.5 -33s18.833 -11 35.5 -11c16 0 27.667 3.66699 35 11s13 18.333 17 33
c3.33301 12.667 11.333 19 24 19h61c9.33301 0 14 -6.33301 14 -19c0 -10.667 -2.66699 -23 -8 -37s-13.333 -28.833 -24 -44.5s-26.334 -28.667 -47.001 -39s-44.667 -15.5 -72 -15.5s-51.333 5.16699 -72 15.5s-36.334 23.333 -47.001 39s-18.667 30.5 -24 44.5
s-8 26.333 -8 37c0 12.667 5.33301 19 16 19z" />
    <glyph glyph-name="Aogonek" unicode="&#x104;" 
d="M480 -190l-68.998 -0.00390625c-26 0 -47.333 8.66699 -64 26s-25 36.333 -25 57c0 12.667 2.33301 25.334 7 38.001s10.334 23.334 17.001 32.001s13.5 16.667 20.5 24s12.833 12.666 17.5 15.999l7 5v200h-182v-178c0 -8.66699 -2.83301 -15.834 -8.5 -21.501
s-12.834 -8.5 -21.501 -8.5h-58c-8.66699 0 -15.834 2.83301 -21.501 8.5s-8.5 12.834 -8.5 21.501v256c0 11.333 1.66699 24.333 5 39l102 348c5.33301 18 16.666 27 33.999 27h136c17.333 0 28.666 -9 33.999 -27l102 -348c3.33301 -13.333 5 -26.333 5 -39v-256
c0 -10 -4 -18.333 -12 -25c-0.666992 -0.666992 -4.16699 -3.5 -10.5 -8.5s-11.666 -9.16699 -15.999 -12.5s-9.83301 -8.16602 -16.5 -14.499s-12 -12.166 -16 -17.499s-7.5 -11.166 -10.5 -17.499s-4.5 -12.5 -4.5 -18.5c0 -9.33301 5.33301 -14 16 -14h41
c5.33301 0 10 -2 14 -6s6 -8.66699 6 -14v-52c0 -5.33301 -2 -10 -6 -14s-8.66699 -6 -14 -6zM380.002 324.996l-70 258h-20l-70 -258h160z" />
    <glyph glyph-name="aogonek" unicode="&#x105;" 
d="M126 378c0 28.667 16.334 57.835 49.001 87.502s75.667 44.5 129 44.5c59.333 0 105.833 -16.167 139.5 -48.5s50.5 -73.166 50.5 -122.499v-312c0 -8.66699 -4.66699 -16.667 -14 -24c-14 -10.667 -28.5 -24.5 -43.5 -41.5s-22.5 -32.167 -22.5 -45.5
c0 -9.33301 5.33301 -14 16 -14h41c5.33301 0 10 -2 14 -6s6 -8.66699 6 -14v-52c0 -5.33301 -2 -10 -6 -14s-8.66699 -6 -14 -6h-69c-26 0 -47.333 8.33301 -64 25s-25 36 -25 58c0 18.667 6 37.167 18 55.5s24 32.166 36 41.499l18 13v39
c-3.33301 -4 -8 -8.83301 -14 -14.5s-19.833 -13.167 -41.5 -22.5s-44.834 -14 -69.501 -14c-46.667 0 -86 14.833 -118 44.5s-48 67.167 -48 112.5s17.5 81.5 52.5 108.5s79.167 42.5 132.5 46.5l96 8v21c0 25.333 -7 44.166 -21 56.499s-30.667 18.5 -50 18.5
c-26.667 0 -45 -10 -55 -30c-8.66699 -17.333 -20.334 -26 -35.001 -26h-61c-7.33301 0 -13.666 2.66699 -18.999 8s-8 11.666 -8 18.999zM281.001 88.001c24 0 45.667 7.16699 65 21.5s29 29.5 29 45.5v63l-96 -8c-18.667 -1.33301 -34 -7.5 -46 -18.5
s-18 -24.833 -18 -41.5c0 -17.333 6 -32 18 -44s28 -18 48 -18z" />
    <glyph glyph-name="Cacute" unicode="&#x106;" 
d="M512 188c0 -54.667 -20.001 -101.334 -60.001 -140.001s-88.333 -58 -145 -58s-105 19.333 -145 58s-60 85 -60 139v327c0 53.333 20.167 99.333 60.5 138s88.166 58 143.499 58c41.333 0 78.166 -10.5 110.499 -31.5s55.833 -44.667 70.5 -71s22 -51.166 22 -74.499
c0 -8.66699 -2.66699 -15.834 -8 -21.501s-12.333 -8.5 -21 -8.5h-60c-18 0 -28.667 10 -32 30c-2.66699 14 -11.167 28 -25.5 42s-32.833 21 -55.5 21c-22 0 -41.167 -7.5 -57.5 -22.5s-24.5 -32.833 -24.5 -53.5v-339c0 -20.667 8.16699 -38.667 24.5 -54
s35.5 -23 57.5 -23c22.667 0 42.834 7.33301 60.501 22s26.5 35.334 26.5 62.001c0 8.66699 2.83301 15.834 8.5 21.501s12.834 8.5 21.501 8.5h58c8.66699 0 15.834 -2.83301 21.501 -8.5s8.5 -12.834 8.5 -21.501zM323.999 755l-49.998 0.000976562
c-15.333 0 -23 5 -23 15c0 5.33301 3.33301 12.666 10 21.999l73 94c11.333 16 28.666 24 51.999 24h69c15.333 0 23 -6 23 -18c0 -6 -3.33301 -12.333 -10 -19l-94 -92c-18.667 -17.333 -35.334 -26 -50.001 -26z" />
    <glyph glyph-name="cacute" unicode="&#x107;" 
d="M298 -10c-59.333 0 -107.832 16.6631 -145.499 49.9961s-56.5 75.333 -56.5 126v165c0 52 18.667 94.833 56 128.5s85.666 50.5 144.999 50.5c34.667 0 65.667 -6 93 -18s48.333 -26.667 63 -44s25.667 -34.666 33 -51.999s11 -32.666 11 -45.999
c0 -7.33301 -2.66699 -13.666 -8 -18.999s-11.666 -8 -18.999 -8h-64c-18.667 0 -30.334 8.66699 -35.001 26c-2 6 -4.83301 12.5 -8.5 19.5s-11.5 15 -23.5 24s-26 13.5 -42 13.5c-21.333 0 -39.166 -7 -53.499 -21s-21.5 -31.667 -21.5 -53v-165
c0 -21.333 7.16699 -38.833 21.5 -52.5s32.5 -20.5 54.5 -20.5c18 0 33.167 4.83301 45.5 14.5s20 18.167 23 25.5s5.16699 14.333 6.5 21c3.33301 17.333 15.333 26 36 26h64c7.33301 0 13.666 -2.66699 18.999 -8s8 -11.666 8 -18.999c0 -13.333 -3.33301 -28.5 -10 -45.5
s-17.167 -34.833 -31.5 -53.5s-35.5 -34.167 -63.5 -46.5s-60.333 -18.5 -97 -18.5zM312.001 554.996l-49.998 0.000976562c-15.333 0 -23 5 -23 15c0 5.33301 3.33301 12.666 10 21.999l73 94c11.333 16 28.666 24 51.999 24h69c15.333 0 23 -6 23 -18
c0 -6 -3.33301 -12.333 -10 -19l-94 -92c-18.667 -17.333 -35.334 -26 -50.001 -26z" />
    <glyph glyph-name="Ccircumflex" unicode="&#x108;" 
d="M512 188c0 -54.667 -20.001 -101.334 -60.001 -140.001s-88.333 -58 -145 -58s-105 19.333 -145 58s-60 85 -60 139v327c0 53.333 20.167 99.333 60.5 138s88.166 58 143.499 58c41.333 0 78.166 -10.5 110.499 -31.5s55.833 -44.667 70.5 -71s22 -51.166 22 -74.499
c0 -8.66699 -2.66699 -15.834 -8 -21.501s-12.333 -8.5 -21 -8.5h-60c-18 0 -28.667 10 -32 30c-2.66699 14 -11.167 28 -25.5 42s-32.833 21 -55.5 21c-22 0 -41.167 -7.5 -57.5 -22.5s-24.5 -32.833 -24.5 -53.5v-339c0 -20.667 8.16699 -38.667 24.5 -54
s35.5 -23 57.5 -23c22.667 0 42.834 7.33301 60.501 22s26.5 35.334 26.5 62.001c0 8.66699 2.83301 15.834 8.5 21.501s12.834 8.5 21.501 8.5h58c8.66699 0 15.834 -2.83301 21.501 -8.5s8.5 -12.834 8.5 -21.501zM438.999 755h-54c-20 0 -35.667 7.66699 -47 23l-38 51
l-37 -51c-12 -15.333 -28 -23 -48 -23h-54c-16.667 0 -25 5.33301 -25 16c0 6.66699 2.66699 12.667 8 18l81 95c14.667 17.333 31.667 26 51 26h48c19.333 0 36.333 -8.66699 51 -26l81 -95c5.33301 -6.66699 8 -12.667 8 -18c0 -10.667 -8.33301 -16 -25 -16z" />
    <glyph glyph-name="ccircumflex" unicode="&#x109;" 
d="M298 -10c-59.333 0 -107.832 16.6631 -145.499 49.9961s-56.5 75.333 -56.5 126v165c0 52 18.667 94.833 56 128.5s85.666 50.5 144.999 50.5c34.667 0 65.667 -6 93 -18s48.333 -26.667 63 -44s25.667 -34.666 33 -51.999s11 -32.666 11 -45.999
c0 -7.33301 -2.66699 -13.666 -8 -18.999s-11.666 -8 -18.999 -8h-64c-18.667 0 -30.334 8.66699 -35.001 26c-2 6 -4.83301 12.5 -8.5 19.5s-11.5 15 -23.5 24s-26 13.5 -42 13.5c-21.333 0 -39.166 -7 -53.499 -21s-21.5 -31.667 -21.5 -53v-165
c0 -21.333 7.16699 -38.833 21.5 -52.5s32.5 -20.5 54.5 -20.5c18 0 33.167 4.83301 45.5 14.5s20 18.167 23 25.5s5.16699 14.333 6.5 21c3.33301 17.333 15.333 26 36 26h64c7.33301 0 13.666 -2.66699 18.999 -8s8 -11.666 8 -18.999c0 -13.333 -3.33301 -28.5 -10 -45.5
s-17.167 -34.833 -31.5 -53.5s-35.5 -34.167 -63.5 -46.5s-60.333 -18.5 -97 -18.5zM439.001 554.996h-54c-20 0 -35.667 7.66699 -47 23l-38 51l-37 -51c-12 -15.333 -28 -23 -48 -23h-54c-16.667 0 -25 5.33301 -25 16c0 6.66699 2.66699 12.667 8 18l81 95
c14.667 17.333 31.667 26 51 26h48c19.333 0 36.333 -8.66699 51 -26l81 -95c5.33301 -6.66699 8 -12.667 8 -18c0 -10.667 -8.33301 -16 -25 -16z" />
    <glyph glyph-name="Cdotaccent" unicode="&#x10a;" 
d="M512 188c0 -54.667 -20.001 -101.334 -60.001 -140.001s-88.333 -58 -145 -58s-105 19.333 -145 58s-60 85 -60 139v327c0 53.333 20.167 99.333 60.5 138s88.166 58 143.499 58c41.333 0 78.166 -10.5 110.499 -31.5s55.833 -44.667 70.5 -71s22 -51.166 22 -74.499
c0 -8.66699 -2.66699 -15.834 -8 -21.501s-12.333 -8.5 -21 -8.5h-60c-18 0 -28.667 10 -32 30c-2.66699 14 -11.167 28 -25.5 42s-32.833 21 -55.5 21c-22 0 -41.167 -7.5 -57.5 -22.5s-24.5 -32.833 -24.5 -53.5v-339c0 -20.667 8.16699 -38.667 24.5 -54
s35.5 -23 57.5 -23c22.667 0 42.834 7.33301 60.501 22s26.5 35.334 26.5 62.001c0 8.66699 2.83301 15.834 8.5 21.501s12.834 8.5 21.501 8.5h58c8.66699 0 15.834 -2.83301 21.501 -8.5s8.5 -12.834 8.5 -21.501zM362.999 876v-80.002c0 -16 -8.66699 -24 -26 -24h-76
c-7.33301 0 -13.166 2.33301 -17.499 7s-6.5 10.334 -6.5 17.001v80c0 6.66699 2.16699 12.334 6.5 17.001s10.166 7 17.499 7h76c17.333 0 26 -8 26 -24z" />
    <glyph glyph-name="cdotaccent" unicode="&#x10b;" 
d="M298 -10c-59.333 0 -107.832 16.6631 -145.499 49.9961s-56.5 75.333 -56.5 126v165c0 52 18.667 94.833 56 128.5s85.666 50.5 144.999 50.5c34.667 0 65.667 -6 93 -18s48.333 -26.667 63 -44s25.667 -34.666 33 -51.999s11 -32.666 11 -45.999
c0 -7.33301 -2.66699 -13.666 -8 -18.999s-11.666 -8 -18.999 -8h-64c-18.667 0 -30.334 8.66699 -35.001 26c-2 6 -4.83301 12.5 -8.5 19.5s-11.5 15 -23.5 24s-26 13.5 -42 13.5c-21.333 0 -39.166 -7 -53.499 -21s-21.5 -31.667 -21.5 -53v-165
c0 -21.333 7.16699 -38.833 21.5 -52.5s32.5 -20.5 54.5 -20.5c18 0 33.167 4.83301 45.5 14.5s20 18.167 23 25.5s5.16699 14.333 6.5 21c3.33301 17.333 15.333 26 36 26h64c7.33301 0 13.666 -2.66699 18.999 -8s8 -11.666 8 -18.999c0 -13.333 -3.33301 -28.5 -10 -45.5
s-17.167 -34.833 -31.5 -53.5s-35.5 -34.167 -63.5 -46.5s-60.333 -18.5 -97 -18.5zM363.001 675.996v-80.002c0 -16 -8.66699 -24 -26 -24h-76c-7.33301 0 -13.166 2.33301 -17.499 7s-6.5 10.334 -6.5 17.001v80c0 6.66699 2.16699 12.334 6.5 17.001s10.166 7 17.499 7
h76c17.333 0 26 -8 26 -24z" />
    <glyph glyph-name="Ccaron" unicode="&#x10c;" 
d="M512 188c0 -54.667 -20.001 -101.334 -60.001 -140.001s-88.333 -58 -145 -58s-105 19.333 -145 58s-60 85 -60 139v327c0 53.333 20.167 99.333 60.5 138s88.166 58 143.499 58c41.333 0 78.166 -10.5 110.499 -31.5s55.833 -44.667 70.5 -71s22 -51.166 22 -74.499
c0 -8.66699 -2.66699 -15.834 -8 -21.501s-12.333 -8.5 -21 -8.5h-60c-18 0 -28.667 10 -32 30c-2.66699 14 -11.167 28 -25.5 42s-32.833 21 -55.5 21c-22 0 -41.167 -7.5 -57.5 -22.5s-24.5 -32.833 -24.5 -53.5v-339c0 -20.667 8.16699 -38.667 24.5 -54
s35.5 -23 57.5 -23c22.667 0 42.834 7.33301 60.501 22s26.5 35.334 26.5 62.001c0 8.66699 2.83301 15.834 8.5 21.501s12.834 8.5 21.501 8.5h58c8.66699 0 15.834 -2.83301 21.501 -8.5s8.5 -12.834 8.5 -21.501zM160.999 910l53.999 0.000976562
c18.667 0 34.334 -7.66699 47.001 -23l38 -48l37 48c12 15.333 28 23 48 23h54c16.667 0 25 -5.66699 25 -17c0 -4.66699 -2.66699 -10.334 -8 -17.001l-81 -95c-14.667 -17.333 -31.667 -26 -51 -26h-48c-19.333 0 -36.333 8.66699 -51 26l-81 95
c-5.33301 5.33301 -8 11 -8 17c0 11.333 8.33301 17 25 17z" />
    <glyph glyph-name="ccaron" unicode="&#x10d;" 
d="M298 -10c-59.333 0 -107.832 16.6631 -145.499 49.9961s-56.5 75.333 -56.5 126v165c0 52 18.667 94.833 56 128.5s85.666 50.5 144.999 50.5c34.667 0 65.667 -6 93 -18s48.333 -26.667 63 -44s25.667 -34.666 33 -51.999s11 -32.666 11 -45.999
c0 -7.33301 -2.66699 -13.666 -8 -18.999s-11.666 -8 -18.999 -8h-64c-18.667 0 -30.334 8.66699 -35.001 26c-2 6 -4.83301 12.5 -8.5 19.5s-11.5 15 -23.5 24s-26 13.5 -42 13.5c-21.333 0 -39.166 -7 -53.499 -21s-21.5 -31.667 -21.5 -53v-165
c0 -21.333 7.16699 -38.833 21.5 -52.5s32.5 -20.5 54.5 -20.5c18 0 33.167 4.83301 45.5 14.5s20 18.167 23 25.5s5.16699 14.333 6.5 21c3.33301 17.333 15.333 26 36 26h64c7.33301 0 13.666 -2.66699 18.999 -8s8 -11.666 8 -18.999c0 -13.333 -3.33301 -28.5 -10 -45.5
s-17.167 -34.833 -31.5 -53.5s-35.5 -34.167 -63.5 -46.5s-60.333 -18.5 -97 -18.5zM161.001 709.996l53.999 0.000976562c18.667 0 34.334 -7.66699 47.001 -23l38 -48l37 48c12 15.333 28 23 48 23h54c16.667 0 25 -5.66699 25 -17
c0 -4.66699 -2.66699 -10.334 -8 -17.001l-81 -95c-14.667 -17.333 -31.667 -26 -51 -26h-48c-19.333 0 -36.333 8.66699 -51 26l-81 95c-5.33301 5.33301 -8 11 -8 17c0 11.333 8.33301 17 25 17z" />
    <glyph glyph-name="Dcaron" unicode="&#x10e;" 
d="M303 0l-169 -0.00195312c-8.66699 0 -15.834 2.83301 -21.501 8.5s-8.5 12.834 -8.5 21.501v640c0 8.66699 2.83301 15.834 8.5 21.501s12.834 8.5 21.501 8.5h169c54 0 100 -19 138 -57s57 -84 57 -138v-310c0 -54 -19 -100 -57 -138s-84 -57 -138 -57zM374 189.998v319
c0 20.667 -7.16699 38.167 -21.5 52.5s-31.833 21.5 -52.5 21.5h-76v-466h76c20.667 0 38.167 7 52.5 21s21.5 31.333 21.5 52zM135 909.998l53.999 0.000976562c18.667 0 34.334 -7.66699 47.001 -23l38 -48l37 48c12 15.333 28 23 48 23h54c16.667 0 25 -5.66699 25 -17
c0 -4.66699 -2.66699 -10.334 -8 -17.001l-81 -95c-14.667 -17.333 -31.667 -26 -51 -26h-48c-19.333 0 -36.333 8.66699 -51 26l-81 95c-5.33301 5.33301 -8 11 -8 17c0 11.333 8.33301 17 25 17z" />
    <glyph glyph-name="dcaron" unicode="&#x10f;" 
d="M180 337v-174c0 -18 7.16699 -33.833 21.5 -47.5s32.5 -20.5 54.5 -20.5s40.833 7.16699 56.5 21.5s23.5 30.833 23.5 49.5v168c0 20 -7.66699 37.167 -23 51.5s-34.333 21.5 -57 21.5c-22 0 -40.167 -7.16699 -54.5 -21.5s-21.5 -30.5 -21.5 -48.5zM336 476
l0.00195312 197c0 7.33301 2.66699 13.666 8 18.999s11.666 8 18.999 8h70c7.33301 0 13.666 -2.66699 18.999 -8s8 -11.666 8 -18.999v-646c0 -7.33301 -2.66699 -13.666 -8 -18.999s-11.666 -8 -18.999 -8h-60c-7.33301 0 -13.666 2.66699 -18.999 8s-8 11.666 -8 18.999
v8c-28.667 -28.667 -66.334 -43 -113.001 -43c-49.333 0 -91.333 16.167 -126 48.5s-52 72.833 -52 121.5v176c0 50 17.333 91.167 52 123.5s76 48.5 124 48.5c20 0 38.667 -2.83301 56 -8.5s29.666 -11.5 36.999 -17.5zM565.002 532l-32 0.000976562
c-18.667 0 -28 7 -28 21c0 5.33301 1.33301 10.666 4 15.999l46 108c7.33301 16 22.333 24 45 24h52c20.667 0 31 -7.66699 31 -23c0 -3.33301 -2 -9 -6 -17l-70 -103c-12.667 -17.333 -26.667 -26 -42 -26z" />
    <glyph glyph-name="Dcroat" unicode="&#x110;" 
d="M324 0l-169 -0.00195312c-8.66699 0 -15.834 2.83301 -21.501 8.5s-8.5 12.834 -8.5 21.501v278h-37c-6.66699 0 -12.334 2.33301 -17.001 7s-7 10.334 -7 17.001v65c0 7.33301 2.33301 13.166 7 17.499s10.334 6.5 17.001 6.5h37v249
c0 8.66699 2.83301 15.834 8.5 21.501s12.834 8.5 21.501 8.5h169c54 0 100 -19 138 -57s57 -84 57 -138v-310c0 -54 -19 -100 -57 -138s-84 -57 -138 -57zM395 189.998v319c0 20.667 -7.16699 38.167 -21.5 52.5s-31.833 21.5 -52.5 21.5h-76v-162h55
c17.333 0 26 -8 26 -24v-65c0 -16 -8.66699 -24 -26 -24h-55v-191h76c20.667 0 38.167 7 52.5 21s21.5 31.333 21.5 52z" />
    <glyph glyph-name="dcroat" unicode="&#x111;" 
d="M370 467l0.00195312 83h-87c-6.66699 0 -12 2 -16 6s-6 9 -6 15v52c0 6 2 11 6 15s9.33301 6 16 6h87v29c0 7.33301 2.66699 13.666 8 18.999s11.666 8 18.999 8h70c7.33301 0 13.666 -2.66699 18.999 -8s8 -11.666 8 -18.999v-29h36c15.333 0 23 -7 23 -21v-52
c0 -14 -7.66699 -21 -23 -21h-36v-523c0 -7.33301 -2.66699 -13.666 -8 -18.999s-11.666 -8 -18.999 -8h-60c-7.33301 0 -13.666 2.66699 -18.999 8s-8 11.666 -8 18.999v8c-28.667 -28.667 -66.334 -43 -113.001 -43c-49.333 0 -91.333 16.167 -126 48.5
s-52 72.833 -52 121.5v167c0 50 17.333 91.167 52 123.5s76 48.5 124 48.5c20 0 38.667 -2.83301 56 -8.5s29.666 -11.167 36.999 -16.5zM214.002 328v-165c0 -18 7.16699 -33.833 21.5 -47.5s32.5 -20.5 54.5 -20.5s40.833 7.16699 56.5 21.5s23.5 30.833 23.5 49.5v159
c0 20 -7.66699 37.167 -23 51.5s-34.333 21.5 -57 21.5c-22 0 -40.167 -7.16699 -54.5 -21.5s-21.5 -30.5 -21.5 -48.5z" />
    <glyph glyph-name="Emacron" unicode="&#x112;" 
d="M469 0l-319 0.00390625c-8.66699 0 -15.834 2.83301 -21.501 8.5s-8.5 12.834 -8.5 21.501v640c0 8.66699 2.83301 15.834 8.5 21.501s12.834 8.5 21.501 8.5h312c8.66699 0 15.834 -2.83301 21.501 -8.5s8.5 -12.834 8.5 -21.501v-57
c0 -8.66699 -2.83301 -15.834 -8.5 -21.501s-12.834 -8.5 -21.501 -8.5h-223v-160h201c8.66699 0 15.834 -2.83301 21.501 -8.5s8.5 -12.834 8.5 -21.501v-56c0 -8.66699 -2.83301 -15.834 -8.5 -21.501s-12.834 -8.5 -21.501 -8.5h-201v-190h230
c8.66699 0 15.834 -2.83301 21.501 -8.5s8.5 -12.834 8.5 -21.501v-57c0 -8.66699 -2.83301 -15.834 -8.5 -21.501s-12.834 -8.5 -21.501 -8.5zM451 855.004v-62c0 -14 -7.66699 -21 -23 -21h-244c-6.66699 0 -12 2 -16 6s-6 9 -6 15v62c0 6 2 11 6 15s9.33301 6 16 6h244
c15.333 0 23 -7 23 -21z" />
    <glyph glyph-name="emacron" unicode="&#x113;" 
d="M224 338v-29h155v29c0 18 -7.5 34.167 -22.5 48.5s-33.5 21.5 -55.5 21.5c-20.667 0 -38.667 -7.33301 -54 -22s-23 -30.667 -23 -48zM300 -9c-58.667 0 -107 17 -145 51s-57 75.333 -57 124v168c0 48.667 19.167 90.167 57.5 124.5s86.833 51.5 145.5 51.5
s107 -16.667 145 -50s57 -74 57 -122v-91c0 -9.33301 -3.33301 -17.166 -10 -23.499s-15 -9.5 -25 -9.5h-244v-50c0 -18 7.33301 -34.167 22 -48.5s32.667 -21.5 54 -21.5c22 0 38.833 3.83301 50.5 11.5s18.5 15.167 20.5 22.5c4 14.667 15 22 33 22h63c18 0 27 -9 27 -27
c0 -28.667 -17.667 -57.834 -53 -87.501s-82.333 -44.5 -141 -44.5zM444 655v-62c0 -14 -7.66699 -21 -23 -21h-244c-6.66699 0 -12 2 -16 6s-6 9 -6 15v62c0 6 2 11 6 15s9.33301 6 16 6h244c15.333 0 23 -7 23 -21z" />
    <glyph glyph-name="Ebreve" unicode="&#x114;" 
d="M469 0l-319 0.00390625c-8.66699 0 -15.834 2.83301 -21.501 8.5s-8.5 12.834 -8.5 21.501v640c0 8.66699 2.83301 15.834 8.5 21.501s12.834 8.5 21.501 8.5h312c8.66699 0 15.834 -2.83301 21.501 -8.5s8.5 -12.834 8.5 -21.501v-57
c0 -8.66699 -2.83301 -15.834 -8.5 -21.501s-12.834 -8.5 -21.501 -8.5h-223v-160h201c8.66699 0 15.834 -2.83301 21.501 -8.5s8.5 -12.834 8.5 -21.501v-56c0 -8.66699 -2.83301 -15.834 -8.5 -21.501s-12.834 -8.5 -21.501 -8.5h-201v-190h230
c8.66699 0 15.834 -2.83301 21.501 -8.5s8.5 -12.834 8.5 -21.501v-57c0 -8.66699 -2.83301 -15.834 -8.5 -21.501s-12.834 -8.5 -21.501 -8.5zM174 910.004h59.002c12.667 0 20.667 -6.33301 24 -19c4 -14.667 9.5 -25.667 16.5 -33s18.833 -11 35.5 -11
c16 0 27.667 3.66699 35 11s13 18.333 17 33c3.33301 12.667 11.333 19 24 19h61c9.33301 0 14 -6.33301 14 -19c0 -10.667 -2.66699 -23 -8 -37s-13.333 -28.833 -24 -44.5s-26.334 -28.667 -47.001 -39s-44.667 -15.5 -72 -15.5s-51.333 5.16699 -72 15.5
s-36.334 23.333 -47.001 39s-18.667 30.5 -24 44.5s-8 26.333 -8 37c0 12.667 5.33301 19 16 19z" />
    <glyph glyph-name="ebreve" unicode="&#x115;" 
d="M224 338v-29h155v29c0 18 -7.5 34.167 -22.5 48.5s-33.5 21.5 -55.5 21.5c-20.667 0 -38.667 -7.33301 -54 -22s-23 -30.667 -23 -48zM300 -9c-58.667 0 -107 17 -145 51s-57 75.333 -57 124v168c0 48.667 19.167 90.167 57.5 124.5s86.833 51.5 145.5 51.5
s107 -16.667 145 -50s57 -74 57 -122v-91c0 -9.33301 -3.33301 -17.166 -10 -23.499s-15 -9.5 -25 -9.5h-244v-50c0 -18 7.33301 -34.167 22 -48.5s32.667 -21.5 54 -21.5c22 0 38.833 3.83301 50.5 11.5s18.5 15.167 20.5 22.5c4 14.667 15 22 33 22h63c18 0 27 -9 27 -27
c0 -28.667 -17.667 -57.834 -53 -87.501s-82.333 -44.5 -141 -44.5zM165 710h59.002c12.667 0 20.667 -6.33301 24 -19c4 -14.667 9.5 -25.667 16.5 -33s18.833 -11 35.5 -11c16 0 27.667 3.66699 35 11s13 18.333 17 33c3.33301 12.667 11.333 19 24 19h61
c9.33301 0 14 -6.33301 14 -19c0 -10.667 -2.66699 -23 -8 -37s-13.333 -28.833 -24 -44.5s-26.334 -28.667 -47.001 -39s-44.667 -15.5 -72 -15.5s-51.333 5.16699 -72 15.5s-36.334 23.333 -47.001 39s-18.667 30.5 -24 44.5s-8 26.333 -8 37c0 12.667 5.33301 19 16 19z
" />
    <glyph glyph-name="Edotaccent" unicode="&#x116;" 
d="M469 0l-319 0.00390625c-8.66699 0 -15.834 2.83301 -21.501 8.5s-8.5 12.834 -8.5 21.501v640c0 8.66699 2.83301 15.834 8.5 21.501s12.834 8.5 21.501 8.5h312c8.66699 0 15.834 -2.83301 21.501 -8.5s8.5 -12.834 8.5 -21.501v-57
c0 -8.66699 -2.83301 -15.834 -8.5 -21.501s-12.834 -8.5 -21.501 -8.5h-223v-160h201c8.66699 0 15.834 -2.83301 21.501 -8.5s8.5 -12.834 8.5 -21.501v-56c0 -8.66699 -2.83301 -15.834 -8.5 -21.501s-12.834 -8.5 -21.501 -8.5h-201v-190h230
c8.66699 0 15.834 -2.83301 21.501 -8.5s8.5 -12.834 8.5 -21.501v-57c0 -8.66699 -2.83301 -15.834 -8.5 -21.501s-12.834 -8.5 -21.501 -8.5zM371 876.004v-80.002c0 -16 -8.66699 -24 -26 -24h-76c-7.33301 0 -13.166 2.33301 -17.499 7s-6.5 10.334 -6.5 17.001v80
c0 6.66699 2.16699 12.334 6.5 17.001s10.166 7 17.499 7h76c17.333 0 26 -8 26 -24z" />
    <glyph glyph-name="edotaccent" unicode="&#x117;" 
d="M224 338v-29h155v29c0 18 -7.5 34.167 -22.5 48.5s-33.5 21.5 -55.5 21.5c-20.667 0 -38.667 -7.33301 -54 -22s-23 -30.667 -23 -48zM300 -9c-58.667 0 -107 17 -145 51s-57 75.333 -57 124v168c0 48.667 19.167 90.167 57.5 124.5s86.833 51.5 145.5 51.5
s107 -16.667 145 -50s57 -74 57 -122v-91c0 -9.33301 -3.33301 -17.166 -10 -23.499s-15 -9.5 -25 -9.5h-244v-50c0 -18 7.33301 -34.167 22 -48.5s32.667 -21.5 54 -21.5c22 0 38.833 3.83301 50.5 11.5s18.5 15.167 20.5 22.5c4 14.667 15 22 33 22h63c18 0 27 -9 27 -27
c0 -28.667 -17.667 -57.834 -53 -87.501s-82.333 -44.5 -141 -44.5zM363 676v-80.002c0 -16 -8.66699 -24 -26 -24h-76c-7.33301 0 -13.166 2.33301 -17.499 7s-6.5 10.334 -6.5 17.001v80c0 6.66699 2.16699 12.334 6.5 17.001s10.166 7 17.499 7h76c17.333 0 26 -8 26 -24
z" />
    <glyph glyph-name="Eogonek" unicode="&#x118;" 
d="M150 700l312 0.00390625c8.66699 0 15.834 -2.83301 21.501 -8.5s8.5 -12.834 8.5 -21.501v-57c0 -8.66699 -2.83301 -15.834 -8.5 -21.501s-12.834 -8.5 -21.501 -8.5h-223v-160h201c8.66699 0 15.834 -2.83301 21.501 -8.5s8.5 -12.834 8.5 -21.501v-56
c0 -8.66699 -2.83301 -15.834 -8.5 -21.501s-12.834 -8.5 -21.501 -8.5h-201v-190h230c8.66699 0 15.834 -2.83301 21.501 -8.5s8.5 -12.834 8.5 -21.501v-57c0 -10 -5 -18.667 -15 -26c-11.333 -8 -25 -21.833 -41 -41.5s-24 -35.167 -24 -46.5
c0 -9.33301 5.33301 -14 16 -14h41c5.33301 0 10 -2 14 -6s6 -8.66699 6 -14v-52c0 -5.33301 -2 -10 -6 -14s-8.66699 -6 -14 -6h-69c-26 0 -47.333 8.66699 -64 26s-25 36.333 -25 57c0 12.667 2.16699 25 6.5 37s9.66602 22 15.999 30s12.833 15.167 19.5 21.5
s12 11.166 16 14.499l7 4h-233c-8.66699 0 -15.834 2.83301 -21.501 8.5s-8.5 12.834 -8.5 21.501v640c0 8.66699 2.83301 15.834 8.5 21.501s12.834 8.5 21.501 8.5z" />
    <glyph glyph-name="eogonek" unicode="&#x119;" 
d="M300 -9c-58.667 0 -106.999 17 -144.999 51s-57 75.333 -57 124v168c0 48.667 19.167 90.167 57.5 124.5s86.833 51.5 145.5 51.5s107 -16.667 145 -50s57 -74 57 -122v-91c0 -9.33301 -3.33301 -17.166 -10 -23.499s-15 -9.5 -25 -9.5h-244v-50
c0 -18 7.33301 -34.167 22 -48.5s32.667 -21.5 54 -21.5c22 0 38.833 3.83301 50.5 11.5s18.5 15.167 20.5 22.5c4 14.667 15 22 33 22h63c18 0 27 -9 27 -27c0 -30.667 -15 -57.667 -45 -81c-18.667 -14.667 -37.834 -34.334 -57.501 -59.001s-29.5 -45 -29.5 -61
c0 -13.333 5.33301 -20 16 -20h41c5.33301 0 10 -2 14 -6s6 -8.66699 6 -14v-52c0 -5.33301 -2 -10 -6 -14s-8.66699 -6 -14 -6h-69c-26 0 -47.333 8.66699 -64 26s-25 36.333 -25 57c0 17.333 5 34.333 15 51s20 28.667 30 36l15 12zM224.001 338v-29h155v29
c0 18 -7.5 34.167 -22.5 48.5s-33.5 21.5 -55.5 21.5c-20.667 0 -38.667 -7.33301 -54 -22s-23 -30.667 -23 -48z" />
    <glyph glyph-name="Ecaron" unicode="&#x11a;" 
d="M469 0l-319 0.00390625c-8.66699 0 -15.834 2.83301 -21.501 8.5s-8.5 12.834 -8.5 21.501v640c0 8.66699 2.83301 15.834 8.5 21.501s12.834 8.5 21.501 8.5h312c8.66699 0 15.834 -2.83301 21.501 -8.5s8.5 -12.834 8.5 -21.501v-57
c0 -8.66699 -2.83301 -15.834 -8.5 -21.501s-12.834 -8.5 -21.501 -8.5h-223v-160h201c8.66699 0 15.834 -2.83301 21.501 -8.5s8.5 -12.834 8.5 -21.501v-56c0 -8.66699 -2.83301 -15.834 -8.5 -21.501s-12.834 -8.5 -21.501 -8.5h-201v-190h230
c8.66699 0 15.834 -2.83301 21.501 -8.5s8.5 -12.834 8.5 -21.501v-57c0 -8.66699 -2.83301 -15.834 -8.5 -21.501s-12.834 -8.5 -21.501 -8.5zM177 910.004l53.999 0.000976562c18.667 0 34.334 -7.66699 47.001 -23l38 -48l37 48c12 15.333 28 23 48 23h54
c16.667 0 25 -5.66699 25 -17c0 -4.66699 -2.66699 -10.334 -8 -17.001l-81 -95c-14.667 -17.333 -31.667 -26 -51 -26h-48c-19.333 0 -36.333 8.66699 -51 26l-81 95c-5.33301 5.33301 -8 11 -8 17c0 11.333 8.33301 17 25 17z" />
    <glyph glyph-name="ecaron" unicode="&#x11b;" 
d="M224 338v-29h155v29c0 18 -7.5 34.167 -22.5 48.5s-33.5 21.5 -55.5 21.5c-20.667 0 -38.667 -7.33301 -54 -22s-23 -30.667 -23 -48zM300 -9c-58.667 0 -107 17 -145 51s-57 75.333 -57 124v168c0 48.667 19.167 90.167 57.5 124.5s86.833 51.5 145.5 51.5
s107 -16.667 145 -50s57 -74 57 -122v-91c0 -9.33301 -3.33301 -17.166 -10 -23.499s-15 -9.5 -25 -9.5h-244v-50c0 -18 7.33301 -34.167 22 -48.5s32.667 -21.5 54 -21.5c22 0 38.833 3.83301 50.5 11.5s18.5 15.167 20.5 22.5c4 14.667 15 22 33 22h63c18 0 27 -9 27 -27
c0 -28.667 -17.667 -57.834 -53 -87.501s-82.333 -44.5 -141 -44.5zM161 710l53.999 0.000976562c18.667 0 34.334 -7.66699 47.001 -23l38 -48l37 48c12 15.333 28 23 48 23h54c16.667 0 25 -5.66699 25 -17c0 -4.66699 -2.66699 -10.334 -8 -17.001l-81 -95
c-14.667 -17.333 -31.667 -26 -51 -26h-48c-19.333 0 -36.333 8.66699 -51 26l-81 95c-5.33301 5.33301 -8 11 -8 17c0 11.333 8.33301 17 25 17z" />
    <glyph glyph-name="Gcircumflex" unicode="&#x11c;" 
d="M326 378h151.002c8.66699 0 15.834 -2.83301 21.501 -8.5s8.5 -12.834 8.5 -21.501v-162c0 -54 -19.833 -100.167 -59.5 -138.5s-88.167 -57.5 -145.5 -57.5c-56.667 0 -105 19.333 -145 58s-60 85 -60 139v327c0 53.333 20.167 99.333 60.5 138s88.166 58 143.499 58
c41.333 0 78 -10.5 110 -31.5s55.167 -44.667 69.5 -71s21.5 -51.166 21.5 -74.499c0 -8.66699 -2.66699 -15.834 -8 -21.501s-12.333 -8.5 -21 -8.5h-60c-18 0 -28.667 10 -32 30c-2.66699 14.667 -10.834 28.834 -24.501 42.501s-31.834 20.5 -54.501 20.5
c-22 0 -41.167 -7.5 -57.5 -22.5s-24.5 -32.833 -24.5 -53.5v-339c0 -20.667 8.16699 -38.667 24.5 -54s35.5 -23 57.5 -23c20.667 0 40.167 7.33301 58.5 22s27.5 33 27.5 55l1 84h-63c-6.66699 0 -12.334 2.16699 -17.001 6.5s-7 10.166 -7 17.499v65
c0 6.66699 2.33301 12.334 7 17.001s10.334 7 17.001 7zM439.002 755h-54c-20 0 -35.667 7.66699 -47 23l-38 51l-37 -51c-12 -15.333 -28 -23 -48 -23h-54c-16.667 0 -25 5.33301 -25 16c0 6.66699 2.66699 12.667 8 18l81 95c14.667 17.333 31.667 26 51 26h48
c19.333 0 36.333 -8.66699 51 -26l81 -95c5.33301 -6.66699 8 -12.667 8 -18c0 -10.667 -8.33301 -16 -25 -16z" />
    <glyph glyph-name="gcircumflex" unicode="&#x11d;" 
d="M344 283v71c0 14.667 -5.83301 27.167 -17.5 37.5s-27.167 15.5 -46.5 15.5c-18 0 -32.667 -5.16699 -44 -15.5s-17 -22.833 -17 -37.5v-71c0 -14.667 5.66699 -27.167 17 -37.5s26 -15.5 44 -15.5c19.333 0 34.833 5.16699 46.5 15.5s17.5 22.833 17.5 37.5zM379 -13
h-187.999c-11.333 0 -20.833 -3.83301 -28.5 -11.5s-11.5 -16.834 -11.5 -27.501c0 -10 3.83301 -18.333 11.5 -25s17.167 -10 28.5 -10h187c11.333 0 20.833 3.33301 28.5 10s11.5 15.334 11.5 26.001c0 10 -3.83301 18.833 -11.5 26.5s-16.834 11.5 -27.501 11.5z
M469.001 456c-10.667 -2 -21.0029 -9.66602 -31.0029 -22.999c17.333 -24.667 26 -53.334 26 -86.001v-60c0 -40 -15.667 -75.167 -47 -105.5s-70 -47.5 -116 -51.5v-50h99c36.667 0 68.167 -12.667 94.5 -38s39.5 -56.666 39.5 -93.999c0 -38 -12.667 -68.833 -38 -92.5
s-57.666 -35.5 -96.999 -35.5h-212c-37.333 0 -68.333 11.833 -93 35.5s-37 54.5 -37 92.5s13 69.5 39 94.5s58.333 37.5 97 37.5v69c-28 14 -50.667 33.5 -68 58.5s-26 51.5 -26 79.5v60c0 46 18.333 84.667 55 116s80.334 47 131.001 47c22 0 44.667 -4.66699 68 -14
c24.667 36.667 63.334 55 116.001 55c6.66699 0 12.5 -2.5 17.5 -7.5s7.5 -10.833 7.5 -17.5v-47c0 -12.667 -8.33301 -20.334 -25 -23.001zM416.998 564.001h-54c-17.333 0 -33 7.66699 -47 23l-38 42l-37 -42c-14 -15.333 -30 -23 -48 -23h-54
c-12.667 0 -20.667 3.5 -24 10.5s-1 14.833 7 23.5l81 88c14.667 17.333 31.667 26 51 26h48c19.333 0 36.333 -8.66699 51 -26l81 -88c8 -8.66699 10.333 -16.5 7 -23.5s-11.333 -10.5 -24 -10.5z" />
    <glyph glyph-name="Gbreve" unicode="&#x11e;" 
d="M326 378h151.002c8.66699 0 15.834 -2.83301 21.501 -8.5s8.5 -12.834 8.5 -21.501v-162c0 -54 -19.833 -100.167 -59.5 -138.5s-88.167 -57.5 -145.5 -57.5c-56.667 0 -105 19.333 -145 58s-60 85 -60 139v327c0 53.333 20.167 99.333 60.5 138s88.166 58 143.499 58
c41.333 0 78 -10.5 110 -31.5s55.167 -44.667 69.5 -71s21.5 -51.166 21.5 -74.499c0 -8.66699 -2.66699 -15.834 -8 -21.501s-12.333 -8.5 -21 -8.5h-60c-18 0 -28.667 10 -32 30c-2.66699 14.667 -10.834 28.834 -24.501 42.501s-31.834 20.5 -54.501 20.5
c-22 0 -41.167 -7.5 -57.5 -22.5s-24.5 -32.833 -24.5 -53.5v-339c0 -20.667 8.16699 -38.667 24.5 -54s35.5 -23 57.5 -23c20.667 0 40.167 7.33301 58.5 22s27.5 33 27.5 55l1 84h-63c-6.66699 0 -12.334 2.16699 -17.001 6.5s-7 10.166 -7 17.499v65
c0 6.66699 2.33301 12.334 7 17.001s10.334 7 17.001 7zM165.002 910h59.002c12.667 0 20.667 -6.33301 24 -19c4 -14.667 9.5 -25.667 16.5 -33s18.833 -11 35.5 -11c16 0 27.667 3.66699 35 11s13 18.333 17 33c3.33301 12.667 11.333 19 24 19h61
c9.33301 0 14 -6.33301 14 -19c0 -10.667 -2.66699 -23 -8 -37s-13.333 -28.833 -24 -44.5s-26.334 -28.667 -47.001 -39s-44.667 -15.5 -72 -15.5s-51.333 5.16699 -72 15.5s-36.334 23.333 -47.001 39s-18.667 30.5 -24 44.5s-8 26.333 -8 37c0 12.667 5.33301 19 16 19z
" />
    <glyph glyph-name="gbreve" unicode="&#x11f;" 
d="M344 283v71c0 14.667 -5.83301 27.167 -17.5 37.5s-27.167 15.5 -46.5 15.5c-18 0 -32.667 -5.16699 -44 -15.5s-17 -22.833 -17 -37.5v-71c0 -14.667 5.66699 -27.167 17 -37.5s26 -15.5 44 -15.5c19.333 0 34.833 5.16699 46.5 15.5s17.5 22.833 17.5 37.5zM379 -13
h-187.999c-11.333 0 -20.833 -3.83301 -28.5 -11.5s-11.5 -16.834 -11.5 -27.501c0 -10 3.83301 -18.333 11.5 -25s17.167 -10 28.5 -10h187c11.333 0 20.833 3.33301 28.5 10s11.5 15.334 11.5 26.001c0 10 -3.83301 18.833 -11.5 26.5s-16.834 11.5 -27.501 11.5z
M469.001 456c-10.667 -2 -21.0029 -9.66602 -31.0029 -22.999c17.333 -24.667 26 -53.334 26 -86.001v-60c0 -40 -15.667 -75.167 -47 -105.5s-70 -47.5 -116 -51.5v-50h99c36.667 0 68.167 -12.667 94.5 -38s39.5 -56.666 39.5 -93.999c0 -38 -12.667 -68.833 -38 -92.5
s-57.666 -35.5 -96.999 -35.5h-212c-37.333 0 -68.333 11.833 -93 35.5s-37 54.5 -37 92.5s13 69.5 39 94.5s58.333 37.5 97 37.5v69c-28 14 -50.667 33.5 -68 58.5s-26 51.5 -26 79.5v60c0 46 18.333 84.667 55 116s80.334 47 131.001 47c22 0 44.667 -4.66699 68 -14
c28.667 42.667 67.334 64 116.001 64c6.66699 0 12.5 -2.5 17.5 -7.5s7.5 -10.833 7.5 -17.5v-56c0 -12.667 -8.33301 -20.334 -25 -23.001zM142.998 710.001h59.002c12.667 0 20.667 -6.33301 24 -19c4 -14.667 9.5 -25.667 16.5 -33s18.833 -11 35.5 -11
c16 0 27.667 3.66699 35 11s13 18.333 17 33c3.33301 12.667 11.333 19 24 19h61c9.33301 0 14 -6.33301 14 -19c0 -10.667 -2.66699 -23 -8 -37s-13.333 -28.833 -24 -44.5s-26.334 -28.667 -47.001 -39s-44.667 -15.5 -72 -15.5s-51.333 5.16699 -72 15.5
s-36.334 23.333 -47.001 39s-18.667 30.5 -24 44.5s-8 26.333 -8 37c0 12.667 5.33301 19 16 19z" />
    <glyph glyph-name="Gdotaccent" unicode="&#x120;" 
d="M326 378h151.002c8.66699 0 15.834 -2.83301 21.501 -8.5s8.5 -12.834 8.5 -21.501v-162c0 -54 -19.833 -100.167 -59.5 -138.5s-88.167 -57.5 -145.5 -57.5c-56.667 0 -105 19.333 -145 58s-60 85 -60 139v327c0 53.333 20.167 99.333 60.5 138s88.166 58 143.499 58
c41.333 0 78 -10.5 110 -31.5s55.167 -44.667 69.5 -71s21.5 -51.166 21.5 -74.499c0 -8.66699 -2.66699 -15.834 -8 -21.501s-12.333 -8.5 -21 -8.5h-60c-18 0 -28.667 10 -32 30c-2.66699 14.667 -10.834 28.834 -24.501 42.501s-31.834 20.5 -54.501 20.5
c-22 0 -41.167 -7.5 -57.5 -22.5s-24.5 -32.833 -24.5 -53.5v-339c0 -20.667 8.16699 -38.667 24.5 -54s35.5 -23 57.5 -23c20.667 0 40.167 7.33301 58.5 22s27.5 33 27.5 55l1 84h-63c-6.66699 0 -12.334 2.16699 -17.001 6.5s-7 10.166 -7 17.499v65
c0 6.66699 2.33301 12.334 7 17.001s10.334 7 17.001 7zM363.002 876v-80.002c0 -16 -8.66699 -24 -26 -24h-76c-7.33301 0 -13.166 2.33301 -17.499 7s-6.5 10.334 -6.5 17.001v80c0 6.66699 2.16699 12.334 6.5 17.001s10.166 7 17.499 7h76c17.333 0 26 -8 26 -24z" />
    <glyph glyph-name="gdotaccent" unicode="&#x121;" 
d="M344 283v71c0 14.667 -5.83301 27.167 -17.5 37.5s-27.167 15.5 -46.5 15.5c-18 0 -32.667 -5.16699 -44 -15.5s-17 -22.833 -17 -37.5v-71c0 -14.667 5.66699 -27.167 17 -37.5s26 -15.5 44 -15.5c19.333 0 34.833 5.16699 46.5 15.5s17.5 22.833 17.5 37.5zM379 -13
h-187.999c-11.333 0 -20.833 -3.83301 -28.5 -11.5s-11.5 -16.834 -11.5 -27.501c0 -10 3.83301 -18.333 11.5 -25s17.167 -10 28.5 -10h187c11.333 0 20.833 3.33301 28.5 10s11.5 15.334 11.5 26.001c0 10 -3.83301 18.833 -11.5 26.5s-16.834 11.5 -27.501 11.5z
M469.001 456c-10.667 -2 -21.0029 -9.66602 -31.0029 -22.999c17.333 -24.667 26 -53.334 26 -86.001v-60c0 -40 -15.667 -75.167 -47 -105.5s-70 -47.5 -116 -51.5v-50h99c36.667 0 68.167 -12.667 94.5 -38s39.5 -56.666 39.5 -93.999c0 -38 -12.667 -68.833 -38 -92.5
s-57.666 -35.5 -96.999 -35.5h-212c-37.333 0 -68.333 11.833 -93 35.5s-37 54.5 -37 92.5s13 69.5 39 94.5s58.333 37.5 97 37.5v69c-28 14 -50.667 33.5 -68 58.5s-26 51.5 -26 79.5v60c0 46 18.333 84.667 55 116s80.334 47 131.001 47c22 0 44.667 -4.66699 68 -14
c28.667 42.667 67.334 64 116.001 64c6.66699 0 12.5 -2.5 17.5 -7.5s7.5 -10.833 7.5 -17.5v-56c0 -12.667 -8.33301 -20.334 -25 -23.001zM340.998 676.001v-80.002c0 -16 -8.66699 -24 -26 -24h-76c-7.33301 0 -13.166 2.33301 -17.499 7s-6.5 10.334 -6.5 17.001v80
c0 6.66699 2.16699 12.334 6.5 17.001s10.166 7 17.499 7h76c17.333 0 26 -8 26 -24z" />
    <glyph glyph-name="Gcommaaccent" unicode="&#x122;" 
d="M326 378h151.002c8.66699 0 15.834 -2.83301 21.501 -8.5s8.5 -12.834 8.5 -21.501v-162c0 -54 -19.833 -100.167 -59.5 -138.5s-88.167 -57.5 -145.5 -57.5c-56.667 0 -105 19.333 -145 58s-60 85 -60 139v327c0 53.333 20.167 99.333 60.5 138s88.166 58 143.499 58
c41.333 0 78 -10.5 110 -31.5s55.167 -44.667 69.5 -71s21.5 -51.166 21.5 -74.499c0 -8.66699 -2.66699 -15.834 -8 -21.501s-12.333 -8.5 -21 -8.5h-60c-18 0 -28.667 10 -32 30c-2.66699 14.667 -10.834 28.834 -24.501 42.501s-31.834 20.5 -54.501 20.5
c-22 0 -41.167 -7.5 -57.5 -22.5s-24.5 -32.833 -24.5 -53.5v-339c0 -20.667 8.16699 -38.667 24.5 -54s35.5 -23 57.5 -23c20.667 0 40.167 7.33301 58.5 22s27.5 33 27.5 55l1 84h-63c-6.66699 0 -12.334 2.16699 -17.001 6.5s-7 10.166 -7 17.499v65
c0 6.66699 2.33301 12.334 7 17.001s10.334 7 17.001 7zM249.002 -223l-32 0.000976562c-18.667 0 -28 7 -28 21c0 5.33301 1.33301 10.666 4 15.999l46 108c7.33301 16 22.333 24 45 24h52c20.667 0 31 -7.66699 31 -23c0 -3.33301 -2 -9 -6 -17l-70 -103
c-12.667 -17.333 -26.667 -26 -42 -26z" />
    <glyph glyph-name="gcommaaccent" unicode="&#x123;" 
d="M344 283v71c0 14.667 -5.83301 27.167 -17.5 37.5s-27.167 15.5 -46.5 15.5c-18 0 -32.667 -5.16699 -44 -15.5s-17 -22.833 -17 -37.5v-71c0 -14.667 5.66699 -27.167 17 -37.5s26 -15.5 44 -15.5c19.333 0 34.833 5.16699 46.5 15.5s17.5 22.833 17.5 37.5zM379 -13
h-187.999c-11.333 0 -20.833 -3.83301 -28.5 -11.5s-11.5 -16.834 -11.5 -27.501c0 -10 3.83301 -18.333 11.5 -25s17.167 -10 28.5 -10h187c11.333 0 20.833 3.33301 28.5 10s11.5 15.334 11.5 26.001c0 10 -3.83301 18.833 -11.5 26.5s-16.834 11.5 -27.501 11.5z
M469.001 456c-10.667 -2 -21.0029 -9.66602 -31.0029 -22.999c17.333 -24.667 26 -53.334 26 -86.001v-60c0 -40 -15.667 -75.167 -47 -105.5s-70 -47.5 -116 -51.5v-50h99c36.667 0 68.167 -12.667 94.5 -38s39.5 -56.666 39.5 -93.999c0 -38 -12.667 -68.833 -38 -92.5
s-57.666 -35.5 -96.999 -35.5h-212c-37.333 0 -68.333 11.833 -93 35.5s-37 54.5 -37 92.5s13 69.5 39 94.5s58.333 37.5 97 37.5v69c-28 14 -50.667 33.5 -68 58.5s-26 51.5 -26 79.5v60c0 46 18.333 84.667 55 116s80.334 47 131.001 47c22 0 44.667 -4.66699 68 -14
c28.667 42.667 67.334 64 116.001 64c6.66699 0 12.5 -2.5 17.5 -7.5s7.5 -10.833 7.5 -17.5v-56c0 -12.667 -8.33301 -20.334 -25 -23.001zM332.998 720.001l32 -0.000976562c18.667 0 28 -7 28 -21c0 -5.33301 -1.33301 -10.666 -4 -15.999l-46 -108
c-7.33301 -16 -22.333 -24 -45 -24h-52c-20.667 0 -31 7.66699 -31 23c0 3.33301 2 9 6 17l70 103c12.667 17.333 26.667 26 42 26z" />
    <glyph glyph-name="Hcircumflex" unicode="&#x124;" 
d="M502 670v-640c0 -8.66699 -2.83301 -15.834 -8.5 -21.501s-12.834 -8.5 -21.501 -8.5h-59c-8.66699 0 -15.834 2.83301 -21.501 8.5s-8.5 12.834 -8.5 21.501v277h-166v-277c0 -8.66699 -2.83301 -15.834 -8.5 -21.501s-12.834 -8.5 -21.501 -8.5h-59
c-8.66699 0 -15.834 2.83301 -21.501 8.5s-8.5 12.834 -8.5 21.501v640c0 8.66699 2.83301 15.834 8.5 21.501s12.834 8.5 21.501 8.5h59c8.66699 0 15.834 -2.83301 21.501 -8.5s8.5 -12.834 8.5 -21.501v-244h166v244c0 8.66699 2.83301 15.834 8.5 21.501
s12.834 8.5 21.501 8.5h59c8.66699 0 15.834 -2.83301 21.501 -8.5s8.5 -12.834 8.5 -21.501zM439 755h-54c-20 0 -35.667 7.66699 -47 23l-38 51l-37 -51c-12 -15.333 -28 -23 -48 -23h-54c-16.667 0 -25 5.33301 -25 16c0 6.66699 2.66699 12.667 8 18l81 95
c14.667 17.333 31.667 26 51 26h48c19.333 0 36.333 -8.66699 51 -26l81 -95c5.33301 -6.66699 8 -12.667 8 -18c0 -10.667 -8.33301 -16 -25 -16z" />
    <glyph glyph-name="hcircumflex" unicode="&#x125;" 
d="M222 673l-0.00292969 -206c28.667 28.667 64.334 43 107.001 43c49.333 0 92 -17.5 128 -52.5s54 -77.5 54 -127.5v-303c0 -7.33301 -2.66699 -13.666 -8 -18.999s-11.666 -8 -18.999 -8h-69c-7.33301 0 -13.666 2.66699 -18.999 8s-8 11.666 -8 18.999v304
c0 20 -7.83301 37.333 -23.5 52s-34.5 22 -56.5 22c-22.667 0 -42.667 -7.33301 -60 -22s-26 -31.667 -26 -51v-305c0 -7.33301 -2.66699 -13.666 -8 -18.999s-11.666 -8 -18.999 -8h-68c-7.33301 0 -13.666 2.66699 -18.999 8s-8 11.666 -8 18.999v646
c0 7.33301 2.66699 13.666 8 18.999s11.666 8 18.999 8h68c7.33301 0 13.666 -2.66699 18.999 -8s8 -11.666 8 -18.999zM438.997 756h-54c-20 0 -35.667 7.66699 -47 23l-38 51l-37 -51c-12 -15.333 -28 -23 -48 -23h-54c-16.667 0 -25 5.33301 -25 16
c0 6.66699 2.66699 12.667 8 18l81 95c14.667 17.333 31.667 26 51 26h48c19.333 0 36.333 -8.66699 51 -26l81 -95c5.33301 -6.66699 8 -12.667 8 -18c0 -10.667 -8.33301 -16 -25 -16z" />
    <glyph glyph-name="Hbar" unicode="&#x126;" 
d="M502 670v-70.002h22c17.333 0 26 -8 26 -24v-52c0 -16 -8.66699 -24 -26 -24h-22v-470c0 -8.66699 -2.83301 -15.834 -8.5 -21.501s-12.834 -8.5 -21.501 -8.5h-59c-8.66699 0 -15.834 2.83301 -21.501 8.5s-8.5 12.834 -8.5 21.501v277h-166v-277
c0 -8.66699 -2.83301 -15.834 -8.5 -21.501s-12.834 -8.5 -21.501 -8.5h-59c-8.66699 0 -15.834 2.83301 -21.501 8.5s-8.5 12.834 -8.5 21.501v470h-24c-6.66699 0 -12.334 2.33301 -17.001 7s-7 10.334 -7 17.001v52c0 6.66699 2.33301 12.334 7 17.001s10.334 7 17.001 7
h24v70c0 8.66699 2.83301 15.834 8.5 21.501s12.834 8.5 21.501 8.5h59c8.66699 0 15.834 -2.83301 21.501 -8.5s8.5 -12.834 8.5 -21.501v-70h166v70c0 8.66699 2.83301 15.834 8.5 21.501s12.834 8.5 21.501 8.5h59c8.66699 0 15.834 -2.83301 21.501 -8.5
s8.5 -12.834 8.5 -21.501zM217 425.998h166v74h-166v-74z" />
    <glyph glyph-name="hbar" unicode="&#x127;" 
d="M222 673l-0.00292969 -28h84c15.333 0 23 -7 23 -21v-51c0 -14 -7.66699 -21 -23 -21h-84v-95c28.667 28.667 64.334 43 107.001 43c49.333 0 91.833 -17.5 127.5 -52.5s53.5 -77.5 53.5 -127.5v-293c0 -7.33301 -2.66699 -13.666 -8 -18.999s-11.666 -8 -18.999 -8h-68
c-7.33301 0 -13.666 2.66699 -18.999 8s-8 11.666 -8 18.999v294c0 20 -7.83301 37.333 -23.5 52s-34.5 22 -56.5 22c-22.667 0 -42.667 -7.33301 -60 -22s-26 -31.667 -26 -51v-295c0 -7.33301 -2.66699 -13.666 -8 -18.999s-11.666 -8 -18.999 -8h-68
c-7.33301 0 -13.666 2.66699 -18.999 8s-8 11.666 -8 18.999v525h-39c-6.66699 0 -12 2 -16 6s-6 9 -6 15v51c0 6 2 11 6 15s9.33301 6 16 6h39v28c0 7.33301 2.66699 13.666 8 18.999s11.666 8 18.999 8h68c7.33301 0 13.666 -2.66699 18.999 -8s8 -11.666 8 -18.999z" />
    <glyph glyph-name="Itilde" unicode="&#x128;" 
d="M500 92v-68.0039c0 -16 -8.66699 -24 -26 -24h-350c-6.66699 0 -12.334 2.33301 -17.001 7s-7 10.334 -7 17.001v68c0 6.66699 2.33301 12.334 7 17.001s10.334 7 17.001 7h115v468h-115c-6.66699 0 -12.334 2.33301 -17.001 7s-7 10.334 -7 17.001v68
c0 6.66699 2.33301 12.334 7 17.001s10.334 7 17.001 7h350c17.333 0 26 -8 26 -24v-68c0 -16 -8.66699 -24 -26 -24h-114v-468h114c17.333 0 26 -8 26 -24zM227 888.996c18.667 0 40.167 -6.16699 64.5 -18.5s40.166 -18.5 47.499 -18.5
c6.66699 0 12.334 1.83301 17.001 5.5s7.66699 7.16699 9 10.5c4.66699 13.333 11.334 20 20.001 20h72c6 0 11 -2.16699 15 -6.5s6 -9.5 6 -15.5c0 -28.667 -10 -55.5 -30 -80.5s-45.333 -37.5 -76 -37.5c-18.667 0 -40.167 6.16699 -64.5 18.5s-40.166 18.5 -47.499 18.5
c-6.66699 0 -12.334 -1.83301 -17.001 -5.5s-7.66699 -7.16699 -9 -10.5c-4.66699 -13.333 -11.334 -20 -20.001 -20h-72c-6 0 -11 2.16699 -15 6.5s-6 9.5 -6 15.5c0 28.667 10 55.5 30 80.5s45.333 37.5 76 37.5z" />
    <glyph glyph-name="itilde" unicode="&#x129;" 
d="M260 396l-140 -0.000976562c-6.66699 0 -12.5 2.33301 -17.5 7s-7.5 10.334 -7.5 17.001v56c0 6.66699 2.5 12.334 7.5 17.001s10.833 7 17.5 7h234c7.33301 0 14 -2.33301 20 -7s9 -10.334 9 -17.001v-372h122c6.66699 0 12.5 -2.33301 17.5 -7s7.5 -10.334 7.5 -17.001
v-56c0 -6.66699 -2.5 -12.334 -7.5 -17.001s-10.833 -7 -17.5 -7h-391c-6.66699 0 -12.5 2.33301 -17.5 7s-7.5 10.334 -7.5 17.001v56c0 6.66699 2.5 12.334 7.5 17.001s10.833 7 17.5 7h146v292zM242 688.999c18.667 0 40.167 -6.16699 64.5 -18.5
s40.166 -18.5 47.499 -18.5c6.66699 0 12.334 1.83301 17.001 5.5s7.66699 7.16699 9 10.5c4.66699 13.333 11.334 20 20.001 20h72c6 0 11 -2.16699 15 -6.5s6 -9.5 6 -15.5c0 -28.667 -10 -55.5 -30 -80.5s-45.333 -37.5 -76 -37.5c-18.667 0 -40.167 6.16699 -64.5 18.5
s-40.166 18.5 -47.499 18.5c-6.66699 0 -12.334 -1.83301 -17.001 -5.5s-7.66699 -7.16699 -9 -10.5c-4.66699 -13.333 -11.334 -20 -20.001 -20h-72c-6 0 -11 2.16699 -15 6.5s-6 9.5 -6 15.5c0 28.667 10 55.5 30 80.5s45.333 37.5 76 37.5z" />
    <glyph glyph-name="Imacron" unicode="&#x12a;" 
d="M500 92v-68.0039c0 -16 -8.66699 -24 -26 -24h-350c-6.66699 0 -12.334 2.33301 -17.001 7s-7 10.334 -7 17.001v68c0 6.66699 2.33301 12.334 7 17.001s10.334 7 17.001 7h115v468h-115c-6.66699 0 -12.334 2.33301 -17.001 7s-7 10.334 -7 17.001v68
c0 6.66699 2.33301 12.334 7 17.001s10.334 7 17.001 7h350c17.333 0 26 -8 26 -24v-68c0 -16 -8.66699 -24 -26 -24h-114v-468h114c17.333 0 26 -8 26 -24zM444 854.996v-62c0 -14 -7.66699 -21 -23 -21h-244c-6.66699 0 -12 2 -16 6s-6 9 -6 15v62c0 6 2 11 6 15
s9.33301 6 16 6h244c15.333 0 23 -7 23 -21z" />
    <glyph glyph-name="imacron" unicode="&#x12b;" 
d="M260 396l-140 -0.000976562c-6.66699 0 -12.5 2.33301 -17.5 7s-7.5 10.334 -7.5 17.001v56c0 6.66699 2.5 12.334 7.5 17.001s10.833 7 17.5 7h234c7.33301 0 14 -2.33301 20 -7s9 -10.334 9 -17.001v-372h122c6.66699 0 12.5 -2.33301 17.5 -7s7.5 -10.334 7.5 -17.001
v-56c0 -6.66699 -2.5 -12.334 -7.5 -17.001s-10.833 -7 -17.5 -7h-391c-6.66699 0 -12.5 2.33301 -17.5 7s-7.5 10.334 -7.5 17.001v56c0 6.66699 2.5 12.334 7.5 17.001s10.833 7 17.5 7h146v292zM453 654.999v-62c0 -14 -7.66699 -21 -23 -21h-244c-6.66699 0 -12 2 -16 6
s-6 9 -6 15v62c0 6 2 11 6 15s9.33301 6 16 6h244c15.333 0 23 -7 23 -21z" />
    <glyph glyph-name="Ibreve" unicode="&#x12c;" 
d="M500 92v-68.0039c0 -16 -8.66699 -24 -26 -24h-350c-6.66699 0 -12.334 2.33301 -17.001 7s-7 10.334 -7 17.001v68c0 6.66699 2.33301 12.334 7 17.001s10.334 7 17.001 7h115v468h-115c-6.66699 0 -12.334 2.33301 -17.001 7s-7 10.334 -7 17.001v68
c0 6.66699 2.33301 12.334 7 17.001s10.334 7 17.001 7h350c17.333 0 26 -8 26 -24v-68c0 -16 -8.66699 -24 -26 -24h-114v-468h114c17.333 0 26 -8 26 -24zM165 909.996h59.002c12.667 0 20.667 -6.33301 24 -19c4 -14.667 9.5 -25.667 16.5 -33s18.833 -11 35.5 -11
c16 0 27.667 3.66699 35 11s13 18.333 17 33c3.33301 12.667 11.333 19 24 19h61c9.33301 0 14 -6.33301 14 -19c0 -10.667 -2.66699 -23 -8 -37s-13.333 -28.833 -24 -44.5s-26.334 -28.667 -47.001 -39s-44.667 -15.5 -72 -15.5s-51.333 5.16699 -72 15.5
s-36.334 23.333 -47.001 39s-18.667 30.5 -24 44.5s-8 26.333 -8 37c0 12.667 5.33301 19 16 19z" />
    <glyph glyph-name="ibreve" unicode="&#x12d;" 
d="M260 396l-140 -0.000976562c-6.66699 0 -12.5 2.33301 -17.5 7s-7.5 10.334 -7.5 17.001v56c0 6.66699 2.5 12.334 7.5 17.001s10.833 7 17.5 7h234c7.33301 0 14 -2.33301 20 -7s9 -10.334 9 -17.001v-372h122c6.66699 0 12.5 -2.33301 17.5 -7s7.5 -10.334 7.5 -17.001
v-56c0 -6.66699 -2.5 -12.334 -7.5 -17.001s-10.833 -7 -17.5 -7h-391c-6.66699 0 -12.5 2.33301 -17.5 7s-7.5 10.334 -7.5 17.001v56c0 6.66699 2.5 12.334 7.5 17.001s10.833 7 17.5 7h146v292zM184 709.999h59.002c12.667 0 20.667 -6.33301 24 -19
c4 -14.667 9.5 -25.667 16.5 -33s18.833 -11 35.5 -11c16 0 27.667 3.66699 35 11s13 18.333 17 33c3.33301 12.667 11.333 19 24 19h61c9.33301 0 14 -6.33301 14 -19c0 -10.667 -2.66699 -23 -8 -37s-13.333 -28.833 -24 -44.5s-26.334 -28.667 -47.001 -39
s-44.667 -15.5 -72 -15.5s-51.333 5.16699 -72 15.5s-36.334 23.333 -47.001 39s-18.667 30.5 -24 44.5s-8 26.333 -8 37c0 12.667 5.33301 19 16 19z" />
    <glyph glyph-name="Iogonek" unicode="&#x12e;" 
d="M476 -190l-68.999 -0.00195312c-26 0 -47.333 8.66699 -64 26s-25 36.333 -25 57c0 12.667 2.16699 25 6.5 37s9.66602 22 15.999 30s12.833 15.167 19.5 21.5s12 11.166 16 14.499l7 4h-259c-6.66699 0 -12.334 2.33301 -17.001 7s-7 10.334 -7 17.001v68
c0 6.66699 2.33301 12.334 7 17.001s10.334 7 17.001 7h115v468h-115c-6.66699 0 -12.334 2.33301 -17.001 7s-7 10.334 -7 17.001v68c0 6.66699 2.33301 12.334 7 17.001s10.334 7 17.001 7h350c17.333 0 26 -8 26 -24v-68c0 -16 -8.66699 -24 -26 -24h-114v-468h114
c17.333 0 26 -8 26 -24v-68c0 -8.66699 -3.33301 -15.334 -10 -20.001c-12.667 -8 -27.667 -21.167 -45 -39.5s-26 -34.5 -26 -48.5c0 -9.33301 5.33301 -14 16 -14h41c5.33301 0 10 -2 14 -6s6 -8.66699 6 -14v-52c0 -5.33301 -2 -10 -6 -14s-8.66699 -6 -14 -6z" />
    <glyph glyph-name="iogonek" unicode="&#x12f;" 
d="M260 396l-140.001 -0.00390625c-6.66699 0 -12.5 2.33301 -17.5 7s-7.5 10.334 -7.5 17.001v56c0 6.66699 2.5 12.334 7.5 17.001s10.833 7 17.5 7h234c7.33301 0 14 -2.33301 20 -7s9 -10.334 9 -17.001v-372h122c6.66699 0 12.5 -2.33301 17.5 -7
s7.5 -10.334 7.5 -17.001v-56c0 -9.33301 -5 -16.666 -15 -21.999c-8.66699 -4.66699 -18.667 -11 -30 -19s-23.166 -18.167 -35.499 -30.5s-18.5 -23.166 -18.5 -32.499c0 -12 5.33301 -18 16 -18h41c5.33301 0 10 -2 14 -6s6 -8.66699 6 -14v-52c0 -5.33301 -2 -10 -6 -14
s-8.66699 -6 -14 -6h-69c-26 0 -47.333 8.66699 -64 26s-25 36.333 -25 57c0 20 6.33301 39 19 57s25 30.667 37 38l19 12h-291c-6.66699 0 -12.5 2.33301 -17.5 7s-7.5 10.334 -7.5 17.001v56c0 6.66699 2.5 12.334 7.5 17.001s10.833 7 17.5 7h146v292zM386.999 675.996
v-80.002c0 -16 -8.66699 -24 -26 -24h-80c-7.33301 0 -13.166 2.33301 -17.499 7s-6.5 10.334 -6.5 17.001v80c0 6.66699 2.16699 12.334 6.5 17.001s10.166 7 17.499 7h80c17.333 0 26 -8 26 -24z" />
    <glyph glyph-name="Idotaccent" unicode="&#x130;" 
d="M500 92v-68.0039c0 -16 -8.66699 -24 -26 -24h-350c-6.66699 0 -12.334 2.33301 -17.001 7s-7 10.334 -7 17.001v68c0 6.66699 2.33301 12.334 7 17.001s10.334 7 17.001 7h115v468h-115c-6.66699 0 -12.334 2.33301 -17.001 7s-7 10.334 -7 17.001v68
c0 6.66699 2.33301 12.334 7 17.001s10.334 7 17.001 7h350c17.333 0 26 -8 26 -24v-68c0 -16 -8.66699 -24 -26 -24h-114v-468h114c17.333 0 26 -8 26 -24zM363 875.996v-80.002c0 -16 -8.66699 -24 -26 -24h-76c-7.33301 0 -13.166 2.33301 -17.499 7
s-6.5 10.334 -6.5 17.001v80c0 6.66699 2.16699 12.334 6.5 17.001s10.166 7 17.499 7h76c17.333 0 26 -8 26 -24z" />
    <glyph glyph-name="dotlessi" unicode="&#x131;" 
d="M260 396l-140 -0.000976562c-6.66699 0 -12.5 2.33301 -17.5 7s-7.5 10.334 -7.5 17.001v56c0 6.66699 2.5 12.334 7.5 17.001s10.833 7 17.5 7h234c7.33301 0 14 -2.33301 20 -7s9 -10.334 9 -17.001v-372h122c6.66699 0 12.5 -2.33301 17.5 -7s7.5 -10.334 7.5 -17.001
v-56c0 -6.66699 -2.5 -12.334 -7.5 -17.001s-10.833 -7 -17.5 -7h-391c-6.66699 0 -12.5 2.33301 -17.5 7s-7.5 10.334 -7.5 17.001v56c0 6.66699 2.5 12.334 7.5 17.001s10.833 7 17.5 7h146v292z" />
    <glyph glyph-name="IJ" unicode="&#x132;" horiz-adv-x="599" 
d="M272 89v-65c0 -16 -8.66699 -24 -26 -24h-190c-6.66699 -0 -12.334 2.33301 -17.001 7s-7 10.334 -7 17.001v65c0 7.33301 2.33301 13.166 7 17.499s10.334 6.5 17.001 6.5h39v474h-39c-6.66699 0 -12.334 2.16699 -17.001 6.5s-7 10.166 -7 17.499v65
c0 6.66699 2.33301 12.334 7 17.001s10.334 7 17.001 7h190c17.333 0 26 -8 26 -24v-65c0 -16 -8.66699 -24 -26 -24h-30v-474h30c17.333 0 26 -8 26 -24zM333 0c-16 0 -24 7.66699 -24 23v65c0 6.66699 2.16699 12.334 6.5 17.001s10.166 7 17.499 7
c23.333 0 42.333 6.5 57 19.5s22 30.5 22 52.5v403h-69c-7.33301 0 -13.166 2.16699 -17.499 6.5s-6.5 10.166 -6.5 17.499v65c0 6.66699 2.16699 12.334 6.5 17.001s10.166 7 17.499 7h160c8.66699 0 15.834 -2.83301 21.501 -8.5s8.5 -12.834 8.5 -21.501v-486
c0 -52.667 -19.5 -96.5 -58.5 -131.5s-86.167 -52.5 -141.5 -52.5z" />
    <glyph glyph-name="ij" unicode="&#x133;" 
d="M104 396l-35 -0.000976562c-6.66699 0 -12.5 2.33301 -17.5 7s-7.5 10.334 -7.5 17.001v56c0 6.66699 2.5 12.334 7.5 17.001s10.833 7 17.5 7h127c7.33301 0 14 -2.33301 20 -7s9 -10.334 9 -17.001v-372h48c6.66699 0 12.5 -2.33301 17.5 -7s7.5 -10.334 7.5 -17.001
v-56c0 -6.66699 -2.5 -12.334 -7.5 -17.001s-10.833 -7 -17.5 -7h-210c-6.66699 0 -12.5 2.33301 -17.5 7s-7.5 10.334 -7.5 17.001v56c0 6.66699 2.5 12.334 7.5 17.001s10.833 7 17.5 7h41v292zM230 675.999v-80.002c0 -16 -8.66699 -24 -26 -24h-80
c-6.66699 0 -12.334 2.33301 -17.001 7s-7 10.334 -7 17.001v80c0 6.66699 2.33301 12.334 7 17.001s10.334 7 17.001 7h80c17.333 0 26 -8 26 -24zM532 675.997v-80.002c0 -16 -8.66699 -24 -26 -24h-80c-6.66699 0 -12.334 2.33301 -17.001 7s-7 10.334 -7 17.001v80
c0 6.66699 2.33301 12.334 7 17.001s10.334 7 17.001 7h80c17.333 0 26 -8 26 -24zM328 -57.0049c0 -8 3.33398 -15.001 10.001 -21.001s15 -9 25 -9c28.667 0 43 16.333 43 49v434h-40c-6.66699 0 -12.5 2.33301 -17.5 7s-7.5 10.334 -7.5 17.001v56
c0 6.66699 2.5 12.334 7.5 17.001s10.833 7 17.5 7h132c7.33301 0 14 -2.33301 20 -7s9 -10.334 9 -17.001v-512c0 -42.667 -15.667 -79 -47 -109s-69 -45 -113 -45c-43.333 0 -79.166 12.333 -107.499 37s-42.5 56.667 -42.5 96c0 7.33301 2.66699 13.666 8 18.999
s11.666 8 18.999 8h57c7.33301 0 13.666 -2.66699 18.999 -8s8 -11.666 8 -18.999z" />
    <glyph glyph-name="Jcircumflex" unicode="&#x134;" 
d="M480 670l-0.00292969 -486.002c0 -53.333 -19.667 -98.833 -59 -136.5s-86.333 -56.5 -141 -56.5c-56 0 -103.167 18.667 -141.5 56s-57.5 83 -57.5 137v24c0 8.66699 2.83301 15.834 8.5 21.501s12.834 8.5 21.501 8.5h58c8.66699 0 15.834 -2.83301 21.501 -8.5
s8.5 -12.834 8.5 -21.501v-25c0 -22 8 -40.833 24 -56.5s35 -23.5 57 -23.5c22.667 0 41.5 7.83301 56.5 23.5s22.5 34.834 22.5 57.501v400h-219c-6.66699 0 -12.334 2.33301 -17.001 7s-7 10.334 -7 17.001v68c0 6.66699 2.33301 12.334 7 17.001s10.334 7 17.001 7h310
c8.66699 0 15.834 -2.83301 21.501 -8.5s8.5 -12.834 8.5 -21.501zM429.997 754.998h-54c-20 0 -35.667 7.66699 -47 23l-38 51l-37 -51c-12 -15.333 -28 -23 -48 -23h-54c-16.667 0 -25 5.33301 -25 16c0 6.66699 2.66699 12.667 8 18l81 95c14.667 17.333 31.667 26 51 26
h48c19.333 0 36.333 -8.66699 51 -26l81 -95c5.33301 -6.66699 8 -12.667 8 -18c0 -10.667 -8.33301 -16 -25 -16z" />
    <glyph glyph-name="jcircumflex" unicode="&#x135;" 
d="M121 -30c0 8.66699 2.83105 15.832 8.49805 21.499s12.834 8.5 21.501 8.5h57c8.66699 0 15.834 -2.83301 21.501 -8.5s8.5 -12.834 8.5 -21.501c0 -15.333 5.5 -28.166 16.5 -38.499s23.167 -15.5 36.5 -15.5c16.667 0 29.667 5.83301 39 17.5s14 25.5 14 41.5v421h-209
c-6.66699 0 -12.5 2.33301 -17.5 7s-7.5 10.334 -7.5 17.001v56c0 6.66699 2.5 12.334 7.5 17.001s10.833 7 17.5 7h302c7.33301 0 14 -2.33301 20 -7s9 -10.334 9 -17.001v-487c0 -50.667 -16.667 -93.167 -50 -127.5s-75.666 -51.5 -126.999 -51.5
c-44.667 0 -83.834 16.167 -117.501 48.5s-50.5 69.5 -50.5 111.5zM515.998 554.998h-54c-17.333 0 -33 7.66699 -47 23l-38 42l-37 -42c-14 -15.333 -30 -23 -48 -23h-54c-12.667 0 -20.667 3.5 -24 10.5s-1 14.833 7 23.5l81 95c14.667 17.333 31.667 26 51 26h48
c19.333 0 36.333 -8.66699 51 -26l81 -95c8 -8.66699 10.333 -16.5 7 -23.5s-11.333 -10.5 -24 -10.5z" />
    <glyph glyph-name="Kcommaaccent" unicode="&#x136;" 
d="M334 370l208 -334.999c2.66699 -4.66699 4 -9.33398 4 -14.001c0 -14 -8.33301 -21 -25 -21h-60c-19.333 0 -34.666 9.66699 -45.999 29l-198 336v-335c0 -8.66699 -2.83301 -15.834 -8.5 -21.501s-12.834 -8.5 -21.501 -8.5h-59c-8.66699 0 -15.834 2.83301 -21.501 8.5
s-8.5 12.834 -8.5 21.501v640c0 8.66699 2.83301 15.834 8.5 21.501s12.834 8.5 21.501 8.5h59c8.66699 0 15.834 -2.83301 21.501 -8.5s8.5 -12.834 8.5 -21.501v-295l184 296c11.333 19.333 26.666 29 45.999 29h60c16.667 0 25 -6.66699 25 -20
c0 -4.66699 -1.66699 -9.66699 -5 -15zM260 -222.999l-32 0.000976562c-18.667 0 -28 7 -28 21c0 5.33301 1.33301 10.666 4 15.999l46 108c7.33301 16 22.333 24 45 24h52c20.667 0 31 -7.66699 31 -23c0 -3.33301 -2 -9 -6 -17l-70 -103
c-12.667 -17.333 -26.667 -26 -42 -26z" />
    <glyph glyph-name="kcommaaccent" unicode="&#x137;" 
d="M400 25l-162 230.002v-228c0 -7.33301 -2.66699 -13.666 -8 -18.999s-11.666 -8 -18.999 -8h-66c-7.33301 0 -13.666 2.66699 -18.999 8s-8 11.666 -8 18.999v646c0 7.33301 2.66699 13.666 8 18.999s11.666 8 18.999 8h66c7.33301 0 13.666 -2.66699 18.999 -8
s8 -12 8 -20v-403l149 206c12 16.667 26.333 25 43 25h67c16 0 24 -5.66699 24 -17c0 -4.66699 -1.66699 -9.33398 -5 -14.001l-157 -209l172 -229c4 -5.33301 6 -10 6 -14c0 -11.333 -8.33301 -17 -25 -17h-69c-16.667 -0 -31 8.33301 -43 25zM260 -222.998
l-32 0.000976562c-18.667 0 -28 7 -28 21c0 5.33301 1.33301 10.666 4 15.999l46 108c7.33301 16 22.333 24 45 24h52c20.667 0 31 -7.66699 31 -23c0 -3.33301 -2 -9 -6 -17l-70 -103c-12.667 -17.333 -26.667 -26 -42 -26z" />
    <glyph glyph-name="kgreenlandic" unicode="&#x138;" 
d="M400 25l-162 230.002v-228c0 -7.33301 -2.66699 -13.666 -8 -18.999s-11.666 -8 -18.999 -8h-66c-7.33301 0 -13.666 2.66699 -18.999 8s-8 11.666 -8 18.999v446c0 7.33301 2.66699 13.666 8 18.999s11.666 8 18.999 8h66c7.33301 0 13.666 -2.66699 18.999 -8
s8 -12 8 -20v-203l149 206c12 16.667 26.333 25 43 25h67c16 0 24 -5.66699 24 -17c0 -4.66699 -1.66699 -9.33398 -5 -14.001l-157 -209l172 -229c4 -5.33301 6 -10 6 -14c0 -11.333 -8.33301 -17 -25 -17h-69c-16.667 -0 -31 8.33301 -43 25z" />
    <glyph glyph-name="Lacute" unicode="&#x139;" 
d="M151 700l58.999 0.000976562c8.66699 0 15.834 -2.83301 21.501 -8.5s8.5 -12.834 8.5 -21.501v-553h255c8.66699 0 15.834 -2.83301 21.501 -8.5s8.5 -12.834 8.5 -21.501v-57c0 -8.66699 -2.83301 -15.834 -8.5 -21.501s-12.834 -8.5 -21.501 -8.5h-344
c-8.66699 0 -15.834 2.83301 -21.501 8.5s-8.5 12.834 -8.5 21.501v640c0 8.66699 2.83301 15.834 8.5 21.501s12.834 8.5 21.501 8.5zM258.999 755.001l-49.998 0.000976562c-15.333 0 -23 5 -23 15c0 5.33301 3.33301 12.666 10 21.999l73 94
c11.333 16 28.666 24 51.999 24h69c15.333 0 23 -6 23 -18c0 -6 -3.33301 -12.333 -10 -19l-94 -92c-18.667 -17.333 -35.334 -26 -50.001 -26z" />
    <glyph glyph-name="lacute" unicode="&#x13a;" 
d="M260 596l-124 -0.000976562c-6.66699 0 -12.5 2.33301 -17.5 7s-7.5 10.334 -7.5 17.001v56c0 6.66699 2.5 12.334 7.5 17.001s10.833 7 17.5 7h218c7.33301 0 14 -2.33301 20 -7s9 -10.334 9 -17.001v-572h122c6.66699 0 12.5 -2.33301 17.5 -7s7.5 -10.334 7.5 -17.001
v-56c0 -6.66699 -2.5 -12.334 -7.5 -17.001s-10.833 -7 -17.5 -7h-391c-6.66699 0 -12.5 2.33301 -17.5 7s-7.5 10.334 -7.5 17.001v56c0 6.66699 2.5 12.334 7.5 17.001s10.833 7 17.5 7h146v492zM318 754.999l-49.998 0.000976562c-15.333 0 -23 5 -23 15
c0 5.33301 3.33301 12.666 10 21.999l73 94c11.333 16 28.666 24 51.999 24h69c15.333 0 23 -6 23 -18c0 -6 -3.33301 -12.333 -10 -19l-94 -92c-18.667 -17.333 -35.334 -26 -50.001 -26z" />
    <glyph glyph-name="Lcommaaccent" unicode="&#x13b;" 
d="M151 700l58.999 0.000976562c8.66699 0 15.834 -2.83301 21.501 -8.5s8.5 -12.834 8.5 -21.501v-553h255c8.66699 0 15.834 -2.83301 21.501 -8.5s8.5 -12.834 8.5 -21.501v-57c0 -8.66699 -2.83301 -15.834 -8.5 -21.501s-12.834 -8.5 -21.501 -8.5h-344
c-8.66699 0 -15.834 2.83301 -21.501 8.5s-8.5 12.834 -8.5 21.501v640c0 8.66699 2.83301 15.834 8.5 21.501s12.834 8.5 21.501 8.5zM270.999 -222.999l-32 0.000976562c-18.667 0 -28 7 -28 21c0 5.33301 1.33301 10.666 4 15.999l46 108c7.33301 16 22.333 24 45 24h52
c20.667 0 31 -7.66699 31 -23c0 -3.33301 -2 -9 -6 -17l-70 -103c-12.667 -17.333 -26.667 -26 -42 -26z" />
    <glyph glyph-name="lcommaaccent" unicode="&#x13c;" 
d="M260 596l-124 -0.000976562c-6.66699 0 -12.5 2.33301 -17.5 7s-7.5 10.334 -7.5 17.001v56c0 6.66699 2.5 12.334 7.5 17.001s10.833 7 17.5 7h218c7.33301 0 14 -2.33301 20 -7s9 -10.334 9 -17.001v-572h122c6.66699 0 12.5 -2.33301 17.5 -7s7.5 -10.334 7.5 -17.001
v-56c0 -6.66699 -2.5 -12.334 -7.5 -17.001s-10.833 -7 -17.5 -7h-391c-6.66699 0 -12.5 2.33301 -17.5 7s-7.5 10.334 -7.5 17.001v56c0 6.66699 2.5 12.334 7.5 17.001s10.833 7 17.5 7h146v492zM271 -223.001l-32 0.000976562c-18.667 0 -28 7 -28 21
c0 5.33301 1.33301 10.666 4 15.999l46 108c7.33301 16 22.333 24 45 24h52c20.667 0 31 -7.66699 31 -23c0 -3.33301 -2 -9 -6 -17l-70 -103c-12.667 -17.333 -26.667 -26 -42 -26z" />
    <glyph glyph-name="Lcaron" unicode="&#x13d;" 
d="M151 700l58.999 0.000976562c8.66699 0 15.834 -2.83301 21.501 -8.5s8.5 -12.834 8.5 -21.501v-553h255c8.66699 0 15.834 -2.83301 21.501 -8.5s8.5 -12.834 8.5 -21.501v-57c0 -8.66699 -2.83301 -15.834 -8.5 -21.501s-12.834 -8.5 -21.501 -8.5h-344
c-8.66699 0 -15.834 2.83301 -21.501 8.5s-8.5 12.834 -8.5 21.501v640c0 8.66699 2.83301 15.834 8.5 21.501s12.834 8.5 21.501 8.5zM453.999 531.001l-32 0.000976562c-18.667 0 -28 7 -28 21c0 5.33301 1.33301 10.666 4 15.999l46 108c7.33301 16 22.333 24 45 24h52
c20.667 0 31 -7.66699 31 -23c0 -3.33301 -2 -9 -6 -17l-70 -103c-12.667 -17.333 -26.667 -26 -42 -26z" />
    <glyph glyph-name="lcaron" unicode="&#x13e;" horiz-adv-x="599" 
d="M260 596l-124 -0.000976562c-6.66699 0 -12.5 2.33301 -17.5 7s-7.5 10.334 -7.5 17.001v56c0 6.66699 2.5 12.334 7.5 17.001s10.833 7 17.5 7h218c7.33301 0 14 -2.33301 20 -7s9 -10.334 9 -17.001v-572h122c6.66699 0 12.5 -2.33301 17.5 -7s7.5 -10.334 7.5 -17.001
v-56c0 -6.66699 -2.5 -12.334 -7.5 -17.001s-10.833 -7 -17.5 -7h-391c-6.66699 0 -12.5 2.33301 -17.5 7s-7.5 10.334 -7.5 17.001v56c0 6.66699 2.5 12.334 7.5 17.001s10.833 7 17.5 7h146v492zM503 530.999l-32 0.000976562c-18.667 0 -28 7 -28 21
c0 5.33301 1.33301 10.666 4 15.999l46 108c7.33301 16 22.333 24 45 24h52c20.667 0 31 -7.66699 31 -23c0 -3.33301 -2 -9 -6 -17l-70 -103c-12.667 -17.333 -26.667 -26 -42 -26z" />
    <glyph glyph-name="Ldot" unicode="&#x13f;" 
d="M151 700l58.999 0.000976562c8.66699 0 15.834 -2.83301 21.501 -8.5s8.5 -12.834 8.5 -21.501v-553h255c8.66699 0 15.834 -2.83301 21.501 -8.5s8.5 -12.834 8.5 -21.501v-57c0 -8.66699 -2.83301 -15.834 -8.5 -21.501s-12.834 -8.5 -21.501 -8.5h-344
c-8.66699 0 -15.834 2.83301 -21.501 8.5s-8.5 12.834 -8.5 21.501v640c0 8.66699 2.83301 15.834 8.5 21.501s12.834 8.5 21.501 8.5zM520.999 352.001v-86c0 -16.667 -9 -25 -27 -25h-84c-16.667 0 -25 8.33301 -25 25v86c0 16.667 8.33301 25 25 25h84
c18 0 27 -8.33301 27 -25z" />
    <glyph glyph-name="ldot" unicode="&#x140;" horiz-adv-x="599" 
d="M231 599l-124 -0.000976562c-6.66699 0 -12.5 2.33301 -17.5 7s-7.5 10.334 -7.5 17.001v56c0 6.66699 2.5 12.334 7.5 17.001s10.833 7 17.5 7h218c7.33301 0 14 -2.33301 20 -7s9 -10.334 9 -17.001v-572h122c6.66699 0 12.5 -2.33301 17.5 -7s7.5 -10.334 7.5 -17.001
v-56c0 -6.66699 -2.5 -12.334 -7.5 -17.001s-10.833 -7 -17.5 -7h-391c-6.66699 0 -12.5 2.33301 -17.5 7s-7.5 10.334 -7.5 17.001v56c0 6.66699 2.5 12.334 7.5 17.001s10.833 7 17.5 7h146v492zM600 329.999v-86c0 -16.667 -9 -25 -27 -25h-84
c-16.667 0 -25 8.33301 -25 25v86c0 16.667 8.33301 25 25 25h84c18 0 27 -8.33301 27 -25z" />
    <glyph glyph-name="Lslash" unicode="&#x141;" 
d="M400 474l-0.000976562 -78.999c0 -16 -8.66699 -29 -26 -39l-122 -67v-172h255c8.66699 0 15.834 -2.83301 21.501 -8.5s8.5 -12.834 8.5 -21.501v-57c0 -8.66699 -2.83301 -15.834 -8.5 -21.501s-12.834 -8.5 -21.501 -8.5h-344c-8.66699 0 -15.834 2.83301 -21.501 8.5
s-8.5 12.834 -8.5 21.501v194l-28 -16c-7.33301 -4 -13.833 -4.33301 -19.5 -1s-8.5 8.66602 -8.5 15.999v79c0 16.667 7.66699 29.334 23 38.001l33 18v312c0 8.66699 2.83301 15.834 8.5 21.501s12.834 8.5 21.501 8.5h59c8.66699 0 15.834 -2.83301 21.501 -8.5
s8.5 -12.834 8.5 -21.501v-247l118 65c8 4 15 4.5 21 1.5s9 -8.16699 9 -15.5z" />
    <glyph glyph-name="lslash" unicode="&#x142;" 
d="M199 368l52 27.999v200h-124c-6.66699 0 -12.5 2.33301 -17.5 7s-7.5 10.334 -7.5 17.001v56c0 6.66699 2.5 12.334 7.5 17.001s10.833 7 17.5 7h218c7.33301 0 14 -2.33301 20 -7s9 -10.334 9 -17.001v-212l86 47c8 4 15 4.5 21 1.5s9 -8.16699 9 -15.5v-70
c0 -16 -8.66699 -29 -26 -39l-90 -50v-234h122c6.66699 0 12.5 -2.33301 17.5 -7s7.5 -10.334 7.5 -17.001v-56c0 -6.66699 -2.5 -12.334 -7.5 -17.001s-10.833 -7 -17.5 -7h-391c-6.66699 0 -12.5 2.33301 -17.5 7s-7.5 10.334 -7.5 17.001v56
c0 6.66699 2.5 12.334 7.5 17.001s10.833 7 17.5 7h146v167l-47 -26c-6.66699 -4 -13 -4.33301 -19 -1s-9 8.66602 -9 15.999v70c0 16.667 7.66699 29.334 23 38.001z" />
    <glyph glyph-name="Nacute" unicode="&#x143;" 
d="M97 30v640c0 8.66699 3 15.834 9 21.501s13.333 8.5 22 8.5h59c22.667 0 38 -10 46 -30l118 -305l39 -126h6l-7 130v301c0 8.66699 2.83301 15.834 8.5 21.501s12.834 8.5 21.501 8.5h54c8.66699 0 15.834 -2.83301 21.501 -8.5s8.5 -12.834 8.5 -21.501v-640
c0 -8.66699 -3 -15.834 -9 -21.501s-13.333 -8.5 -22 -8.5h-59c-22.667 0 -38 10 -46 30l-117 301l-40 129h-6l7 -130v-300c0 -8.66699 -2.83301 -15.834 -8.5 -21.501s-12.834 -8.5 -21.501 -8.5h-54c-8.66699 0 -15.834 2.83301 -21.501 8.5s-8.5 12.834 -8.5 21.501z
M318 755l-49.998 0.000976562c-15.333 0 -23 5 -23 15c0 5.33301 3.33301 12.666 10 21.999l73 94c11.333 16 28.666 24 51.999 24h69c15.333 0 23 -6 23 -18c0 -6 -3.33301 -12.333 -10 -19l-94 -92c-18.667 -17.333 -35.334 -26 -50.001 -26z" />
    <glyph glyph-name="nacute" unicode="&#x144;" 
d="M217 473l-0.000976562 -15c3.33301 4 8.16602 8.83301 14.499 14.5s20 13.334 41 23.001s42.167 14.5 63.5 14.5c49.333 0 90.833 -17.333 124.5 -52s50.5 -79.334 50.5 -134.001v-297c0 -7.33301 -2.66699 -13.666 -8 -18.999s-11.666 -8 -18.999 -8h-69
c-7.33301 0 -13.666 2.66699 -18.999 8s-8 11.666 -8 18.999v295c0 24.667 -7.5 44.667 -22.5 60s-34.167 23 -57.5 23c-24 0 -44.333 -8 -61 -24s-25 -34 -25 -54v-300c0 -7.33301 -2.66699 -13.666 -8 -18.999s-11.666 -8 -18.999 -8h-68
c-7.33301 0 -13.666 2.66699 -18.999 8s-8 11.666 -8 18.999v446c0 7.33301 2.66699 13.666 8 18.999s11.666 8 18.999 8h63c7.33301 0 13.666 -2.66699 18.999 -8s8 -11.666 8 -18.999zM334.999 555l-49.998 0.000976562c-15.333 0 -23 5 -23 15
c0 5.33301 3.33301 12.666 10 21.999l73 94c11.333 16 28.666 24 51.999 24h69c15.333 0 23 -6 23 -18c0 -6 -3.33301 -12.333 -10 -19l-94 -92c-18.667 -17.333 -35.334 -26 -50.001 -26z" />
    <glyph glyph-name="Ncommaaccent" unicode="&#x145;" 
d="M97 30v640c0 8.66699 3 15.834 9 21.501s13.333 8.5 22 8.5h59c22.667 0 38 -10 46 -30l118 -305l39 -126h6l-7 130v301c0 8.66699 2.83301 15.834 8.5 21.501s12.834 8.5 21.501 8.5h54c8.66699 0 15.834 -2.83301 21.501 -8.5s8.5 -12.834 8.5 -21.501v-640
c0 -8.66699 -3 -15.834 -9 -21.501s-13.333 -8.5 -22 -8.5h-59c-22.667 0 -38 10 -46 30l-117 301l-40 129h-6l7 -130v-300c0 -8.66699 -2.83301 -15.834 -8.5 -21.501s-12.834 -8.5 -21.501 -8.5h-54c-8.66699 0 -15.834 2.83301 -21.501 8.5s-8.5 12.834 -8.5 21.501z
M241 -223l-32 0.000976562c-18.667 0 -28 7 -28 21c0 5.33301 1.33301 10.666 4 15.999l46 108c7.33301 16 22.333 24 45 24h52c20.667 0 31 -7.66699 31 -23c0 -3.33301 -2 -9 -6 -17l-70 -103c-12.667 -17.333 -26.667 -26 -42 -26z" />
    </font>
</defs>
</svg>
